SplineFontDB: 3.2
FontName: ZXOrtho
FullName: ZX Ortho
FamilyName: ZX Ortho
Weight: Book
Copyright: Copyright (c) 2022 the Orthoverse
Version: 1.0
ItalicAngle: 0
UnderlinePosition: -150
UnderlineWidth: 50
Ascent: 750
Descent: 250
InvalidEm: 0
sfntRevision: 0x00030000
LayerCount: 2
Layer: 0 1 "Back" 1
Layer: 1 1 "Fore" 0
XUID: [1021 893 956991431 2074651]
StyleMap: 0x0040
FSType: 0
OS2Version: 3
OS2_WeightWidthSlopeOnly: 0
OS2_UseTypoMetrics: 0
CreationTime: 1607582925
ModificationTime: 1659254839
PfmFamily: 17
TTFWeight: 400
TTFWidth: 5
LineGap: 0
VLineGap: 0
Panose: 2 0 0 0 0 0 0 0 0 0
OS2TypoAscent: 750
OS2TypoAOffset: 0
OS2TypoDescent: -250
OS2TypoDOffset: 0
OS2TypoLinegap: 0
OS2WinAscent: 900
OS2WinAOffset: 0
OS2WinDescent: 200
OS2WinDOffset: 0
HheadAscent: 750
HheadAOffset: 0
HheadDescent: -250
HheadDOffset: 0
OS2SubXSize: 300
OS2SubYSize: 300
OS2SubXOff: 0
OS2SubYOff: -150
OS2SupXSize: 300
OS2SupYSize: 300
OS2SupXOff: 0
OS2SupYOff: 300
OS2StrikeYSize: 50
OS2StrikeYPos: 250
OS2CapHeight: 600
OS2XHeight: 500
OS2Vendor: 'PYRS'
OS2CodePages: 00000006.00000000
OS2UnicodeRanges: 8000022f.0000004a.00000000.00000000
MarkAttachClasses: 1
DEI: 91125
ShortTable: maxp 16
  1
  0
  314
  48
  6
  0
  0
  1
  0
  0
  0
  0
  0
  0
  0
  0
EndShort
LangName: 1033 "" "" "Regular" "" "" "Version 1.2" "" "" "Style-7" "Sizenko Alexander" "" "" "http://www.styleseven.com" "Freeware" "" "" "" "" "ZX Spectrum 7"
GaspTable: 1 65535 0 0
Encoding: UnicodeBmp
UnicodeInterp: none
NameList: AGL For New Fonts
DisplaySize: -48
AntiAlias: 1
FitToEm: 0
WinInfo: 0 24 6
BeginPrivate: 0
EndPrivate
BeginChars: 65539 314

StartChar: ampersand
Encoding: 38 38 4
Width: 800
Flags: W
LayerCount: 2
Fore
SplineSet
200 500 m 1,0,-1
 300 500 l 1,1,-1
 300 600 l 1,2,-1
 400 600 l 1,3,-1
 400 500 l 1,4,-1
 500 500 l 1,5,-1
 500 400 l 1,6,-1
 400 400 l 1,7,-1
 400 300 l 1,8,-1
 500 300 l 1,9,-1
 500 200 l 1,10,-1
 600 200 l 1,11,-1
 600 300 l 1,12,-1
 700 300 l 1,13,-1
 700 200 l 1,14,-1
 600 200 l 1,15,-1
 600 100 l 1,16,-1
 700 100 l 1,17,-1
 700 0 l 1,18,-1
 600 0 l 1,19,-1
 600 100 l 1,20,-1
 500 100 l 1,21,-1
 500 0 l 1,22,-1
 200 0 l 1,23,-1
 200 100 l 1,24,-1
 100 100 l 1,25,-1
 100 200 l 1,26,-1
 200 200 l 1,27,-1
 200 300 l 1,28,-1
 300 300 l 1,29,-1
 300 400 l 1,30,-1
 200 400 l 1,31,-1
 200 500 l 1,0,-1
400 300 m 1,32,-1
 300 300 l 1,33,-1
 300 200 l 1,34,-1
 200 200 l 1,35,-1
 200 100 l 1,36,-1
 500 100 l 1,37,-1
 500 200 l 1,38,-1
 400 200 l 1,39,-1
 400 300 l 1,32,-1
300 400 m 1,40,-1
 400 400 l 1,41,-1
 400 500 l 1,42,-1
 300 500 l 1,43,-1
 300 400 l 1,40,-1
EndSplineSet
Validated: 5
EndChar

StartChar: quotesingle
Encoding: 39 39 5
Width: 398
Flags: W
LayerCount: 2
Fore
SplineSet
94 500 m 1,0,-1
 194 500 l 1,1,-1
 194 600 l 1,2,-1
 294 600 l 1,3,-1
 294 500 l 1,4,-1
 194 500 l 1,5,-1
 194 400 l 1,6,-1
 94 400 l 1,7,-1
 94 500 l 1,0,-1
EndSplineSet
Validated: 5
EndChar

StartChar: parenleft
Encoding: 40 40 6
Width: 520
Flags: W
LayerCount: 2
Fore
SplineSet
210 500 m 1,0,-1
 310 500 l 1,1,-1
 310 600 l 1,2,-1
 410 600 l 1,3,-1
 410 500 l 1,4,-1
 310 500 l 1,5,-1
 310 100 l 1,6,-1
 410 100 l 1,7,-1
 410 0 l 1,8,-1
 310 0 l 1,9,-1
 310 100 l 1,10,-1
 210 100 l 1,11,-1
 210 500 l 1,0,-1
EndSplineSet
Validated: 5
EndChar

StartChar: parenright
Encoding: 41 41 7
Width: 486
Flags: W
LayerCount: 2
Fore
SplineSet
100 600 m 1,0,-1
 200 600 l 1,1,-1
 200 500 l 1,2,-1
 300 500 l 1,3,-1
 300 100 l 1,4,-1
 200 100 l 1,5,-1
 200 0 l 1,6,-1
 100 0 l 1,7,-1
 100 100 l 1,8,-1
 200 100 l 1,9,-1
 200 500 l 1,10,-1
 100 500 l 1,11,-1
 100 600 l 1,0,-1
EndSplineSet
Validated: 5
EndChar

StartChar: asterisk
Encoding: 42 42 8
Width: 692
Flags: W
LayerCount: 2
Fore
SplineSet
192 500 m 1,0,-1
 292 500 l 1,1,-1
 292 400 l 1,2,-1
 392 400 l 1,3,-1
 392 500 l 1,4,-1
 492 500 l 1,5,-1
 492 400 l 1,6,-1
 392 400 l 1,7,-1
 392 300 l 1,8,-1
 592 300 l 1,9,-1
 592 200 l 1,10,-1
 392 200 l 1,11,-1
 392 100 l 1,12,-1
 492 100 l 1,13,-1
 492 0 l 1,14,-1
 392 0 l 1,15,-1
 392 100 l 1,16,-1
 292 100 l 1,17,-1
 292 0 l 1,18,-1
 192 0 l 1,19,-1
 192 100 l 1,20,-1
 292 100 l 1,21,-1
 292 200 l 1,22,-1
 92 200 l 1,23,-1
 92 300 l 1,24,-1
 292 300 l 1,25,-1
 292 400 l 1,26,-1
 192 400 l 1,27,-1
 192 500 l 1,0,-1
EndSplineSet
Validated: 5
EndChar

StartChar: plus
Encoding: 43 43 9
Width: 692
Flags: W
LayerCount: 2
Fore
SplineSet
92 300 m 1,0,-1
 292 300 l 1,1,-1
 292 500 l 1,2,-1
 392 500 l 1,3,-1
 392 300 l 1,4,-1
 592 300 l 1,5,-1
 592 200 l 1,6,-1
 392 200 l 1,7,-1
 392 0 l 1,8,-1
 292 0 l 1,9,-1
 292 200 l 1,10,-1
 92 200 l 1,11,-1
 92 300 l 1,0,-1
EndSplineSet
Validated: 1
EndChar

StartChar: comma
Encoding: 44 44 10
Width: 366
Flags: W
LayerCount: 2
Fore
SplineSet
81 0 m 1,0,-1
 181 0 l 1,1,-1
 181 200 l 1,2,-1
 281 200 l 1,3,-1
 281 0 l 1,4,-1
 181 0 l 1,5,-1
 181 -100 l 1,6,-1
 81 -100 l 1,7,-1
 81 0 l 1,0,-1
EndSplineSet
Validated: 5
EndChar

StartChar: hyphen
Encoding: 45 45 11
Width: 687
Flags: W
LayerCount: 2
Fore
SplineSet
87 300 m 1,0,-1
 587 300 l 1,1,-1
 587 200 l 1,2,-1
 87 200 l 1,3,-1
 87 300 l 1,0,-1
EndSplineSet
Validated: 1
EndChar

StartChar: period
Encoding: 46 46 12
Width: 284
Flags: W
LayerCount: 2
Fore
SplineSet
40 200 m 1,0,-1
 240 200 l 1,1,-1
 240 0 l 1,2,-1
 40 0 l 1,3,-1
 40 200 l 1,0,-1
EndSplineSet
Validated: 1
EndChar

StartChar: slash
Encoding: 47 47 13
Width: 692
Flags: W
LayerCount: 2
Fore
SplineSet
92 100 m 1,0,-1
 192 100 l 1,1,-1
 192 200 l 1,2,-1
 292 200 l 1,3,-1
 292 300 l 1,4,-1
 392 300 l 1,5,-1
 392 400 l 1,6,-1
 492 400 l 1,7,-1
 492 500 l 1,8,-1
 592 500 l 1,9,-1
 592 400 l 1,10,-1
 492 400 l 1,11,-1
 492 300 l 1,12,-1
 392 300 l 1,13,-1
 392 200 l 1,14,-1
 292 200 l 1,15,-1
 292 100 l 1,16,-1
 192 100 l 1,17,-1
 192 0 l 1,18,-1
 92 0 l 1,19,-1
 92 100 l 1,0,-1
EndSplineSet
Validated: 5
EndChar

StartChar: zero
Encoding: 48 48 14
Width: 698
Flags: W
LayerCount: 2
Fore
SplineSet
-2 500 m 1,0,-1
 98 500 l 1,1,-1
 98 600 l 1,2,-1
 498 600 l 1,3,-1
 498 500 l 1,4,-1
 598 500 l 1,5,-1
 598 100 l 1,6,-1
 498 100 l 1,7,-1
 498 0 l 1,8,-1
 98 0 l 1,9,-1
 98 100 l 1,10,-1
 -2 100 l 1,11,-1
 -2 500 l 1,0,-1
98 200 m 1,12,-1
 198 200 l 1,13,-1
 198 300 l 1,14,-1
 298 300 l 1,15,-1
 298 400 l 1,16,-1
 398 400 l 1,17,-1
 398 500 l 1,18,-1
 98 500 l 1,19,-1
 98 200 l 1,12,-1
298 300 m 1,20,-1
 298 200 l 1,21,-1
 198 200 l 1,22,-1
 198 100 l 1,23,-1
 498 100 l 1,24,-1
 498 400 l 1,25,-1
 398 400 l 1,26,-1
 398 300 l 1,27,-1
 298 300 l 1,20,-1
EndSplineSet
Validated: 5
EndChar

StartChar: one
Encoding: 49 49 15
Width: 598
Flags: W
LayerCount: 2
Fore
SplineSet
-2 500 m 1,0,-1
 98 500 l 1,1,-1
 98 600 l 1,2,-1
 298 600 l 1,3,-1
 298 100 l 1,4,-1
 498 100 l 1,5,-1
 498 0 l 1,6,-1
 -2 0 l 1,7,-1
 -2 100 l 1,8,-1
 198 100 l 1,9,-1
 198 500 l 1,10,-1
 98 500 l 1,11,-1
 98 400 l 1,12,-1
 -2 400 l 1,13,-1
 -2 500 l 1,0,-1
EndSplineSet
Validated: 5
EndChar

StartChar: two
Encoding: 50 50 16
Width: 698
Flags: W
LayerCount: 2
Fore
SplineSet
-2 500 m 1,0,-1
 98 500 l 1,1,-1
 98 600 l 1,2,-1
 498 600 l 1,3,-1
 498 500 l 1,4,-1
 598 500 l 1,5,-1
 598 300 l 1,6,-1
 498 300 l 1,7,-1
 498 200 l 1,8,-1
 98 200 l 1,9,-1
 98 100 l 1,10,-1
 598 100 l 1,11,-1
 598 0 l 1,12,-1
 -2 0 l 1,13,-1
 -2 200 l 1,14,-1
 98 200 l 1,15,-1
 98 300 l 1,16,-1
 498 300 l 1,17,-1
 498 500 l 1,18,-1
 98 500 l 1,19,-1
 98 400 l 1,20,-1
 -2 400 l 1,21,-1
 -2 500 l 1,0,-1
EndSplineSet
Validated: 5
EndChar

StartChar: three
Encoding: 51 51 17
Width: 700
Flags: W
LayerCount: 2
Fore
SplineSet
0 500 m 1,0,-1
 100 500 l 1,1,-1
 100 600 l 1,2,-1
 500 600 l 1,3,-1
 500 500 l 1,4,-1
 600 500 l 1,5,-1
 600 400 l 1,6,-1
 500 400 l 1,7,-1
 500 300 l 1,8,-1
 600 300 l 1,9,-1
 600 100 l 1,10,-1
 500 100 l 1,11,-1
 500 0 l 1,12,-1
 100 0 l 1,13,-1
 100 100 l 1,14,-1
 0 100 l 1,15,-1
 0 200 l 1,16,-1
 100 200 l 1,17,-1
 100 100 l 1,18,-1
 500 100 l 1,19,-1
 500 300 l 1,20,-1
 300 300 l 1,21,-1
 300 400 l 1,22,-1
 500 400 l 1,23,-1
 500 500 l 1,24,-1
 100 500 l 1,25,-1
 100 400 l 1,26,-1
 0 400 l 1,27,-1
 0 500 l 1,0,-1
EndSplineSet
Validated: 5
EndChar

StartChar: four
Encoding: 52 52 18
Width: 698
Flags: W
LayerCount: 2
Fore
SplineSet
-2 300 m 1,0,-1
 98 300 l 1,1,-1
 98 400 l 1,2,-1
 198 400 l 1,3,-1
 198 500 l 1,4,-1
 298 500 l 1,5,-1
 298 600 l 1,6,-1
 398 600 l 1,7,-1
 398 200 l 1,8,-1
 598 200 l 1,9,-1
 598 100 l 1,10,-1
 398 100 l 1,11,-1
 398 0 l 1,12,-1
 298 0 l 1,13,-1
 298 100 l 1,14,-1
 -2 100 l 1,15,-1
 -2 300 l 1,0,-1
298 400 m 1,16,-1
 198 400 l 1,17,-1
 198 300 l 1,18,-1
 98 300 l 1,19,-1
 98 200 l 1,20,-1
 298 200 l 1,21,-1
 298 400 l 1,16,-1
EndSplineSet
Validated: 5
EndChar

StartChar: five
Encoding: 53 53 19
Width: 700
Flags: W
LayerCount: 2
Fore
SplineSet
0 600 m 1,0,-1
 600 600 l 1,1,-1
 600 500 l 1,2,-1
 100 500 l 1,3,-1
 100 400 l 1,4,-1
 500 400 l 1,5,-1
 500 300 l 1,6,-1
 600 300 l 1,7,-1
 600 100 l 1,8,-1
 500 100 l 1,9,-1
 500 0 l 1,10,-1
 100 0 l 1,11,-1
 100 100 l 1,12,-1
 0 100 l 1,13,-1
 0 200 l 1,14,-1
 100 200 l 1,15,-1
 100 100 l 1,16,-1
 500 100 l 1,17,-1
 500 300 l 1,18,-1
 0 300 l 1,19,-1
 0 600 l 1,0,-1
EndSplineSet
Validated: 5
EndChar

StartChar: six
Encoding: 54 54 20
Width: 702
Flags: W
LayerCount: 2
Fore
SplineSet
2 500 m 1,0,-1
 102 500 l 1,1,-1
 102 600 l 1,2,-1
 502 600 l 1,3,-1
 502 500 l 1,4,-1
 102 500 l 1,5,-1
 102 400 l 1,6,-1
 502 400 l 1,7,-1
 502 300 l 1,8,-1
 602 300 l 1,9,-1
 602 100 l 1,10,-1
 502 100 l 1,11,-1
 502 0 l 1,12,-1
 102 0 l 1,13,-1
 102 100 l 1,14,-1
 2 100 l 1,15,-1
 2 500 l 1,0,-1
102 100 m 1,16,-1
 502 100 l 1,17,-1
 502 300 l 1,18,-1
 102 300 l 1,19,-1
 102 100 l 1,16,-1
EndSplineSet
Validated: 5
EndChar

StartChar: seven
Encoding: 55 55 21
Width: 700
Flags: W
LayerCount: 2
Fore
SplineSet
0 600 m 1,0,-1
 600 600 l 1,1,-1
 600 400 l 1,2,-1
 500 400 l 1,3,-1
 500 300 l 1,4,-1
 400 300 l 1,5,-1
 400 200 l 1,6,-1
 300 200 l 1,7,-1
 300 0 l 1,8,-1
 200 0 l 1,9,-1
 200 200 l 1,10,-1
 300 200 l 1,11,-1
 300 300 l 1,12,-1
 400 300 l 1,13,-1
 400 400 l 1,14,-1
 500 400 l 1,15,-1
 500 500 l 1,16,-1
 0 500 l 1,17,-1
 0 600 l 1,0,-1
EndSplineSet
Validated: 5
EndChar

StartChar: eight
Encoding: 56 56 22
Width: 700
Flags: W
LayerCount: 2
Fore
SplineSet
0 500 m 1,0,-1
 100 500 l 1,1,-1
 100 600 l 1,2,-1
 500 600 l 1,3,-1
 500 500 l 1,4,-1
 600 500 l 1,5,-1
 600 400 l 1,6,-1
 500 400 l 1,7,-1
 500 300 l 1,8,-1
 600 300 l 1,9,-1
 600 100 l 1,10,-1
 500 100 l 1,11,-1
 500 0 l 1,12,-1
 100 0 l 1,13,-1
 100 100 l 1,14,-1
 0 100 l 1,15,-1
 0 300 l 1,16,-1
 100 300 l 1,17,-1
 100 400 l 1,18,-1
 0 400 l 1,19,-1
 0 500 l 1,0,-1
100 100 m 1,20,-1
 500 100 l 1,21,-1
 500 300 l 1,22,-1
 100 300 l 1,23,-1
 100 100 l 1,20,-1
100 400 m 1,24,-1
 500 400 l 1,25,-1
 500 500 l 1,26,-1
 100 500 l 1,27,-1
 100 400 l 1,24,-1
EndSplineSet
Validated: 5
EndChar

StartChar: nine
Encoding: 57 57 23
Width: 698
Flags: W
LayerCount: 2
Fore
SplineSet
-2 500 m 1,0,-1
 98 500 l 1,1,-1
 98 600 l 1,2,-1
 498 600 l 1,3,-1
 498 500 l 1,4,-1
 598 500 l 1,5,-1
 598 100 l 1,6,-1
 498 100 l 1,7,-1
 498 0 l 1,8,-1
 98 0 l 1,9,-1
 98 100 l 1,10,-1
 498 100 l 1,11,-1
 498 200 l 1,12,-1
 98 200 l 1,13,-1
 98 300 l 1,14,-1
 -2 300 l 1,15,-1
 -2 500 l 1,0,-1
98 300 m 1,16,-1
 498 300 l 1,17,-1
 498 500 l 1,18,-1
 98 500 l 1,19,-1
 98 300 l 1,16,-1
EndSplineSet
Validated: 5
EndChar

StartChar: colon
Encoding: 58 58 24
Width: 280
Flags: W
LayerCount: 2
Fore
SplineSet
90 400 m 1,0,-1
 190 400 l 1,1,-1
 190 300 l 1,2,-1
 90 300 l 1,3,-1
 90 400 l 1,0,-1
90 100 m 1,4,-1
 190 100 l 1,5,-1
 190 0 l 1,6,-1
 90 0 l 1,7,-1
 90 100 l 1,4,-1
EndSplineSet
Validated: 1
EndChar

StartChar: semicolon
Encoding: 59 59 25
Width: 400
Flags: W
LayerCount: 2
Fore
SplineSet
90 0 m 1,0,-1
 190 0 l 1,1,-1
 190 200 l 1,2,-1
 290 200 l 1,3,-1
 290 0 l 1,4,-1
 190 0 l 1,5,-1
 190 -100 l 1,6,-1
 90 -100 l 1,7,-1
 90 0 l 1,0,-1
190 500 m 1,8,-1
 290 500 l 1,9,-1
 290 400 l 1,10,-1
 190 400 l 1,11,-1
 190 500 l 1,8,-1
EndSplineSet
Validated: 5
EndChar

StartChar: less
Encoding: 60 60 26
Width: 502
Flags: W
LayerCount: 2
Fore
SplineSet
96 300 m 1,0,-1
 196 300 l 1,1,-1
 196 400 l 1,2,-1
 296 400 l 1,3,-1
 296 500 l 1,4,-1
 396 500 l 1,5,-1
 396 400 l 1,6,-1
 296 400 l 1,7,-1
 296 300 l 1,8,-1
 196 300 l 1,9,-1
 196 200 l 1,10,-1
 296 200 l 1,11,-1
 296 100 l 1,12,-1
 396 100 l 1,13,-1
 396 0 l 1,14,-1
 296 0 l 1,15,-1
 296 100 l 1,16,-1
 196 100 l 1,17,-1
 196 200 l 1,18,-1
 96 200 l 1,19,-1
 96 300 l 1,0,-1
EndSplineSet
Validated: 5
EndChar

StartChar: equal
Encoding: 61 61 27
Width: 800
Flags: W
LayerCount: 2
Fore
SplineSet
200 400 m 1,0,-1
 700 400 l 1,1,-1
 700 300 l 1,2,-1
 200 300 l 1,3,-1
 200 400 l 1,0,-1
200 200 m 1,4,-1
 700 200 l 1,5,-1
 700 100 l 1,6,-1
 200 100 l 1,7,-1
 200 200 l 1,4,-1
EndSplineSet
Validated: 1
EndChar

StartChar: greater
Encoding: 62 62 28
Width: 492
Flags: W
LayerCount: 2
Fore
SplineSet
92 500 m 1,0,-1
 192 500 l 1,1,-1
 192 400 l 1,2,-1
 292 400 l 1,3,-1
 292 300 l 1,4,-1
 392 300 l 1,5,-1
 392 200 l 1,6,-1
 292 200 l 1,7,-1
 292 100 l 1,8,-1
 192 100 l 1,9,-1
 192 0 l 1,10,-1
 92 0 l 1,11,-1
 92 100 l 1,12,-1
 192 100 l 1,13,-1
 192 200 l 1,14,-1
 292 200 l 1,15,-1
 292 300 l 1,16,-1
 192 300 l 1,17,-1
 192 400 l 1,18,-1
 92 400 l 1,19,-1
 92 500 l 1,0,-1
EndSplineSet
Validated: 5
EndChar

StartChar: question
Encoding: 63 63 29
Width: 800
Flags: W
LayerCount: 2
Fore
SplineSet
400 300 m 1,0,-1
 500 300 l 1,1,-1
 500 400 l 1,2,-1
 600 400 l 1,3,-1
 600 500 l 1,4,-1
 200 500 l 1,5,-1
 200 400 l 1,6,-1
 100 400 l 1,7,-1
 100 500 l 1,8,-1
 200 500 l 1,9,-1
 200 600 l 1,10,-1
 600 600 l 1,11,-1
 600 500 l 1,12,-1
 700 500 l 1,13,-1
 700 400 l 1,14,-1
 600 400 l 1,15,-1
 600 300 l 1,16,-1
 500 300 l 1,17,-1
 500 200 l 1,18,-1
 400 200 l 1,19,-1
 400 300 l 1,0,-1
400 100 m 1,20,-1
 500 100 l 1,21,-1
 500 0 l 1,22,-1
 400 0 l 1,23,-1
 400 100 l 1,20,-1
EndSplineSet
Validated: 5
EndChar

StartChar: at
Encoding: 64 64 30
Width: 800
Flags: W
LayerCount: 2
Fore
SplineSet
100 500 m 1,0,-1
 200 500 l 1,1,-1
 200 600 l 1,2,-1
 600 600 l 1,3,-1
 600 500 l 1,4,-1
 700 500 l 1,5,-1
 700 200 l 1,6,-1
 300 200 l 1,7,-1
 300 400 l 1,8,-1
 400 400 l 1,9,-1
 400 500 l 1,10,-1
 200 500 l 1,11,-1
 200 100 l 1,12,-1
 600 100 l 1,13,-1
 600 0 l 1,14,-1
 200 0 l 1,15,-1
 200 100 l 1,16,-1
 100 100 l 1,17,-1
 100 500 l 1,0,-1
400 300 m 1,18,-1
 500 300 l 1,19,-1
 500 400 l 1,20,-1
 400 400 l 1,21,-1
 400 300 l 1,18,-1
500 400 m 1,22,-1
 600 400 l 1,23,-1
 600 500 l 1,24,-1
 500 500 l 1,25,-1
 500 400 l 1,22,-1
EndSplineSet
Validated: 5
EndChar

StartChar: A
Encoding: 65 65 31
Width: 698
Flags: W
LayerCount: 2
Fore
SplineSet
-2 500 m 1,0,-1
 98 500 l 1,1,-1
 98 600 l 1,2,-1
 498 600 l 1,3,-1
 498 500 l 1,4,-1
 598 500 l 1,5,-1
 598 0 l 1,6,-1
 498 0 l 1,7,-1
 498 200 l 1,8,-1
 98 200 l 1,9,-1
 98 0 l 1,10,-1
 -2 0 l 1,11,-1
 -2 500 l 1,0,-1
98 300 m 1,12,-1
 498 300 l 1,13,-1
 498 500 l 1,14,-1
 98 500 l 1,15,-1
 98 300 l 1,12,-1
EndSplineSet
Validated: 5
EndChar

StartChar: B
Encoding: 66 66 32
Width: 698
Flags: W
LayerCount: 2
Fore
SplineSet
-2 600 m 1,0,-1
 498 600 l 1,1,-1
 498 500 l 1,2,-1
 598 500 l 1,3,-1
 598 400 l 1,4,-1
 498 400 l 1,5,-1
 498 300 l 1,6,-1
 598 300 l 1,7,-1
 598 100 l 1,8,-1
 498 100 l 1,9,-1
 498 0 l 1,10,-1
 -2 0 l 1,11,-1
 -2 600 l 1,0,-1
98 100 m 1,12,-1
 498 100 l 1,13,-1
 498 300 l 1,14,-1
 98 300 l 1,15,-1
 98 100 l 1,12,-1
98 400 m 1,16,-1
 498 400 l 1,17,-1
 498 500 l 1,18,-1
 98 500 l 1,19,-1
 98 400 l 1,16,-1
EndSplineSet
Validated: 5
EndChar

StartChar: C
Encoding: 67 67 33
Width: 700
Flags: W
LayerCount: 2
Fore
SplineSet
500 500 m 1,0,-1
 100 500 l 1,1,-1
 100 100 l 1,2,-1
 500 100 l 1,3,-1
 500 200 l 1,4,-1
 600 200 l 1,5,-1
 600 100 l 1,6,-1
 500 100 l 1,7,-1
 500 0 l 1,8,-1
 100 0 l 1,9,-1
 100 100 l 1,10,-1
 0 100 l 1,11,-1
 0 500 l 1,12,-1
 100 500 l 1,13,-1
 100 600 l 1,14,-1
 500 600 l 1,15,-1
 500 500 l 1,16,-1
 600 500 l 1,17,-1
 600 400 l 1,18,-1
 500 400 l 1,19,-1
 500 500 l 1,0,-1
EndSplineSet
Validated: 5
EndChar

StartChar: D
Encoding: 68 68 34
Width: 698
Flags: W
LayerCount: 2
Fore
SplineSet
-2 600 m 1,0,-1
 398 600 l 1,1,-1
 398 500 l 1,2,-1
 498 500 l 1,3,-1
 498 400 l 1,4,-1
 598 400 l 1,5,-1
 598 200 l 1,6,-1
 498 200 l 1,7,-1
 498 100 l 1,8,-1
 398 100 l 1,9,-1
 398 0 l 1,10,-1
 -2 0 l 1,11,-1
 -2 600 l 1,0,-1
398 500 m 1,12,-1
 98 500 l 1,13,-1
 98 100 l 1,14,-1
 398 100 l 1,15,-1
 398 200 l 1,16,-1
 498 200 l 1,17,-1
 498 400 l 1,18,-1
 398 400 l 1,19,-1
 398 500 l 1,12,-1
EndSplineSet
Validated: 5
EndChar

StartChar: E
Encoding: 69 69 35
Width: 700
Flags: W
LayerCount: 2
Fore
SplineSet
0 600 m 1,0,-1
 600 600 l 1,1,-1
 600 500 l 1,2,-1
 100 500 l 1,3,-1
 100 400 l 1,4,-1
 500 400 l 1,5,-1
 500 300 l 1,6,-1
 100 300 l 1,7,-1
 100 100 l 1,8,-1
 600 100 l 1,9,-1
 600 0 l 1,10,-1
 0 0 l 1,11,-1
 0 600 l 1,0,-1
EndSplineSet
Validated: 1
EndChar

StartChar: F
Encoding: 70 70 36
Width: 698
Flags: W
LayerCount: 2
Fore
SplineSet
-2 600 m 1,0,-1
 598 600 l 1,1,-1
 598 500 l 1,2,-1
 98 500 l 1,3,-1
 98 400 l 1,4,-1
 498 400 l 1,5,-1
 498 300 l 1,6,-1
 98 300 l 1,7,-1
 98 0 l 1,8,-1
 -2 0 l 1,9,-1
 -2 600 l 1,0,-1
EndSplineSet
Validated: 1
EndChar

StartChar: G
Encoding: 71 71 37
Width: 698
Flags: W
LayerCount: 2
Fore
SplineSet
-2 500 m 1,0,-1
 98 500 l 1,1,-1
 98 600 l 1,2,-1
 498 600 l 1,3,-1
 498 500 l 1,4,-1
 598 500 l 1,5,-1
 598 400 l 1,6,-1
 498 400 l 1,7,-1
 498 500 l 1,8,-1
 98 500 l 1,9,-1
 98 100 l 1,10,-1
 498 100 l 1,11,-1
 498 200 l 1,12,-1
 298 200 l 1,13,-1
 298 300 l 1,14,-1
 598 300 l 1,15,-1
 598 100 l 1,16,-1
 498 100 l 1,17,-1
 498 0 l 1,18,-1
 98 0 l 1,19,-1
 98 100 l 1,20,-1
 -2 100 l 1,21,-1
 -2 500 l 1,0,-1
EndSplineSet
Validated: 5
EndChar

StartChar: H
Encoding: 72 72 38
Width: 700
Flags: W
LayerCount: 2
Fore
SplineSet
0 600 m 1,0,-1
 100 600 l 1,1,-1
 100 400 l 1,2,-1
 500 400 l 1,3,-1
 500 600 l 1,4,-1
 600 600 l 1,5,-1
 600 0 l 1,6,-1
 500 0 l 1,7,-1
 500 300 l 1,8,-1
 100 300 l 1,9,-1
 100 0 l 1,10,-1
 0 0 l 1,11,-1
 0 600 l 1,0,-1
EndSplineSet
Validated: 1
EndChar

StartChar: I
Encoding: 73 73 39
Width: 600
Flags: W
LayerCount: 2
Fore
SplineSet
0 600 m 1,0,-1
 500 600 l 1,1,-1
 500 500 l 1,2,-1
 300 500 l 1,3,-1
 300 100 l 1,4,-1
 500 100 l 1,5,-1
 500 0 l 1,6,-1
 0 0 l 1,7,-1
 0 100 l 1,8,-1
 200 100 l 1,9,-1
 200 500 l 1,10,-1
 0 500 l 1,11,-1
 0 600 l 1,0,-1
EndSplineSet
Validated: 1
EndChar

StartChar: J
Encoding: 74 74 40
Width: 700
Flags: W
LayerCount: 2
Fore
SplineSet
0 300 m 1,0,-1
 100 300 l 1,1,-1
 100 100 l 1,2,-1
 500 100 l 1,3,-1
 500 600 l 1,4,-1
 600 600 l 1,5,-1
 600 100 l 1,6,-1
 500 100 l 1,7,-1
 500 0 l 1,8,-1
 100 0 l 1,9,-1
 100 100 l 1,10,-1
 0 100 l 1,11,-1
 0 300 l 1,0,-1
EndSplineSet
Validated: 5
EndChar

StartChar: K
Encoding: 75 75 41
Width: 698
Flags: W
LayerCount: 2
Fore
SplineSet
-2 600 m 1,0,-1
 98 600 l 1,1,-1
 98 400 l 1,2,-1
 298 400 l 1,3,-1
 298 500 l 1,4,-1
 398 500 l 1,5,-1
 398 600 l 1,6,-1
 498 600 l 1,7,-1
 498 500 l 1,8,-1
 398 500 l 1,9,-1
 398 400 l 1,10,-1
 298 400 l 1,11,-1
 298 300 l 1,12,-1
 398 300 l 1,13,-1
 398 200 l 1,14,-1
 498 200 l 1,15,-1
 498 100 l 1,16,-1
 598 100 l 1,17,-1
 598 0 l 1,18,-1
 498 0 l 1,19,-1
 498 100 l 1,20,-1
 398 100 l 1,21,-1
 398 200 l 1,22,-1
 298 200 l 1,23,-1
 298 300 l 1,24,-1
 98 300 l 1,25,-1
 98 0 l 1,26,-1
 -2 0 l 1,27,-1
 -2 600 l 1,0,-1
EndSplineSet
Validated: 5
EndChar

StartChar: L
Encoding: 76 76 42
Width: 698
Flags: W
LayerCount: 2
Fore
SplineSet
-2 600 m 1,0,-1
 98 600 l 1,1,-1
 98 100 l 1,2,-1
 598 100 l 1,3,-1
 598 0 l 1,4,-1
 -2 0 l 1,5,-1
 -2 600 l 1,0,-1
EndSplineSet
Validated: 1
EndChar

StartChar: M
Encoding: 77 77 43
Width: 700
Flags: W
LayerCount: 2
Fore
SplineSet
0 600 m 1,0,-1
 100 600 l 1,1,-1
 100 500 l 1,2,-1
 200 500 l 1,3,-1
 200 400 l 1,4,-1
 400 400 l 1,5,-1
 400 500 l 1,6,-1
 500 500 l 1,7,-1
 500 600 l 1,8,-1
 600 600 l 1,9,-1
 600 0 l 1,10,-1
 500 0 l 1,11,-1
 500 400 l 1,12,-1
 400 400 l 1,13,-1
 400 300 l 1,14,-1
 200 300 l 1,15,-1
 200 400 l 1,16,-1
 100 400 l 1,17,-1
 100 0 l 1,18,-1
 0 0 l 1,19,-1
 0 600 l 1,0,-1
EndSplineSet
Validated: 5
EndChar

StartChar: N
Encoding: 78 78 44
Width: 698
Flags: W
LayerCount: 2
Fore
SplineSet
-2 600 m 1,0,-1
 98 600 l 1,1,-1
 98 500 l 1,2,-1
 198 500 l 1,3,-1
 198 400 l 1,4,-1
 298 400 l 1,5,-1
 298 300 l 1,6,-1
 398 300 l 1,7,-1
 398 200 l 1,8,-1
 498 200 l 1,9,-1
 498 600 l 1,10,-1
 598 600 l 1,11,-1
 598 0 l 1,12,-1
 498 0 l 1,13,-1
 498 100 l 1,14,-1
 398 100 l 1,15,-1
 398 200 l 1,16,-1
 298 200 l 1,17,-1
 298 300 l 1,18,-1
 198 300 l 1,19,-1
 198 400 l 1,20,-1
 98 400 l 1,21,-1
 98 0 l 1,22,-1
 -2 0 l 1,23,-1
 -2 600 l 1,0,-1
EndSplineSet
Validated: 5
EndChar

StartChar: O
Encoding: 79 79 45
Width: 698
Flags: W
LayerCount: 2
Fore
SplineSet
-2 500 m 1,0,-1
 98 500 l 1,1,-1
 98 600 l 1,2,-1
 498 600 l 1,3,-1
 498 500 l 1,4,-1
 598 500 l 1,5,-1
 598 100 l 1,6,-1
 498 100 l 1,7,-1
 498 0 l 1,8,-1
 98 0 l 1,9,-1
 98 100 l 1,10,-1
 -2 100 l 1,11,-1
 -2 500 l 1,0,-1
98 100 m 1,12,-1
 498 100 l 1,13,-1
 498 500 l 1,14,-1
 98 500 l 1,15,-1
 98 100 l 1,12,-1
EndSplineSet
Validated: 5
EndChar

StartChar: P
Encoding: 80 80 46
Width: 700
Flags: W
LayerCount: 2
Fore
SplineSet
0 600 m 1,0,-1
 500 600 l 1,1,-1
 500 500 l 1,2,-1
 600 500 l 1,3,-1
 600 300 l 1,4,-1
 500 300 l 1,5,-1
 500 200 l 1,6,-1
 100 200 l 1,7,-1
 100 0 l 1,8,-1
 0 0 l 1,9,-1
 0 600 l 1,0,-1
100 300 m 1,10,-1
 500 300 l 1,11,-1
 500 500 l 1,12,-1
 100 500 l 1,13,-1
 100 300 l 1,10,-1
EndSplineSet
Validated: 5
EndChar

StartChar: Q
Encoding: 81 81 47
Width: 700
Flags: W
LayerCount: 2
Fore
SplineSet
0 500 m 1,0,-1
 100 500 l 1,1,-1
 100 600 l 1,2,-1
 500 600 l 1,3,-1
 500 500 l 1,4,-1
 600 500 l 1,5,-1
 600 100 l 1,6,-1
 500 100 l 1,7,-1
 500 0 l 1,8,-1
 100 0 l 1,9,-1
 100 100 l 1,10,-1
 0 100 l 1,11,-1
 0 500 l 1,0,-1
200 300 m 1,12,-1
 300 300 l 1,13,-1
 300 200 l 1,14,-1
 400 200 l 1,15,-1
 400 100 l 1,16,-1
 500 100 l 1,17,-1
 500 500 l 1,18,-1
 100 500 l 1,19,-1
 100 100 l 1,20,-1
 300 100 l 1,21,-1
 300 200 l 1,22,-1
 200 200 l 1,23,-1
 200 300 l 1,12,-1
EndSplineSet
Validated: 5
EndChar

StartChar: R
Encoding: 82 82 48
Width: 700
Flags: W
LayerCount: 2
Fore
SplineSet
0 600 m 1,0,-1
 500 600 l 1,1,-1
 500 500 l 1,2,-1
 600 500 l 1,3,-1
 600 300 l 1,4,-1
 500 300 l 1,5,-1
 500 100 l 1,6,-1
 600 100 l 1,7,-1
 600 0 l 1,8,-1
 500 0 l 1,9,-1
 500 100 l 1,10,-1
 400 100 l 1,11,-1
 400 200 l 1,12,-1
 100 200 l 1,13,-1
 100 0 l 1,14,-1
 0 0 l 1,15,-1
 0 600 l 1,0,-1
100 500 m 1,16,-1
 100 300 l 1,17,-1
 500 300 l 1,18,-1
 500 498 l 1,19,-1
 100 500 l 1,16,-1
EndSplineSet
Validated: 5
EndChar

StartChar: S
Encoding: 83 83 49
Width: 700
Flags: W
LayerCount: 2
Fore
SplineSet
0 500 m 1,0,-1
 100 500 l 1,1,-1
 100 600 l 1,2,-1
 500 600 l 1,3,-1
 500 500 l 1,4,-1
 100 500 l 1,5,-1
 100 400 l 1,6,-1
 500 400 l 1,7,-1
 500 300 l 1,8,-1
 600 300 l 1,9,-1
 600 100 l 1,10,-1
 500 100 l 1,11,-1
 500 0 l 1,12,-1
 100 0 l 1,13,-1
 100 100 l 1,14,-1
 0 100 l 1,15,-1
 0 200 l 1,16,-1
 100 200 l 1,17,-1
 100 100 l 1,18,-1
 500 100 l 1,19,-1
 500 300 l 1,20,-1
 100 300 l 1,21,-1
 100 400 l 1,22,-1
 0 400 l 1,23,-1
 0 500 l 1,0,-1
EndSplineSet
Validated: 5
EndChar

StartChar: T
Encoding: 84 84 50
Width: 800
Flags: W
LayerCount: 2
Fore
SplineSet
0 600 m 1,0,-1
 700 600 l 1,1,-1
 700 500 l 1,2,-1
 400 500 l 1,3,-1
 400 0 l 1,4,-1
 300 0 l 1,5,-1
 300 500 l 1,6,-1
 0 500 l 1,7,-1
 0 600 l 1,0,-1
EndSplineSet
Validated: 1
EndChar

StartChar: U
Encoding: 85 85 51
Width: 700
Flags: W
LayerCount: 2
Fore
SplineSet
0 600 m 1,0,-1
 100 600 l 1,1,-1
 100 100 l 1,2,-1
 500 100 l 1,3,-1
 500 600 l 1,4,-1
 600 600 l 1,5,-1
 600 100 l 1,6,-1
 500 100 l 1,7,-1
 500 0 l 1,8,-1
 100 0 l 1,9,-1
 100 100 l 1,10,-1
 0 100 l 1,11,-1
 0 600 l 1,0,-1
EndSplineSet
Validated: 5
EndChar

StartChar: V
Encoding: 86 86 52
Width: 700
Flags: W
LayerCount: 2
Fore
SplineSet
0 600 m 1,0,-1
 100 600 l 1,1,-1
 100 200 l 1,2,-1
 200 200 l 1,3,-1
 200 100 l 1,4,-1
 400 100 l 1,5,-1
 400 200 l 1,6,-1
 500 200 l 1,7,-1
 500 600 l 1,8,-1
 600 600 l 1,9,-1
 600 200 l 1,10,-1
 500 200 l 1,11,-1
 500 100 l 1,12,-1
 400 100 l 1,13,-1
 400 0 l 1,14,-1
 200 0 l 1,15,-1
 200 100 l 1,16,-1
 100 100 l 1,17,-1
 100 200 l 1,18,-1
 0 200 l 1,19,-1
 0 600 l 1,0,-1
EndSplineSet
Validated: 5
EndChar

StartChar: W
Encoding: 87 87 53
Width: 698
Flags: W
LayerCount: 2
Fore
SplineSet
-2 600 m 1,0,-1
 98 600 l 1,1,-1
 98 100 l 1,2,-1
 198 100 l 1,3,-1
 198 200 l 1,4,-1
 398 200 l 1,5,-1
 398 100 l 1,6,-1
 498 100 l 1,7,-1
 498 600 l 1,8,-1
 598 600 l 1,9,-1
 598 100 l 1,10,-1
 498 100 l 1,11,-1
 498 0 l 1,12,-1
 398 0 l 1,13,-1
 398 100 l 1,14,-1
 198 100 l 1,15,-1
 198 0 l 1,16,-1
 98 0 l 1,17,-1
 98 100 l 1,18,-1
 -2 100 l 1,19,-1
 -2 600 l 1,0,-1
EndSplineSet
Validated: 5
EndChar

StartChar: X
Encoding: 88 88 54
Width: 700
Flags: W
LayerCount: 2
Fore
SplineSet
0 600 m 1,0,-1
 100 600 l 1,1,-1
 100 500 l 1,2,-1
 200 500 l 1,3,-1
 200 400 l 1,4,-1
 400 400 l 1,5,-1
 400 500 l 1,6,-1
 500 500 l 1,7,-1
 500 600 l 1,8,-1
 600 600 l 1,9,-1
 600 500 l 1,10,-1
 500 500 l 1,11,-1
 500 400 l 1,12,-1
 400 400 l 1,13,-1
 400 200 l 1,14,-1
 500 200 l 1,15,-1
 500 100 l 1,16,-1
 600 100 l 1,17,-1
 600 0 l 1,18,-1
 500 0 l 1,19,-1
 500 100 l 1,20,-1
 400 100 l 1,21,-1
 400 200 l 1,22,-1
 200 200 l 1,23,-1
 200 100 l 1,24,-1
 100 100 l 1,25,-1
 100 0 l 1,26,-1
 0 0 l 1,27,-1
 0 100 l 1,28,-1
 100 100 l 1,29,-1
 100 200 l 1,30,-1
 200 200 l 1,31,-1
 200 400 l 1,32,-1
 100 400 l 1,33,-1
 100 500 l 1,34,-1
 0 500 l 1,35,-1
 0 600 l 1,0,-1
EndSplineSet
Validated: 5
EndChar

StartChar: Y
Encoding: 89 89 55
Width: 800
Flags: W
LayerCount: 2
Fore
SplineSet
0 600 m 1,0,-1
 100 600 l 1,1,-1
 100 500 l 1,2,-1
 200 500 l 1,3,-1
 200 400 l 1,4,-1
 300 400 l 1,5,-1
 300 300 l 1,6,-1
 400 300 l 1,7,-1
 400 400 l 1,8,-1
 500 400 l 1,9,-1
 500 500 l 1,10,-1
 600 500 l 1,11,-1
 600 600 l 1,12,-1
 700 600 l 1,13,-1
 700 500 l 1,14,-1
 600 500 l 1,15,-1
 600 400 l 1,16,-1
 500 400 l 1,17,-1
 500 300 l 1,18,-1
 400 300 l 1,19,-1
 400 0 l 1,20,-1
 300 0 l 1,21,-1
 300 300 l 1,22,-1
 200 300 l 1,23,-1
 200 400 l 1,24,-1
 100 400 l 1,25,-1
 100 500 l 1,26,-1
 0 500 l 1,27,-1
 0 600 l 1,0,-1
EndSplineSet
Validated: 5
EndChar

StartChar: Z
Encoding: 90 90 56
Width: 700
Flags: W
LayerCount: 2
Fore
SplineSet
0 600 m 1,0,-1
 600 600 l 1,1,-1
 600 500 l 1,2,-1
 500 500 l 1,3,-1
 500 400 l 1,4,-1
 400 400 l 1,5,-1
 400 300 l 1,6,-1
 300 300 l 1,7,-1
 300 200 l 1,8,-1
 200 200 l 1,9,-1
 200 100 l 1,10,-1
 600 100 l 1,11,-1
 600 0 l 1,12,-1
 0 0 l 1,13,-1
 0 100 l 1,14,-1
 100 100 l 1,15,-1
 100 200 l 1,16,-1
 200 200 l 1,17,-1
 200 300 l 1,18,-1
 300 300 l 1,19,-1
 300 400 l 1,20,-1
 400 400 l 1,21,-1
 400 500 l 1,22,-1
 0 500 l 1,23,-1
 0 600 l 1,0,-1
EndSplineSet
Validated: 5
EndChar

StartChar: bracketleft
Encoding: 91 91 57
Width: 506
Flags: W
LayerCount: 2
Fore
SplineSet
106 600 m 1,0,-1
 406 600 l 1,1,-1
 406 500 l 1,2,-1
 206 500 l 1,3,-1
 206 100 l 1,4,-1
 406 100 l 1,5,-1
 406 0 l 1,6,-1
 106 0 l 1,7,-1
 106 600 l 1,0,-1
EndSplineSet
Validated: 1
EndChar

StartChar: backslash
Encoding: 92 92 58
Width: 708
Flags: W
LayerCount: 2
Fore
SplineSet
100 500 m 1,0,-1
 200 500 l 1,1,-1
 200 400 l 1,2,-1
 300 400 l 1,3,-1
 300 300 l 1,4,-1
 400 300 l 1,5,-1
 400 200 l 1,6,-1
 500 200 l 1,7,-1
 500 100 l 1,8,-1
 600 100 l 1,9,-1
 600 0 l 1,10,-1
 500 0 l 1,11,-1
 500 100 l 1,12,-1
 400 100 l 1,13,-1
 400 200 l 1,14,-1
 300 200 l 1,15,-1
 300 300 l 1,16,-1
 200 300 l 1,17,-1
 200 400 l 1,18,-1
 100 400 l 1,19,-1
 100 500 l 1,0,-1
EndSplineSet
Validated: 5
EndChar

StartChar: bracketright
Encoding: 93 93 59
Width: 506
Flags: W
LayerCount: 2
Fore
SplineSet
100 600 m 1,0,-1
 400 600 l 1,1,-1
 400 0 l 1,2,-1
 100 0 l 1,3,-1
 100 100 l 1,4,-1
 300 100 l 1,5,-1
 300 500 l 1,6,-1
 100 500 l 1,7,-1
 100 600 l 1,0,-1
EndSplineSet
Validated: 1
EndChar

StartChar: asciicircum
Encoding: 94 94 60
Width: 800
Flags: W
LayerCount: 2
Fore
SplineSet
100 400 m 1,0,-1
 200 400 l 1,1,-1
 200 500 l 1,2,-1
 300 500 l 1,3,-1
 300 600 l 1,4,-1
 400 600 l 1,5,-1
 400 500 l 1,6,-1
 500 500 l 1,7,-1
 500 400 l 1,8,-1
 600 400 l 1,9,-1
 600 300 l 1,10,-1
 500 300 l 1,11,-1
 500 400 l 1,12,-1
 400 400 l 1,13,-1
 400 0 l 1,14,-1
 300 0 l 1,15,-1
 300 400 l 1,16,-1
 200 400 l 1,17,-1
 200 300 l 1,18,-1
 100 300 l 1,19,-1
 100 400 l 1,0,-1
EndSplineSet
Validated: 5
EndChar

StartChar: underscore
Encoding: 95 95 61
Width: 800
Flags: W
LayerCount: 2
Fore
SplineSet
0 0 m 1,0,-1
 800 0 l 1,1,-1
 800 -100 l 1,2,-1
 0 -100 l 1,3,-1
 0 0 l 1,0,-1
EndSplineSet
Validated: 1
EndChar

StartChar: grave
Encoding: 96 96 62
Width: 410
Flags: W
LayerCount: 2
Fore
SplineSet
102 600 m 1,0,-1
 202 600 l 1,1,-1
 202 500 l 1,2,-1
 302 500 l 1,3,-1
 302 400 l 1,4,-1
 202 400 l 1,5,-1
 202 500 l 1,6,-1
 102 500 l 1,7,-1
 102 600 l 1,0,-1
EndSplineSet
Validated: 5
EndChar

StartChar: a
Encoding: 97 97 63
Width: 611
Flags: W
LayerCount: 2
Fore
SplineSet
100 500 m 1,0,-1
 400 500 l 1,1,-1
 400 400 l 1,2,-1
 500 400 l 1,3,-1
 500 0 l 1,4,-1
 100 0 l 1,5,-1
 100 100 l 1,6,-1
 0 100 l 1,7,-1
 0 200 l 1,8,-1
 100 200 l 1,9,-1
 100 300 l 1,10,-1
 400 300 l 1,11,-1
 400 400 l 1,12,-1
 100 400 l 1,13,-1
 100 500 l 1,0,-1
100 100 m 1,14,-1
 400 100 l 1,15,-1
 400 200 l 1,16,-1
 100 200 l 1,17,-1
 100 100 l 1,14,-1
EndSplineSet
Validated: 5
EndChar

StartChar: b
Encoding: 98 98 64
Width: 600
Flags: W
LayerCount: 2
Fore
SplineSet
0 600 m 1,0,-1
 100 600 l 1,1,-1
 100 400 l 1,2,-1
 400 400 l 1,3,-1
 400 300 l 1,4,-1
 500 300 l 1,5,-1
 500 100 l 1,6,-1
 400 100 l 1,7,-1
 400 0 l 1,8,-1
 0 0 l 1,9,-1
 0 600 l 1,0,-1
100 300 m 1,10,-1
 100 100 l 1,11,-1
 400 100 l 1,12,-1
 400 298 l 1,13,-1
 100 300 l 1,10,-1
EndSplineSet
Validated: 5
EndChar

StartChar: c
Encoding: 99 99 65
Width: 496
Flags: W
LayerCount: 2
Fore
SplineSet
-2 400 m 1,0,-1
 98 400 l 1,1,-1
 98 500 l 1,2,-1
 398 500 l 1,3,-1
 398 400 l 1,4,-1
 98 400 l 1,5,-1
 98 100 l 1,6,-1
 398 100 l 1,7,-1
 398 0 l 1,8,-1
 98 0 l 1,9,-1
 98 100 l 1,10,-1
 -2 100 l 1,11,-1
 -2 400 l 1,0,-1
EndSplineSet
Validated: 5
EndChar

StartChar: d
Encoding: 100 100 66
Width: 602
Flags: W
LayerCount: 2
Fore
SplineSet
0 300 m 1,0,-1
 100 300 l 1,1,-1
 100 400 l 1,2,-1
 400 400 l 1,3,-1
 400 600 l 1,4,-1
 500 600 l 1,5,-1
 500 0 l 1,6,-1
 100 0 l 1,7,-1
 100 100 l 1,8,-1
 0 100 l 1,9,-1
 0 300 l 1,0,-1
100 100 m 1,10,-1
 400 100 l 1,11,-1
 400 300 l 1,12,-1
 100 300 l 1,13,-1
 100 100 l 1,10,-1
EndSplineSet
Validated: 5
EndChar

StartChar: e
Encoding: 101 101 67
Width: 596
Flags: W
LayerCount: 2
Fore
SplineSet
0 400 m 1,0,-1
 100 400 l 1,1,-1
 100 500 l 1,2,-1
 400 500 l 1,3,-1
 400 400 l 1,4,-1
 500 400 l 1,5,-1
 500 300 l 1,6,-1
 400 300 l 1,7,-1
 400 200 l 1,8,-1
 100 200 l 1,9,-1
 100 100 l 1,10,-1
 500 100 l 1,11,-1
 500 0 l 1,12,-1
 100 0 l 1,13,-1
 100 100 l 1,14,-1
 0 100 l 1,15,-1
 0 400 l 1,0,-1
100 300 m 1,16,-1
 400 300 l 1,17,-1
 400 400 l 1,18,-1
 100 400 l 1,19,-1
 100 300 l 1,16,-1
EndSplineSet
Validated: 5
EndChar

StartChar: f
Encoding: 102 102 68
Width: 396
Flags: W
LayerCount: 2
Fore
SplineSet
0 500 m 1,0,-1
 100 500 l 1,1,-1
 100 600 l 1,2,-1
 300 600 l 1,3,-1
 300 500 l 1,4,-1
 100 500 l 1,5,-1
 100 400 l 1,6,-1
 200 400 l 1,7,-1
 200 300 l 1,8,-1
 100 300 l 1,9,-1
 100 0 l 1,10,-1
 0 0 l 1,11,-1
 0 500 l 1,0,-1
EndSplineSet
Validated: 5
EndChar

StartChar: g
Encoding: 103 103 69
Width: 604
Flags: W
LayerCount: 2
Fore
SplineSet
0 400 m 1,0,-1
 100 400 l 1,1,-1
 100 500 l 1,2,-1
 500 500 l 1,3,-1
 500 0 l 1,4,-1
 400 0 l 1,5,-1
 400 -100 l 1,6,-1
 100 -100 l 1,7,-1
 100 0 l 1,8,-1
 400 0 l 1,9,-1
 400 100 l 1,10,-1
 100 100 l 1,11,-1
 100 200 l 1,12,-1
 0 200 l 1,13,-1
 0 400 l 1,0,-1
100 200 m 1,14,-1
 400 200 l 1,15,-1
 400 400 l 1,16,-1
 100 400 l 1,17,-1
 100 200 l 1,14,-1
EndSplineSet
Validated: 5
EndChar

StartChar: h
Encoding: 104 104 70
Width: 598
Flags: W
LayerCount: 2
Fore
SplineSet
0 600 m 1,0,-1
 100 600 l 1,1,-1
 100 400 l 1,2,-1
 400 400 l 1,3,-1
 400 300 l 1,4,-1
 500 300 l 1,5,-1
 500 0 l 1,6,-1
 400 0 l 1,7,-1
 400 300 l 1,8,-1
 100 300 l 1,9,-1
 100 0 l 1,10,-1
 0 0 l 1,11,-1
 0 600 l 1,0,-1
EndSplineSet
Validated: 5
EndChar

StartChar: i
Encoding: 105 105 71
Width: 370
Flags: W
LayerCount: 2
Fore
SplineSet
0 400 m 1,0,-1
 200 400 l 1,1,-1
 200 100 l 1,2,-1
 300 100 l 1,3,-1
 300 0 l 1,4,-1
 0 0 l 1,5,-1
 0 100 l 1,6,-1
 100 100 l 1,7,-1
 100 300 l 1,8,-1
 0 300 l 1,9,-1
 0 400 l 1,0,-1
100 600 m 1,10,-1
 200 600 l 1,11,-1
 200 500 l 1,12,-1
 100 500 l 1,13,-1
 100 600 l 1,10,-1
EndSplineSet
Validated: 1
EndChar

StartChar: j
Encoding: 106 106 72
Width: 506
Flags: W
LayerCount: 2
Fore
SplineSet
0 100 m 1,0,-1
 100 100 l 1,1,-1
 100 0 l 1,2,-1
 300 0 l 1,3,-1
 300 400 l 1,4,-1
 400 400 l 1,5,-1
 400 0 l 1,6,-1
 300 0 l 1,7,-1
 300 -100 l 1,8,-1
 100 -100 l 1,9,-1
 100 0 l 1,10,-1
 0 0 l 1,11,-1
 0 100 l 1,0,-1
300 600 m 1,12,-1
 400 600 l 1,13,-1
 400 500 l 1,14,-1
 300 500 l 1,15,-1
 300 600 l 1,12,-1
EndSplineSet
Validated: 5
EndChar

StartChar: k
Encoding: 107 107 73
Width: 490
Flags: W
LayerCount: 2
Fore
SplineSet
-2 600 m 1,0,-1
 98 600 l 1,1,-1
 98 400 l 1,2,-1
 198 400 l 1,3,-1
 198 500 l 1,4,-1
 298 500 l 1,5,-1
 298 400 l 1,6,-1
 198 400 l 1,7,-1
 198 200 l 1,8,-1
 298 200 l 1,9,-1
 298 100 l 1,10,-1
 398 100 l 1,11,-1
 398 0 l 1,12,-1
 298 0 l 1,13,-1
 298 100 l 1,14,-1
 198 100 l 1,15,-1
 198 200 l 1,16,-1
 98 200 l 1,17,-1
 98 0 l 1,18,-1
 -2 0 l 1,19,-1
 -2 600 l 1,0,-1
EndSplineSet
Validated: 5
EndChar

StartChar: l
Encoding: 108 108 74
Width: 392
Flags: W
LayerCount: 2
Fore
SplineSet
0 600 m 1,0,-1
 100 600 l 1,1,-1
 100 100 l 1,2,-1
 300 100 l 1,3,-1
 300 0 l 1,4,-1
 100 0 l 1,5,-1
 100 100 l 1,6,-1
 0 100 l 1,7,-1
 0 600 l 1,0,-1
EndSplineSet
Validated: 5
EndChar

StartChar: m
Encoding: 109 109 75
Width: 602
Flags: W
LayerCount: 2
Fore
SplineSet
0 500 m 1,0,-1
 200 500 l 1,1,-1
 200 400 l 1,2,-1
 300 400 l 1,3,-1
 300 500 l 1,4,-1
 400 500 l 1,5,-1
 400 400 l 1,6,-1
 500 400 l 1,7,-1
 500 0 l 1,8,-1
 400 0 l 1,9,-1
 400 400 l 1,10,-1
 300 400 l 1,11,-1
 300 0 l 1,12,-1
 200 0 l 1,13,-1
 200 400 l 1,14,-1
 100 400 l 1,15,-1
 100 0 l 1,16,-1
 0 0 l 1,17,-1
 0 500 l 1,0,-1
EndSplineSet
Validated: 5
EndChar

StartChar: n
Encoding: 110 110 76
Width: 588
Flags: W
LayerCount: 2
Fore
SplineSet
-2 500 m 1,0,-1
 398 500 l 1,1,-1
 398 400 l 1,2,-1
 498 400 l 1,3,-1
 498 0 l 1,4,-1
 398 0 l 1,5,-1
 398 400 l 1,6,-1
 98 400 l 1,7,-1
 98 0 l 1,8,-1
 -2 0 l 1,9,-1
 -2 500 l 1,0,-1
EndSplineSet
Validated: 5
EndChar

StartChar: o
Encoding: 111 111 77
Width: 578
Flags: W
LayerCount: 2
Fore
SplineSet
0 400 m 1,0,-1
 100 400 l 1,1,-1
 100 500 l 1,2,-1
 400 500 l 1,3,-1
 400 400 l 1,4,-1
 500 400 l 1,5,-1
 500 100 l 1,6,-1
 400 100 l 1,7,-1
 400 0 l 1,8,-1
 100 0 l 1,9,-1
 100 100 l 1,10,-1
 0 100 l 1,11,-1
 0 400 l 1,0,-1
100 100 m 1,12,-1
 400 100 l 1,13,-1
 400 400 l 1,14,-1
 100 400 l 1,15,-1
 100 100 l 1,12,-1
EndSplineSet
Validated: 5
EndChar

StartChar: p
Encoding: 112 112 78
Width: 588
Flags: W
LayerCount: 2
Fore
SplineSet
0 500 m 1,0,-1
 400 500 l 1,1,-1
 400 400 l 1,2,-1
 500 400 l 1,3,-1
 500 200 l 1,4,-1
 400 200 l 1,5,-1
 400 100 l 1,6,-1
 100 100 l 1,7,-1
 100 -100 l 1,8,-1
 0 -100 l 1,9,-1
 0 500 l 1,0,-1
400 400 m 1,10,-1
 100 400 l 1,11,-1
 100 200 l 1,12,-1
 400 200 l 1,13,-1
 400 400 l 1,10,-1
EndSplineSet
Validated: 5
EndChar

StartChar: q
Encoding: 113 113 79
Width: 600
Flags: W
LayerCount: 2
Fore
SplineSet
-2 400 m 1,0,-1
 98 400 l 1,1,-1
 98 500 l 1,2,-1
 498 500 l 1,3,-1
 498 0 l 1,4,-1
 497 -100 l 1,5,-1
 497 -100 l 1,6,-1
 398 -100 l 1,7,-1
 398 100 l 1,8,-1
 98 100 l 1,9,-1
 98 200 l 1,10,-1
 -2 200 l 1,11,-1
 -2 400 l 1,0,-1
98 200 m 1,12,-1
 398 200 l 1,13,-1
 398 400 l 1,14,-1
 98 400 l 1,15,-1
 98 200 l 1,12,-1
EndSplineSet
Validated: 5
EndChar

StartChar: r
Encoding: 114 114 80
Width: 488
Flags: W
LayerCount: 2
Fore
SplineSet
0 400 m 1,0,-1
 100 400 l 1,1,-1
 100 500 l 1,2,-1
 400 500 l 1,3,-1
 400 400 l 1,4,-1
 100 400 l 1,5,-1
 100 0 l 1,6,-1
 0 0 l 1,7,-1
 0 400 l 1,0,-1
EndSplineSet
Validated: 5
EndChar

StartChar: s
Encoding: 115 115 81
Width: 596
Flags: W
LayerCount: 2
Fore
SplineSet
-2 400 m 1,0,-1
 98 400 l 1,1,-1
 98 500 l 1,2,-1
 398 500 l 1,3,-1
 398 400 l 1,4,-1
 98 400 l 1,5,-1
 98 300 l 1,6,-1
 398 300 l 1,7,-1
 398 200 l 1,8,-1
 498 200 l 1,9,-1
 498 100 l 1,10,-1
 398 100 l 1,11,-1
 398 0 l 1,12,-1
 -2 0 l 1,13,-1
 -2 100 l 1,14,-1
 398 100 l 1,15,-1
 398 200 l 1,16,-1
 98 200 l 1,17,-1
 98 300 l 1,18,-1
 -2 300 l 1,19,-1
 -2 400 l 1,0,-1
EndSplineSet
Validated: 5
EndChar

StartChar: t
Encoding: 116 116 82
Width: 502
Flags: W
LayerCount: 2
Fore
SplineSet
-2 500 m 1,0,-1
 98 500 l 1,1,-1
 98 600 l 1,2,-1
 198 600 l 1,3,-1
 198 500 l 1,4,-1
 298 500 l 1,5,-1
 298 400 l 1,6,-1
 198 400 l 1,7,-1
 198 100 l 1,8,-1
 398 100 l 1,9,-1
 398 0 l 1,10,-1
 198 0 l 1,11,-1
 198 100 l 1,12,-1
 98 100 l 1,13,-1
 98 400 l 1,14,-1
 -2 400 l 1,15,-1
 -2 500 l 1,0,-1
EndSplineSet
Validated: 5
EndChar

StartChar: u
Encoding: 117 117 83
Width: 590
Flags: W
LayerCount: 2
Fore
SplineSet
0 500 m 1,0,-1
 100 500 l 1,1,-1
 100 100 l 1,2,-1
 400 100 l 1,3,-1
 400 500 l 1,4,-1
 500 500 l 1,5,-1
 500 100 l 1,6,-1
 400 100 l 1,7,-1
 400 0 l 1,8,-1
 100 0 l 1,9,-1
 100 100 l 1,10,-1
 0 100 l 1,11,-1
 0 500 l 1,0,-1
EndSplineSet
Validated: 5
EndChar

StartChar: v
Encoding: 118 118 84
Width: 596
Flags: W
LayerCount: 2
Fore
SplineSet
-2 500 m 1,0,-1
 98 500 l 1,1,-1
 98 300 l 1,2,-1
 198 300 l 1,3,-1
 198 100 l 1,4,-1
 298 100 l 1,5,-1
 298 300 l 1,6,-1
 398 300 l 1,7,-1
 398 500 l 1,8,-1
 498 500 l 1,9,-1
 498 300 l 1,10,-1
 398 300 l 1,11,-1
 398 100 l 1,12,-1
 298 100 l 1,13,-1
 298 0 l 1,14,-1
 198 0 l 1,15,-1
 198 100 l 1,16,-1
 98 100 l 1,17,-1
 98 300 l 1,18,-1
 -2 300 l 1,19,-1
 -2 500 l 1,0,-1
EndSplineSet
Validated: 5
EndChar

StartChar: w
Encoding: 119 119 85
Width: 598
Flags: W
LayerCount: 2
Fore
SplineSet
-2 500 m 1,0,-1
 98 500 l 1,1,-1
 98 100 l 1,2,-1
 198 100 l 1,3,-1
 198 400 l 1,4,-1
 298 400 l 1,5,-1
 298 100 l 1,6,-1
 398 100 l 1,7,-1
 398 500 l 1,8,-1
 498 500 l 1,9,-1
 498 100 l 1,10,-1
 398 100 l 1,11,-1
 398 0 l 1,12,-1
 298 0 l 1,13,-1
 298 100 l 1,14,-1
 198 100 l 1,15,-1
 198 0 l 1,16,-1
 98 0 l 1,17,-1
 98 100 l 1,18,-1
 -2 100 l 1,19,-1
 -2 500 l 1,0,-1
EndSplineSet
Validated: 5
EndChar

StartChar: x
Encoding: 120 120 86
Width: 602
Flags: W
LayerCount: 2
Fore
SplineSet
0 500 m 1,0,-1
 100 500 l 1,1,-1
 100 400 l 1,2,-1
 200 400 l 1,3,-1
 200 300 l 1,4,-1
 300 300 l 1,5,-1
 300 400 l 1,6,-1
 400 400 l 1,7,-1
 400 500 l 1,8,-1
 500 500 l 1,9,-1
 500 400 l 1,10,-1
 400 400 l 1,11,-1
 400 300 l 1,12,-1
 300 300 l 1,13,-1
 300 200 l 1,14,-1
 400 200 l 1,15,-1
 400 100 l 1,16,-1
 500 100 l 1,17,-1
 500 0 l 1,18,-1
 400 0 l 1,19,-1
 400 100 l 1,20,-1
 300 100 l 1,21,-1
 300 200 l 1,22,-1
 200 200 l 1,23,-1
 200 100 l 1,24,-1
 100 100 l 1,25,-1
 100 0 l 1,26,-1
 0 0 l 1,27,-1
 0 100 l 1,28,-1
 100 100 l 1,29,-1
 100 200 l 1,30,-1
 200 200 l 1,31,-1
 200 300 l 1,32,-1
 100 300 l 1,33,-1
 100 400 l 1,34,-1
 0 400 l 1,35,-1
 0 500 l 1,0,-1
EndSplineSet
Validated: 5
EndChar

StartChar: y
Encoding: 121 121 87
Width: 594
Flags: W
LayerCount: 2
Fore
SplineSet
0 500 m 1,0,-1
 100 500 l 1,1,-1
 100 200 l 1,2,-1
 400 200 l 1,3,-1
 400 500 l 1,4,-1
 500 500 l 1,5,-1
 500 0 l 1,6,-1
 400 0 l 1,7,-1
 400 -100 l 1,8,-1
 100 -100 l 1,9,-1
 100 0 l 1,10,-1
 400 0 l 1,11,-1
 400 100 l 1,12,-1
 100 100 l 1,13,-1
 100 200 l 1,14,-1
 0 200 l 1,15,-1
 0 500 l 1,0,-1
EndSplineSet
Validated: 5
EndChar

StartChar: z
Encoding: 122 122 88
Width: 598
Flags: W
LayerCount: 2
Fore
SplineSet
0 500 m 1,0,-1
 500 500 l 1,1,-1
 500 400 l 1,2,-1
 400 400 l 1,3,-1
 400 300 l 1,4,-1
 300 300 l 1,5,-1
 300 200 l 1,6,-1
 200 200 l 1,7,-1
 200 100 l 1,8,-1
 500 100 l 1,9,-1
 500 0 l 1,10,-1
 0 0 l 1,11,-1
 0 100 l 1,12,-1
 100 100 l 1,13,-1
 100 200 l 1,14,-1
 200 200 l 1,15,-1
 200 300 l 1,16,-1
 300 300 l 1,17,-1
 300 400 l 1,18,-1
 0 400 l 1,19,-1
 0 500 l 1,0,-1
EndSplineSet
Validated: 5
EndChar

StartChar: braceleft
Encoding: 123 123 89
Width: 692
Flags: W
LayerCount: 2
Fore
SplineSet
92 400 m 1,0,-1
 292 400 l 1,1,-1
 292 600 l 1,2,-1
 592 600 l 1,3,-1
 592 500 l 1,4,-1
 392 500 l 1,5,-1
 392 400 l 1,6,-1
 292 400 l 1,7,-1
 292 300 l 1,8,-1
 392 300 l 1,9,-1
 392 100 l 1,10,-1
 592 100 l 1,11,-1
 592 0 l 1,12,-1
 292 0 l 1,13,-1
 292 300 l 1,14,-1
 92 300 l 1,15,-1
 92 400 l 1,0,-1
EndSplineSet
Validated: 5
EndChar

StartChar: bar
Encoding: 124 124 90
Width: 296
Flags: W
LayerCount: 2
Fore
SplineSet
96 600 m 1,0,-1
 196 600 l 1,1,-1
 196 0 l 1,2,-1
 96 0 l 1,3,-1
 96 600 l 1,0,-1
EndSplineSet
Validated: 1
EndChar

StartChar: braceright
Encoding: 125 125 91
Width: 708
Flags: W
LayerCount: 2
Fore
SplineSet
100 600 m 1,0,-1
 400 600 l 1,1,-1
 400 400 l 1,2,-1
 600 400 l 1,3,-1
 600 300 l 1,4,-1
 400 300 l 1,5,-1
 400 0 l 1,6,-1
 100 0 l 1,7,-1
 100 100 l 1,8,-1
 300 100 l 1,9,-1
 300 300 l 1,10,-1
 400 300 l 1,11,-1
 400 400 l 1,12,-1
 300 400 l 1,13,-1
 300 500 l 1,14,-1
 100 500 l 1,15,-1
 100 600 l 1,0,-1
EndSplineSet
Validated: 5
EndChar

StartChar: asciitilde
Encoding: 126 126 92
Width: 800
Flags: W
LayerCount: 2
Fore
SplineSet
200 500 m 1,0,-1
 300 500 l 1,1,-1
 300 600 l 1,2,-1
 400 600 l 1,3,-1
 400 500 l 1,4,-1
 500 500 l 1,5,-1
 500 600 l 1,6,-1
 600 600 l 1,7,-1
 600 500 l 1,8,-1
 500 500 l 1,9,-1
 500 400 l 1,10,-1
 400 400 l 1,11,-1
 400 500 l 1,12,-1
 300 500 l 1,13,-1
 300 400 l 1,14,-1
 200 400 l 1,15,-1
 200 500 l 1,0,-1
EndSplineSet
Validated: 5
EndChar

StartChar: Euro
Encoding: 8364 8364 93
Width: 800
Flags: W
LayerCount: 2
Fore
SplineSet
100 400 m 1,0,-1
 200 400 l 1,1,-1
 200 500 l 1,2,-1
 300 500 l 1,3,-1
 300 600 l 1,4,-1
 700 600 l 1,5,-1
 700 500 l 1,6,-1
 300 500 l 1,7,-1
 300 400 l 1,8,-1
 600 400 l 1,9,-1
 600 300 l 1,10,-1
 300 300 l 1,11,-1
 300 200 l 1,12,-1
 600 200 l 1,13,-1
 600 100 l 1,14,-1
 300 100 l 1,15,-1
 300 0 l 1,16,-1
 700 0 l 1,17,-1
 700 -100 l 1,18,-1
 300 -100 l 1,19,-1
 300 0 l 1,20,-1
 200 0 l 1,21,-1
 200 100 l 1,22,-1
 100 100 l 1,23,-1
 100 200 l 1,24,-1
 200 200 l 1,25,-1
 200 300 l 1,26,-1
 100 300 l 1,27,-1
 100 400 l 1,0,-1
EndSplineSet
Validated: 5
EndChar

StartChar: quotesinglbase
Encoding: 8218 8218 94
Width: 800
Flags: W
LayerCount: 2
Fore
SplineSet
300 0 m 1,0,-1
 400 0 l 1,1,-1
 400 200 l 1,2,-1
 500 200 l 1,3,-1
 500 0 l 1,4,-1
 400 0 l 1,5,-1
 400 -100 l 1,6,-1
 300 -100 l 1,7,-1
 300 0 l 1,0,-1
EndSplineSet
Validated: 5
EndChar

StartChar: florin
Encoding: 402 402 95
Width: 800
Flags: W
LayerCount: 2
Fore
SplineSet
100 0 m 1,0,-1
 300 0 l 1,1,-1
 300 500 l 1,2,-1
 400 500 l 1,3,-1
 400 600 l 1,4,-1
 600 600 l 1,5,-1
 600 500 l 1,6,-1
 400 500 l 1,7,-1
 400 400 l 1,8,-1
 500 400 l 1,9,-1
 500 300 l 1,10,-1
 400 300 l 1,11,-1
 400 0 l 1,12,-1
 300 0 l 1,13,-1
 300 -100 l 1,14,-1
 100 -100 l 1,15,-1
 100 0 l 1,0,-1
EndSplineSet
Validated: 5
EndChar

StartChar: quotedblbase
Encoding: 8222 8222 96
Width: 800
Flags: W
LayerCount: 2
Fore
SplineSet
100 0 m 1,0,-1
 200 0 l 1,1,-1
 200 200 l 1,2,-1
 300 200 l 1,3,-1
 300 0 l 1,4,-1
 200 0 l 1,5,-1
 200 -100 l 1,6,-1
 100 -100 l 1,7,-1
 100 0 l 1,0,-1
400 0 m 1,8,-1
 500 0 l 1,9,-1
 500 200 l 1,10,-1
 600 200 l 1,11,-1
 600 0 l 1,12,-1
 500 0 l 1,13,-1
 500 -100 l 1,14,-1
 400 -100 l 1,15,-1
 400 0 l 1,8,-1
EndSplineSet
Validated: 5
EndChar

StartChar: ellipsis
Encoding: 8230 8230 97
Width: 800
Flags: W
LayerCount: 2
Fore
SplineSet
100 100 m 1,0,-1
 200 100 l 1,1,-1
 200 0 l 1,2,-1
 100 0 l 1,3,-1
 100 100 l 1,0,-1
500 100 m 1,4,-1
 600 100 l 1,5,-1
 600 0 l 1,6,-1
 500 0 l 1,7,-1
 500 100 l 1,4,-1
300 100 m 1,8,-1
 400 100 l 1,9,-1
 400 0 l 1,10,-1
 300 0 l 1,11,-1
 300 100 l 1,8,-1
EndSplineSet
Validated: 1
EndChar

StartChar: dagger
Encoding: 8224 8224 98
Width: 800
Flags: W
LayerCount: 2
Fore
SplineSet
100 500 m 1,0,-1
 300 500 l 1,1,-1
 300 600 l 1,2,-1
 400 600 l 1,3,-1
 400 500 l 1,4,-1
 600 500 l 1,5,-1
 600 400 l 1,6,-1
 400 400 l 1,7,-1
 400 0 l 1,8,-1
 300 0 l 1,9,-1
 300 400 l 1,10,-1
 100 400 l 1,11,-1
 100 500 l 1,0,-1
EndSplineSet
Validated: 1
EndChar

StartChar: daggerdbl
Encoding: 8225 8225 99
Width: 800
Flags: W
LayerCount: 2
Fore
SplineSet
100 500 m 1,0,-1
 300 500 l 1,1,-1
 300 600 l 1,2,-1
 400 600 l 1,3,-1
 400 500 l 1,4,-1
 600 500 l 1,5,-1
 600 400 l 1,6,-1
 400 400 l 1,7,-1
 400 200 l 1,8,-1
 600 200 l 1,9,-1
 600 100 l 1,10,-1
 400 100 l 1,11,-1
 400 0 l 1,12,-1
 300 0 l 1,13,-1
 300 100 l 1,14,-1
 100 100 l 1,15,-1
 100 200 l 1,16,-1
 300 200 l 1,17,-1
 300 400 l 1,18,-1
 100 400 l 1,19,-1
 100 500 l 1,0,-1
EndSplineSet
Validated: 1
EndChar

StartChar: circumflex
Encoding: 710 710 100
Width: 800
Flags: W
LayerCount: 2
Fore
SplineSet
100 400 m 1,0,-1
 200 400 l 1,1,-1
 200 500 l 1,2,-1
 300 500 l 1,3,-1
 300 600 l 1,4,-1
 400 600 l 1,5,-1
 400 500 l 1,6,-1
 500 500 l 1,7,-1
 500 400 l 1,8,-1
 600 400 l 1,9,-1
 600 300 l 1,10,-1
 500 300 l 1,11,-1
 500 400 l 1,12,-1
 400 400 l 1,13,-1
 400 500 l 1,14,-1
 300 500 l 1,15,-1
 300 400 l 1,16,-1
 200 400 l 1,17,-1
 200 300 l 1,18,-1
 100 300 l 1,19,-1
 100 400 l 1,0,-1
EndSplineSet
Validated: 5
EndChar

StartChar: perthousand
Encoding: 8240 8240 101
Width: 800
Flags: W
LayerCount: 2
Fore
SplineSet
100 100 m 1,0,-1
 200 100 l 1,1,-1
 200 200 l 1,2,-1
 300 200 l 1,3,-1
 300 300 l 1,4,-1
 400 300 l 1,5,-1
 400 400 l 1,6,-1
 500 400 l 1,7,-1
 500 500 l 1,8,-1
 600 500 l 1,9,-1
 600 600 l 1,10,-1
 700 600 l 1,11,-1
 700 500 l 1,12,-1
 600 500 l 1,13,-1
 600 400 l 1,14,-1
 500 400 l 1,15,-1
 500 300 l 1,16,-1
 400 300 l 1,17,-1
 400 200 l 1,18,-1
 500 200 l 1,19,-1
 500 0 l 1,20,-1
 400 0 l 1,21,-1
 400 200 l 1,22,-1
 300 200 l 1,23,-1
 300 100 l 1,24,-1
 200 100 l 1,25,-1
 200 0 l 1,26,-1
 100 0 l 1,27,-1
 100 100 l 1,0,-1
600 200 m 1,28,-1
 700 200 l 1,29,-1
 700 0 l 1,30,-1
 600 0 l 1,31,-1
 600 200 l 1,28,-1
100 600 m 1,32,-1
 200 600 l 1,33,-1
 200 400 l 1,34,-1
 100 400 l 1,35,-1
 100 600 l 1,32,-1
EndSplineSet
Validated: 5
EndChar

StartChar: Scaron
Encoding: 352 352 102
Width: 800
Flags: W
LayerCount: 2
Fore
SplineSet
100 500 m 1,0,-1
 200 500 l 1,1,-1
 200 600 l 1,2,-1
 600 600 l 1,3,-1
 600 500 l 1,4,-1
 200 500 l 1,5,-1
 200 400 l 1,6,-1
 600 400 l 1,7,-1
 600 300 l 1,8,-1
 700 300 l 1,9,-1
 700 100 l 1,10,-1
 600 100 l 1,11,-1
 600 0 l 1,12,-1
 200 0 l 1,13,-1
 200 100 l 1,14,-1
 100 100 l 1,15,-1
 100 200 l 1,16,-1
 200 200 l 1,17,-1
 200 100 l 1,18,-1
 600 100 l 1,19,-1
 600 300 l 1,20,-1
 200 300 l 1,21,-1
 200 400 l 1,22,-1
 100 400 l 1,23,-1
 100 500 l 1,0,-1
200 900 m 1,24,-1
 300 900 l 1,25,-1
 300 800 l 1,26,-1
 500 800 l 1,27,-1
 500 900 l 1,28,-1
 600 900 l 1,29,-1
 600 800 l 1,30,-1
 500 800 l 1,31,-1
 500 700 l 1,32,-1
 300 700 l 1,33,-1
 300 800 l 1,34,-1
 200 800 l 1,35,-1
 200 900 l 1,24,-1
EndSplineSet
Validated: 5
EndChar

StartChar: guilsinglleft
Encoding: 8249 8249 103
Width: 800
Flags: W
LayerCount: 2
Fore
SplineSet
300 400 m 1,0,-1
 400 400 l 1,1,-1
 400 500 l 1,2,-1
 500 500 l 1,3,-1
 500 600 l 1,4,-1
 600 600 l 1,5,-1
 600 500 l 1,6,-1
 500 500 l 1,7,-1
 500 400 l 1,8,-1
 400 400 l 1,9,-1
 400 200 l 1,10,-1
 500 200 l 1,11,-1
 500 100 l 1,12,-1
 600 100 l 1,13,-1
 600 0 l 1,14,-1
 500 0 l 1,15,-1
 500 100 l 1,16,-1
 400 100 l 1,17,-1
 400 200 l 1,18,-1
 300 200 l 1,19,-1
 300 400 l 1,0,-1
EndSplineSet
Validated: 5
EndChar

StartChar: OE
Encoding: 338 338 104
Width: 800
Flags: W
LayerCount: 2
Fore
SplineSet
0 500 m 1,0,-1
 100 500 l 1,1,-1
 100 600 l 1,2,-1
 700 600 l 1,3,-1
 700 500 l 1,4,-1
 400 500 l 1,5,-1
 400 400 l 1,6,-1
 600 400 l 1,7,-1
 600 300 l 1,8,-1
 400 300 l 1,9,-1
 400 100 l 1,10,-1
 700 100 l 1,11,-1
 700 0 l 1,12,-1
 100 0 l 1,13,-1
 100 100 l 1,14,-1
 0 100 l 1,15,-1
 0 500 l 1,0,-1
100 100 m 1,16,-1
 300 100 l 1,17,-1
 300 500 l 1,18,-1
 100 500 l 1,19,-1
 100 100 l 1,16,-1
EndSplineSet
Validated: 5
EndChar

StartChar: Zcaron
Encoding: 381 381 105
Width: 800
Flags: W
LayerCount: 2
Fore
SplineSet
100 600 m 1,0,-1
 700 600 l 1,1,-1
 700 500 l 1,2,-1
 600 500 l 1,3,-1
 600 400 l 1,4,-1
 500 400 l 1,5,-1
 500 300 l 1,6,-1
 400 300 l 1,7,-1
 400 200 l 1,8,-1
 300 200 l 1,9,-1
 300 100 l 1,10,-1
 700 100 l 1,11,-1
 700 0 l 1,12,-1
 100 0 l 1,13,-1
 100 100 l 1,14,-1
 200 100 l 1,15,-1
 200 200 l 1,16,-1
 300 200 l 1,17,-1
 300 300 l 1,18,-1
 400 300 l 1,19,-1
 400 400 l 1,20,-1
 500 400 l 1,21,-1
 500 500 l 1,22,-1
 100 500 l 1,23,-1
 100 600 l 1,0,-1
200 900 m 1,24,-1
 300 900 l 1,25,-1
 300 800 l 1,26,-1
 500 800 l 1,27,-1
 500 900 l 1,28,-1
 600 900 l 1,29,-1
 600 800 l 1,30,-1
 500 800 l 1,31,-1
 500 700 l 1,32,-1
 300 700 l 1,33,-1
 300 800 l 1,34,-1
 200 800 l 1,35,-1
 200 900 l 1,24,-1
EndSplineSet
Validated: 5
EndChar

StartChar: quoteleft
Encoding: 8216 8216 106
Width: 800
Flags: W
LayerCount: 2
Fore
SplineSet
300 600 m 1,0,-1
 400 600 l 1,1,-1
 400 400 l 1,2,-1
 500 400 l 1,3,-1
 500 300 l 1,4,-1
 400 300 l 1,5,-1
 400 400 l 1,6,-1
 300 400 l 1,7,-1
 300 600 l 1,0,-1
EndSplineSet
Validated: 5
EndChar

StartChar: quoteright
Encoding: 8217 8217 107
Width: 800
Flags: W
LayerCount: 2
Fore
SplineSet
200 400 m 1,0,-1
 300 400 l 1,1,-1
 300 600 l 1,2,-1
 400 600 l 1,3,-1
 400 400 l 1,4,-1
 300 400 l 1,5,-1
 300 300 l 1,6,-1
 200 300 l 1,7,-1
 200 400 l 1,0,-1
EndSplineSet
Validated: 5
EndChar

StartChar: quotedblleft
Encoding: 8220 8220 108
Width: 800
Flags: W
LayerCount: 2
Fore
SplineSet
200 600 m 1,0,-1
 300 600 l 1,1,-1
 300 400 l 1,2,-1
 400 400 l 1,3,-1
 400 300 l 1,4,-1
 300 300 l 1,5,-1
 300 400 l 1,6,-1
 200 400 l 1,7,-1
 200 600 l 1,0,-1
500 600 m 1,8,-1
 600 600 l 1,9,-1
 600 400 l 1,10,-1
 700 400 l 1,11,-1
 700 300 l 1,12,-1
 600 300 l 1,13,-1
 600 400 l 1,14,-1
 500 400 l 1,15,-1
 500 600 l 1,8,-1
EndSplineSet
Validated: 5
EndChar

StartChar: quotedblright
Encoding: 8221 8221 109
Width: 800
Flags: W
LayerCount: 2
Fore
SplineSet
100 400 m 1,0,-1
 200 400 l 1,1,-1
 200 600 l 1,2,-1
 300 600 l 1,3,-1
 300 400 l 1,4,-1
 200 400 l 1,5,-1
 200 300 l 1,6,-1
 100 300 l 1,7,-1
 100 400 l 1,0,-1
400 400 m 1,8,-1
 500 400 l 1,9,-1
 500 600 l 1,10,-1
 600 600 l 1,11,-1
 600 400 l 1,12,-1
 500 400 l 1,13,-1
 500 300 l 1,14,-1
 400 300 l 1,15,-1
 400 400 l 1,8,-1
EndSplineSet
Validated: 5
EndChar

StartChar: bullet
Encoding: 8226 8226 110
Width: 800
Flags: W
LayerCount: 2
Fore
SplineSet
200 400 m 1,0,-1
 300 400 l 1,1,-1
 300 500 l 1,2,-1
 500 500 l 1,3,-1
 500 400 l 1,4,-1
 600 400 l 1,5,-1
 600 200 l 1,6,-1
 500 200 l 1,7,-1
 500 100 l 1,8,-1
 300 100 l 1,9,-1
 300 200 l 1,10,-1
 200 200 l 1,11,-1
 200 400 l 1,0,-1
EndSplineSet
Validated: 1
EndChar

StartChar: endash
Encoding: 8211 8211 111
Width: 800
Flags: W
LayerCount: 2
Fore
SplineSet
200 300 m 1,0,-1
 700 300 l 1,1,-1
 700 200 l 1,2,-1
 200 200 l 1,3,-1
 200 300 l 1,0,-1
EndSplineSet
Validated: 1
EndChar

StartChar: emdash
Encoding: 8212 8212 112
Width: 800
Flags: W
LayerCount: 2
Fore
SplineSet
100 300 m 1,0,-1
 700 300 l 1,1,-1
 700 200 l 1,2,-1
 100 200 l 1,3,-1
 100 300 l 1,0,-1
EndSplineSet
Validated: 1
EndChar

StartChar: tilde
Encoding: 732 732 113
Width: 800
Flags: W
LayerCount: 2
Fore
SplineSet
100 300 m 1,0,-1
 200 300 l 1,1,-1
 200 400 l 1,2,-1
 400 400 l 1,3,-1
 400 300 l 1,4,-1
 600 300 l 1,5,-1
 600 400 l 1,6,-1
 700 400 l 1,7,-1
 700 300 l 1,8,-1
 600 300 l 1,9,-1
 600 200 l 1,10,-1
 400 200 l 1,11,-1
 400 300 l 1,12,-1
 200 300 l 1,13,-1
 200 200 l 1,14,-1
 100 200 l 1,15,-1
 100 300 l 1,0,-1
EndSplineSet
Validated: 5
EndChar

StartChar: trademark
Encoding: 8482 8482 114
Width: 800
Flags: W
LayerCount: 2
Fore
SplineSet
0 500 m 1,0,-1
 400 500 l 1,1,-1
 400 400 l 1,2,-1
 500 400 l 1,3,-1
 500 300 l 1,4,-1
 600 300 l 1,5,-1
 600 400 l 1,6,-1
 700 400 l 1,7,-1
 700 500 l 1,8,-1
 800 500 l 1,9,-1
 800 100 l 1,10,-1
 700 100 l 1,11,-1
 700 300 l 1,12,-1
 600 300 l 1,13,-1
 600 100 l 1,14,-1
 500 100 l 1,15,-1
 500 300 l 1,16,-1
 400 300 l 1,17,-1
 400 100 l 1,18,-1
 300 100 l 1,19,-1
 300 400 l 1,20,-1
 200 400 l 1,21,-1
 200 100 l 1,22,-1
 100 100 l 1,23,-1
 100 400 l 1,24,-1
 0 400 l 1,25,-1
 0 500 l 1,0,-1
EndSplineSet
Validated: 5
EndChar

StartChar: scaron
Encoding: 353 353 115
Width: 800
Flags: W
LayerCount: 2
Fore
SplineSet
100 400 m 1,0,-1
 200 400 l 1,1,-1
 200 500 l 1,2,-1
 500 500 l 1,3,-1
 500 400 l 1,4,-1
 200 400 l 1,5,-1
 200 300 l 1,6,-1
 500 300 l 1,7,-1
 500 200 l 1,8,-1
 600 200 l 1,9,-1
 600 100 l 1,10,-1
 500 100 l 1,11,-1
 500 0 l 1,12,-1
 100 0 l 1,13,-1
 100 100 l 1,14,-1
 500 100 l 1,15,-1
 500 200 l 1,16,-1
 200 200 l 1,17,-1
 200 300 l 1,18,-1
 100 300 l 1,19,-1
 100 400 l 1,0,-1
200 800 m 1,20,-1
 300 800 l 1,21,-1
 300 700 l 1,22,-1
 500 700 l 1,23,-1
 500 800 l 1,24,-1
 600 800 l 1,25,-1
 600 700 l 1,26,-1
 500 700 l 1,27,-1
 500 600 l 1,28,-1
 300 600 l 1,29,-1
 300 700 l 1,30,-1
 200 700 l 1,31,-1
 200 800 l 1,20,-1
EndSplineSet
Validated: 5
EndChar

StartChar: guilsinglright
Encoding: 8250 8250 116
Width: 800
Flags: W
LayerCount: 2
Fore
SplineSet
200 600 m 1,0,-1
 300 600 l 1,1,-1
 300 500 l 1,2,-1
 400 500 l 1,3,-1
 400 400 l 1,4,-1
 500 400 l 1,5,-1
 500 200 l 1,6,-1
 400 200 l 1,7,-1
 400 100 l 1,8,-1
 300 100 l 1,9,-1
 300 0 l 1,10,-1
 200 0 l 1,11,-1
 200 100 l 1,12,-1
 300 100 l 1,13,-1
 300 200 l 1,14,-1
 400 200 l 1,15,-1
 400 400 l 1,16,-1
 300 400 l 1,17,-1
 300 500 l 1,18,-1
 200 500 l 1,19,-1
 200 600 l 1,0,-1
EndSplineSet
Validated: 5
EndChar

StartChar: oe
Encoding: 339 339 117
Width: 800
Flags: W
LayerCount: 2
Fore
SplineSet
0 400 m 1,0,-1
 100 400 l 1,1,-1
 100 500 l 1,2,-1
 600 500 l 1,3,-1
 600 400 l 1,4,-1
 700 400 l 1,5,-1
 700 300 l 1,6,-1
 600 300 l 1,7,-1
 600 200 l 1,8,-1
 400 200 l 1,9,-1
 400 100 l 1,10,-1
 700 100 l 1,11,-1
 700 0 l 1,12,-1
 400 0 l 1,13,-1
 400 100 l 1,14,-1
 300 100 l 1,15,-1
 300 0 l 1,16,-1
 100 0 l 1,17,-1
 100 100 l 1,18,-1
 0 100 l 1,19,-1
 0 400 l 1,0,-1
100 100 m 1,20,-1
 300 100 l 1,21,-1
 300 400 l 1,22,-1
 100 400 l 1,23,-1
 100 100 l 1,20,-1
400 300 m 1,24,-1
 600 300 l 1,25,-1
 600 400 l 1,26,-1
 400 400 l 1,27,-1
 400 300 l 1,24,-1
EndSplineSet
Validated: 5
EndChar

StartChar: zcaron
Encoding: 382 382 118
Width: 800
Flags: W
LayerCount: 2
Fore
SplineSet
100 500 m 1,0,-1
 600 500 l 1,1,-1
 600 400 l 1,2,-1
 500 400 l 1,3,-1
 500 300 l 1,4,-1
 400 300 l 1,5,-1
 400 200 l 1,6,-1
 300 200 l 1,7,-1
 300 100 l 1,8,-1
 600 100 l 1,9,-1
 600 0 l 1,10,-1
 100 0 l 1,11,-1
 100 100 l 1,12,-1
 200 100 l 1,13,-1
 200 200 l 1,14,-1
 300 200 l 1,15,-1
 300 300 l 1,16,-1
 400 300 l 1,17,-1
 400 400 l 1,18,-1
 100 400 l 1,19,-1
 100 500 l 1,0,-1
200 800 m 1,20,-1
 300 800 l 1,21,-1
 300 700 l 1,22,-1
 500 700 l 1,23,-1
 500 800 l 1,24,-1
 600 800 l 1,25,-1
 600 700 l 1,26,-1
 500 700 l 1,27,-1
 500 600 l 1,28,-1
 300 600 l 1,29,-1
 300 700 l 1,30,-1
 200 700 l 1,31,-1
 200 800 l 1,20,-1
EndSplineSet
Validated: 5
EndChar

StartChar: Ydieresis
Encoding: 376 376 119
Width: 800
Flags: W
LayerCount: 2
Fore
SplineSet
0 600 m 1,0,-1
 100 600 l 1,1,-1
 100 500 l 1,2,-1
 200 500 l 1,3,-1
 200 400 l 1,4,-1
 300 400 l 1,5,-1
 300 300 l 1,6,-1
 400 300 l 1,7,-1
 400 400 l 1,8,-1
 500 400 l 1,9,-1
 500 500 l 1,10,-1
 600 500 l 1,11,-1
 600 600 l 1,12,-1
 700 600 l 1,13,-1
 700 500 l 1,14,-1
 600 500 l 1,15,-1
 600 400 l 1,16,-1
 500 400 l 1,17,-1
 500 300 l 1,18,-1
 400 300 l 1,19,-1
 400 0 l 1,20,-1
 300 0 l 1,21,-1
 300 300 l 1,22,-1
 200 300 l 1,23,-1
 200 400 l 1,24,-1
 100 400 l 1,25,-1
 100 500 l 1,26,-1
 0 500 l 1,27,-1
 0 600 l 1,0,-1
200 800 m 1,28,-1
 300 800 l 1,29,-1
 300 700 l 1,30,-1
 200 700 l 1,31,-1
 200 800 l 1,28,-1
400 800 m 1,32,-1
 500 800 l 1,33,-1
 500 700 l 1,34,-1
 400 700 l 1,35,-1
 400 800 l 1,32,-1
EndSplineSet
Validated: 5
EndChar

StartChar: exclamdown
Encoding: 161 161 120
Width: 800
Flags: W
LayerCount: 2
Fore
SplineSet
300 400 m 1,0,-1
 400 400 l 1,1,-1
 400 0 l 1,2,-1
 300 0 l 1,3,-1
 300 400 l 1,0,-1
300 600 m 1,4,-1
 400 600 l 1,5,-1
 400 500 l 1,6,-1
 300 500 l 1,7,-1
 300 600 l 1,4,-1
EndSplineSet
Validated: 1
EndChar

StartChar: cent
Encoding: 162 162 121
Width: 800
Flags: W
LayerCount: 2
Fore
SplineSet
100 400 m 1,0,-1
 200 400 l 1,1,-1
 200 500 l 1,2,-1
 400 500 l 1,3,-1
 400 600 l 1,4,-1
 500 600 l 1,5,-1
 500 500 l 1,6,-1
 700 500 l 1,7,-1
 700 400 l 1,8,-1
 500 400 l 1,9,-1
 500 100 l 1,10,-1
 700 100 l 1,11,-1
 700 0 l 1,12,-1
 500 0 l 1,13,-1
 500 -100 l 1,14,-1
 400 -100 l 1,15,-1
 400 0 l 1,16,-1
 200 0 l 1,17,-1
 200 100 l 1,18,-1
 100 100 l 1,19,-1
 100 400 l 1,0,-1
200 100 m 1,20,-1
 400 100 l 1,21,-1
 400 400 l 1,22,-1
 200 400 l 1,23,-1
 200 100 l 1,20,-1
EndSplineSet
Validated: 5
EndChar

StartChar: sterling
Encoding: 163 163 122
Width: 800
Flags: W
LayerCount: 2
Fore
SplineSet
100 100 m 1,0,-1
 200 100 l 1,1,-1
 200 300 l 1,2,-1
 100 300 l 1,3,-1
 100 400 l 1,4,-1
 200 400 l 1,5,-1
 200 500 l 1,6,-1
 300 500 l 1,7,-1
 300 400 l 1,8,-1
 500 400 l 1,9,-1
 500 300 l 1,10,-1
 300 300 l 1,11,-1
 300 100 l 1,12,-1
 700 100 l 1,13,-1
 700 0 l 1,14,-1
 100 0 l 1,15,-1
 100 100 l 1,0,-1
600 500 m 1,16,-1
 300 500 l 1,17,-1
 300 600 l 1,18,-1
 600 600 l 1,19,-1
 600 500 l 1,20,-1
 700 500 l 1,21,-1
 700 400 l 1,22,-1
 600 400 l 1,23,-1
 600 500 l 1,16,-1
EndSplineSet
Validated: 5
EndChar

StartChar: currency
Encoding: 164 164 123
Width: 800
Flags: W
LayerCount: 2
Fore
SplineSet
100 500 m 1,0,-1
 200 500 l 1,1,-1
 200 400 l 1,2,-1
 500 400 l 1,3,-1
 500 500 l 1,4,-1
 600 500 l 1,5,-1
 600 400 l 1,6,-1
 500 400 l 1,7,-1
 500 100 l 1,8,-1
 600 100 l 1,9,-1
 600 0 l 1,10,-1
 500 0 l 1,11,-1
 500 100 l 1,12,-1
 200 100 l 1,13,-1
 200 0 l 1,14,-1
 100 0 l 1,15,-1
 100 100 l 1,16,-1
 200 100 l 1,17,-1
 200 400 l 1,18,-1
 100 400 l 1,19,-1
 100 500 l 1,0,-1
300 200 m 1,20,-1
 400 200 l 1,21,-1
 400 300 l 1,22,-1
 300 300 l 1,23,-1
 300 200 l 1,20,-1
EndSplineSet
Validated: 5
EndChar

StartChar: yen
Encoding: 165 165 124
Width: 800
Flags: W
LayerCount: 2
Fore
SplineSet
100 600 m 1,0,-1
 200 600 l 1,1,-1
 200 500 l 1,2,-1
 300 500 l 1,3,-1
 300 400 l 1,4,-1
 400 400 l 1,5,-1
 400 500 l 1,6,-1
 500 500 l 1,7,-1
 500 600 l 1,8,-1
 600 600 l 1,9,-1
 600 500 l 1,10,-1
 500 500 l 1,11,-1
 500 400 l 1,12,-1
 400 400 l 1,13,-1
 400 300 l 1,14,-1
 600 300 l 1,15,-1
 600 200 l 1,16,-1
 400 200 l 1,17,-1
 400 100 l 1,18,-1
 600 100 l 1,19,-1
 600 0 l 1,20,-1
 400 0 l 1,21,-1
 400 -100 l 1,22,-1
 300 -100 l 1,23,-1
 300 0 l 1,24,-1
 100 0 l 1,25,-1
 100 100 l 1,26,-1
 300 100 l 1,27,-1
 300 200 l 1,28,-1
 100 200 l 1,29,-1
 100 300 l 1,30,-1
 300 300 l 1,31,-1
 300 400 l 1,32,-1
 200 400 l 1,33,-1
 200 500 l 1,34,-1
 100 500 l 1,35,-1
 100 600 l 1,0,-1
EndSplineSet
Validated: 5
EndChar

StartChar: brokenbar
Encoding: 166 166 125
Width: 800
Flags: W
LayerCount: 2
Fore
SplineSet
300 600 m 1,0,-1
 400 600 l 1,1,-1
 400 400 l 1,2,-1
 300 400 l 1,3,-1
 300 600 l 1,0,-1
300 200 m 1,4,-1
 400 200 l 1,5,-1
 400 0 l 1,6,-1
 300 0 l 1,7,-1
 300 200 l 1,4,-1
EndSplineSet
Validated: 1
EndChar

StartChar: section
Encoding: 167 167 126
Width: 800
Flags: W
LayerCount: 2
Fore
SplineSet
100 400 m 1,0,-1
 600 400 l 1,1,-1
 600 500 l 1,2,-1
 100 500 l 1,3,-1
 100 600 l 1,4,-1
 700 600 l 1,5,-1
 700 100 l 1,6,-1
 200 100 l 1,7,-1
 200 0 l 1,8,-1
 700 0 l 1,9,-1
 700 -100 l 1,10,-1
 100 -100 l 1,11,-1
 100 400 l 1,0,-1
200 200 m 1,12,-1
 600 200 l 1,13,-1
 600 300 l 1,14,-1
 200 300 l 1,15,-1
 200 200 l 1,12,-1
EndSplineSet
Validated: 1
EndChar

StartChar: dieresis
Encoding: 168 168 127
Width: 800
Flags: W
LayerCount: 2
Fore
SplineSet
200 600 m 1,0,-1
 300 600 l 1,1,-1
 300 500 l 1,2,-1
 200 500 l 1,3,-1
 200 600 l 1,0,-1
400 600 m 1,4,-1
 500 600 l 1,5,-1
 500 500 l 1,6,-1
 400 500 l 1,7,-1
 400 600 l 1,4,-1
EndSplineSet
Validated: 1
EndChar

StartChar: copyright
Encoding: 169 169 128
Width: 800
Flags: W
LayerCount: 2
Fore
SplineSet
0 500 m 1,0,-1
 100 500 l 1,1,-1
 100 600 l 1,2,-1
 200 600 l 1,3,-1
 200 700 l 1,4,-1
 600 700 l 1,5,-1
 600 600 l 1,6,-1
 700 600 l 1,7,-1
 700 500 l 1,8,-1
 800 500 l 1,9,-1
 800 100 l 1,10,-1
 700 100 l 1,11,-1
 700 0 l 1,12,-1
 600 0 l 1,13,-1
 600 -100 l 1,14,-1
 200 -100 l 1,15,-1
 200 0 l 1,16,-1
 100 0 l 1,17,-1
 100 100 l 1,18,-1
 0 100 l 1,19,-1
 0 500 l 1,0,-1
600 600 m 1,20,-1
 200 600 l 1,21,-1
 200 500 l 1,22,-1
 100 500 l 1,23,-1
 100 100 l 1,24,-1
 200 100 l 1,25,-1
 200 0 l 1,26,-1
 600 0 l 1,27,-1
 600 100 l 1,28,-1
 700 100 l 1,29,-1
 700 500 l 1,30,-1
 600 500 l 1,31,-1
 600 600 l 1,20,-1
200 400 m 1,32,-1
 300 400 l 1,33,-1
 300 500 l 1,34,-1
 500 500 l 1,35,-1
 500 400 l 1,36,-1
 300 400 l 1,37,-1
 300 200 l 1,38,-1
 500 200 l 1,39,-1
 500 100 l 1,40,-1
 300 100 l 1,41,-1
 300 200 l 1,42,-1
 200 200 l 1,43,-1
 200 400 l 1,32,-1
EndSplineSet
Validated: 5
EndChar

StartChar: ordfeminine
Encoding: 170 170 129
Width: 800
Flags: W
LayerCount: 2
Fore
SplineSet
300 600 m 1,0,-1
 500 600 l 1,1,-1
 500 500 l 1,2,-1
 600 500 l 1,3,-1
 600 100 l 1,4,-1
 300 100 l 1,5,-1
 300 200 l 1,6,-1
 200 200 l 1,7,-1
 200 300 l 1,8,-1
 300 300 l 1,9,-1
 300 400 l 1,10,-1
 500 400 l 1,11,-1
 500 500 l 1,12,-1
 300 500 l 1,13,-1
 300 600 l 1,0,-1
300 200 m 1,14,-1
 500 200 l 1,15,-1
 500 300 l 1,16,-1
 300 300 l 1,17,-1
 300 200 l 1,14,-1
EndSplineSet
Validated: 5
EndChar

StartChar: guillemotleft
Encoding: 171 171 130
Width: 800
Flags: W
LayerCount: 2
Fore
SplineSet
100 400 m 1,0,-1
 200 400 l 1,1,-1
 200 500 l 1,2,-1
 300 500 l 1,3,-1
 300 600 l 1,4,-1
 400 600 l 1,5,-1
 400 500 l 1,6,-1
 300 500 l 1,7,-1
 300 400 l 1,8,-1
 200 400 l 1,9,-1
 200 200 l 1,10,-1
 300 200 l 1,11,-1
 300 100 l 1,12,-1
 400 100 l 1,13,-1
 400 0 l 1,14,-1
 300 0 l 1,15,-1
 300 100 l 1,16,-1
 200 100 l 1,17,-1
 200 200 l 1,18,-1
 100 200 l 1,19,-1
 100 400 l 1,0,-1
400 400 m 1,20,-1
 500 400 l 1,21,-1
 500 500 l 1,22,-1
 600 500 l 1,23,-1
 600 600 l 1,24,-1
 700 600 l 1,25,-1
 700 500 l 1,26,-1
 600 500 l 1,27,-1
 600 400 l 1,28,-1
 500 400 l 1,29,-1
 500 200 l 1,30,-1
 600 200 l 1,31,-1
 600 100 l 1,32,-1
 700 100 l 1,33,-1
 700 0 l 1,34,-1
 600 0 l 1,35,-1
 600 100 l 1,36,-1
 500 100 l 1,37,-1
 500 200 l 1,38,-1
 400 200 l 1,39,-1
 400 400 l 1,20,-1
EndSplineSet
Validated: 5
EndChar

StartChar: logicalnot
Encoding: 172 172 131
Width: 800
Flags: W
LayerCount: 2
Fore
SplineSet
100 600 m 1,0,-1
 700 600 l 1,1,-1
 700 300 l 1,2,-1
 600 300 l 1,3,-1
 600 500 l 1,4,-1
 100 500 l 1,5,-1
 100 600 l 1,0,-1
EndSplineSet
Validated: 1
EndChar

StartChar: uni00AD
Encoding: 173 173 132
Width: 800
Flags: W
LayerCount: 2
Fore
SplineSet
200 300 m 1,0,-1
 600 300 l 1,1,-1
 600 200 l 1,2,-1
 200 200 l 1,3,-1
 200 300 l 1,0,-1
EndSplineSet
Validated: 1
EndChar

StartChar: registered
Encoding: 174 174 133
Width: 800
Flags: W
LayerCount: 2
Fore
SplineSet
0 500 m 1,0,-1
 100 500 l 1,1,-1
 100 600 l 1,2,-1
 200 600 l 1,3,-1
 200 700 l 1,4,-1
 600 700 l 1,5,-1
 600 600 l 1,6,-1
 700 600 l 1,7,-1
 700 500 l 1,8,-1
 800 500 l 1,9,-1
 800 100 l 1,10,-1
 700 100 l 1,11,-1
 700 0 l 1,12,-1
 600 0 l 1,13,-1
 600 -100 l 1,14,-1
 200 -100 l 1,15,-1
 200 0 l 1,16,-1
 100 0 l 1,17,-1
 100 100 l 1,18,-1
 0 100 l 1,19,-1
 0 500 l 1,0,-1
300 100 m 1,20,-1
 200 100 l 1,21,-1
 200 0 l 1,22,-1
 600 0 l 1,23,-1
 600 100 l 1,24,-1
 500 100 l 1,25,-1
 500 200 l 1,26,-1
 300 200 l 1,27,-1
 300 100 l 1,20,-1
700 500 m 1,28,-1
 600 500 l 1,29,-1
 600 300 l 1,30,-1
 500 300 l 1,31,-1
 500 200 l 1,32,-1
 600 200 l 1,33,-1
 600 100 l 1,34,-1
 700 100 l 1,35,-1
 700 500 l 1,28,-1
200 500 m 1,36,-1
 100 500 l 1,37,-1
 100 100 l 1,38,-1
 200 100 l 1,39,-1
 200 500 l 1,36,-1
200 500 m 1,40,-1
 600 500 l 1,41,-1
 600 600 l 1,42,-1
 200 600 l 1,43,-1
 200 500 l 1,40,-1
300 400 m 1,44,-1
 300 300 l 1,45,-1
 500 300 l 1,46,-1
 500 400 l 1,47,-1
 300 400 l 1,44,-1
EndSplineSet
Validated: 5
EndChar

StartChar: degree
Encoding: 176 176 134
Width: 800
Flags: W
LayerCount: 2
Fore
SplineSet
200 500 m 1,0,-1
 300 500 l 1,1,-1
 300 600 l 1,2,-1
 500 600 l 1,3,-1
 500 500 l 1,4,-1
 600 500 l 1,5,-1
 600 300 l 1,6,-1
 500 300 l 1,7,-1
 500 200 l 1,8,-1
 300 200 l 1,9,-1
 300 300 l 1,10,-1
 200 300 l 1,11,-1
 200 500 l 1,0,-1
300 300 m 1,12,-1
 500 300 l 1,13,-1
 500 500 l 1,14,-1
 300 500 l 1,15,-1
 300 300 l 1,12,-1
EndSplineSet
Validated: 5
EndChar

StartChar: plusminus
Encoding: 177 177 135
Width: 800
Flags: W
LayerCount: 2
Fore
SplineSet
200 400 m 1,0,-1
 400 400 l 1,1,-1
 400 600 l 1,2,-1
 500 600 l 1,3,-1
 500 400 l 1,4,-1
 700 400 l 1,5,-1
 700 300 l 1,6,-1
 500 300 l 1,7,-1
 500 100 l 1,8,-1
 400 100 l 1,9,-1
 400 300 l 1,10,-1
 200 300 l 1,11,-1
 200 400 l 1,0,-1
200 0 m 1,12,-1
 700 0 l 1,13,-1
 700 -100 l 1,14,-1
 200 -100 l 1,15,-1
 200 0 l 1,12,-1
EndSplineSet
Validated: 1
EndChar

StartChar: twosuperior
Encoding: 178 178 136
Width: 800
Flags: W
LayerCount: 2
Fore
SplineSet
200 600 m 1,0,-1
 500 600 l 1,1,-1
 500 500 l 1,2,-1
 600 500 l 1,3,-1
 600 400 l 1,4,-1
 500 400 l 1,5,-1
 500 300 l 1,6,-1
 300 300 l 1,7,-1
 300 200 l 1,8,-1
 600 200 l 1,9,-1
 600 100 l 1,10,-1
 200 100 l 1,11,-1
 200 300 l 1,12,-1
 300 300 l 1,13,-1
 300 400 l 1,14,-1
 500 400 l 1,15,-1
 500 500 l 1,16,-1
 200 500 l 1,17,-1
 200 600 l 1,0,-1
EndSplineSet
Validated: 5
EndChar

StartChar: threesuperior
Encoding: 179 179 137
Width: 800
Flags: W
LayerCount: 2
Fore
SplineSet
300 400 m 1,0,-1
 500 400 l 1,1,-1
 500 500 l 1,2,-1
 200 500 l 1,3,-1
 200 600 l 1,4,-1
 500 600 l 1,5,-1
 500 500 l 1,6,-1
 600 500 l 1,7,-1
 600 400 l 1,8,-1
 500 400 l 1,9,-1
 500 300 l 1,10,-1
 600 300 l 1,11,-1
 600 200 l 1,12,-1
 500 200 l 1,13,-1
 500 100 l 1,14,-1
 200 100 l 1,15,-1
 200 200 l 1,16,-1
 500 200 l 1,17,-1
 500 300 l 1,18,-1
 300 300 l 1,19,-1
 300 400 l 1,0,-1
EndSplineSet
Validated: 5
EndChar

StartChar: acute
Encoding: 180 180 138
Width: 800
Flags: W
LayerCount: 2
Fore
SplineSet
300 500 m 1,0,-1
 400 500 l 1,1,-1
 400 600 l 1,2,-1
 500 600 l 1,3,-1
 500 500 l 1,4,-1
 400 500 l 1,5,-1
 400 400 l 1,6,-1
 300 400 l 1,7,-1
 300 500 l 1,0,-1
EndSplineSet
Validated: 5
EndChar

StartChar: mu
Encoding: 181 181 139
Width: 800
Flags: W
LayerCount: 2
Fore
SplineSet
100 600 m 1,0,-1
 200 600 l 1,1,-1
 200 200 l 1,2,-1
 300 200 l 1,3,-1
 300 100 l 1,4,-1
 400 100 l 1,5,-1
 400 200 l 1,6,-1
 500 200 l 1,7,-1
 500 600 l 1,8,-1
 600 600 l 1,9,-1
 600 0 l 1,10,-1
 500 0 l 1,11,-1
 500 100 l 1,12,-1
 400 100 l 1,13,-1
 400 0 l 1,14,-1
 300 0 l 1,15,-1
 300 100 l 1,16,-1
 200 100 l 1,17,-1
 200 -100 l 1,18,-1
 100 -100 l 1,19,-1
 100 600 l 1,0,-1
EndSplineSet
Validated: 5
EndChar

StartChar: paragraph
Encoding: 182 182 140
Width: 800
Flags: W
LayerCount: 2
Fore
SplineSet
100 600 m 1,0,-1
 600 600 l 1,1,-1
 600 500 l 1,2,-1
 500 500 l 1,3,-1
 500 0 l 1,4,-1
 400 0 l 1,5,-1
 400 500 l 1,6,-1
 300 500 l 1,7,-1
 300 0 l 1,8,-1
 200 0 l 1,9,-1
 200 400 l 1,10,-1
 100 400 l 1,11,-1
 100 600 l 1,0,-1
EndSplineSet
Validated: 1
EndChar

StartChar: periodcentered
Encoding: 183 183 141
Width: 800
Flags: W
LayerCount: 2
Fore
SplineSet
300 400 m 1,0,-1
 500 400 l 1,1,-1
 500 200 l 1,2,-1
 300 200 l 1,3,-1
 300 400 l 1,0,-1
EndSplineSet
Validated: 1
EndChar

StartChar: cedilla
Encoding: 184 184 142
Width: 800
Flags: W
LayerCount: 2
Fore
SplineSet
100 -100 m 1,0,-1
 300 -100 l 1,1,-1
 300 0 l 1,2,-1
 400 0 l 1,3,-1
 400 -100 l 1,4,-1
 300 -100 l 1,5,-1
 300 -200 l 1,6,-1
 100 -200 l 1,7,-1
 100 -100 l 1,0,-1
EndSplineSet
Validated: 5
EndChar

StartChar: onesuperior
Encoding: 185 185 143
Width: 800
Flags: W
LayerCount: 2
Fore
SplineSet
300 600 m 1,0,-1
 500 600 l 1,1,-1
 500 200 l 1,2,-1
 600 200 l 1,3,-1
 600 100 l 1,4,-1
 300 100 l 1,5,-1
 300 200 l 1,6,-1
 400 200 l 1,7,-1
 400 500 l 1,8,-1
 300 500 l 1,9,-1
 300 600 l 1,0,-1
EndSplineSet
Validated: 1
EndChar

StartChar: ordmasculine
Encoding: 186 186 144
Width: 800
Flags: W
LayerCount: 2
Fore
SplineSet
200 500 m 1,0,-1
 300 500 l 1,1,-1
 300 600 l 1,2,-1
 500 600 l 1,3,-1
 500 500 l 1,4,-1
 600 500 l 1,5,-1
 600 200 l 1,6,-1
 500 200 l 1,7,-1
 500 100 l 1,8,-1
 300 100 l 1,9,-1
 300 200 l 1,10,-1
 200 200 l 1,11,-1
 200 500 l 1,0,-1
300 200 m 1,12,-1
 500 200 l 1,13,-1
 500 500 l 1,14,-1
 300 500 l 1,15,-1
 300 200 l 1,12,-1
EndSplineSet
Validated: 5
EndChar

StartChar: guillemotright
Encoding: 187 187 145
Width: 800
Flags: W
LayerCount: 2
Fore
SplineSet
100 600 m 1,0,-1
 200 600 l 1,1,-1
 200 500 l 1,2,-1
 300 500 l 1,3,-1
 300 400 l 1,4,-1
 400 400 l 1,5,-1
 400 200 l 1,6,-1
 300 200 l 1,7,-1
 300 100 l 1,8,-1
 200 100 l 1,9,-1
 200 0 l 1,10,-1
 100 0 l 1,11,-1
 100 100 l 1,12,-1
 200 100 l 1,13,-1
 200 200 l 1,14,-1
 300 200 l 1,15,-1
 300 400 l 1,16,-1
 200 400 l 1,17,-1
 200 500 l 1,18,-1
 100 500 l 1,19,-1
 100 600 l 1,0,-1
400 600 m 1,20,-1
 500 600 l 1,21,-1
 500 500 l 1,22,-1
 600 500 l 1,23,-1
 600 400 l 1,24,-1
 700 400 l 1,25,-1
 700 200 l 1,26,-1
 600 200 l 1,27,-1
 600 100 l 1,28,-1
 500 100 l 1,29,-1
 500 0 l 1,30,-1
 400 0 l 1,31,-1
 400 100 l 1,32,-1
 500 100 l 1,33,-1
 500 200 l 1,34,-1
 600 200 l 1,35,-1
 600 400 l 1,36,-1
 500 400 l 1,37,-1
 500 500 l 1,38,-1
 400 500 l 1,39,-1
 400 600 l 1,20,-1
EndSplineSet
Validated: 5
EndChar

StartChar: questiondown
Encoding: 191 191 146
Width: 800
Flags: W
LayerCount: 2
Fore
SplineSet
100 200 m 1,0,-1
 200 200 l 1,1,-1
 200 300 l 1,2,-1
 300 300 l 1,3,-1
 300 400 l 1,4,-1
 400 400 l 1,5,-1
 400 300 l 1,6,-1
 300 300 l 1,7,-1
 300 200 l 1,8,-1
 200 200 l 1,9,-1
 200 100 l 1,10,-1
 600 100 l 1,11,-1
 600 200 l 1,12,-1
 700 200 l 1,13,-1
 700 100 l 1,14,-1
 600 100 l 1,15,-1
 600 0 l 1,16,-1
 200 0 l 1,17,-1
 200 100 l 1,18,-1
 100 100 l 1,19,-1
 100 200 l 1,0,-1
300 600 m 1,20,-1
 400 600 l 1,21,-1
 400 500 l 1,22,-1
 300 500 l 1,23,-1
 300 600 l 1,20,-1
EndSplineSet
Validated: 5
EndChar

StartChar: Agrave
Encoding: 192 192 147
Width: 800
Flags: W
LayerCount: 2
Fore
SplineSet
100 500 m 1,0,-1
 200 500 l 1,1,-1
 200 600 l 1,2,-1
 600 600 l 1,3,-1
 600 500 l 1,4,-1
 700 500 l 1,5,-1
 700 0 l 1,6,-1
 600 0 l 1,7,-1
 600 200 l 1,8,-1
 200 200 l 1,9,-1
 200 0 l 1,10,-1
 100 0 l 1,11,-1
 100 500 l 1,0,-1
200 300 m 1,12,-1
 600 300 l 1,13,-1
 600 500 l 1,14,-1
 200 500 l 1,15,-1
 200 300 l 1,12,-1
200 900 m 1,16,-1
 300 900 l 1,17,-1
 300 800 l 1,18,-1
 400 800 l 1,19,-1
 400 700 l 1,20,-1
 300 700 l 1,21,-1
 300 800 l 1,22,-1
 200 800 l 1,23,-1
 200 900 l 1,16,-1
EndSplineSet
Validated: 5
EndChar

StartChar: Aacute
Encoding: 193 193 148
Width: 800
Flags: W
LayerCount: 2
Fore
SplineSet
100 500 m 1,0,-1
 200 500 l 1,1,-1
 200 600 l 1,2,-1
 600 600 l 1,3,-1
 600 500 l 1,4,-1
 700 500 l 1,5,-1
 700 0 l 1,6,-1
 600 0 l 1,7,-1
 600 200 l 1,8,-1
 200 200 l 1,9,-1
 200 0 l 1,10,-1
 100 0 l 1,11,-1
 100 500 l 1,0,-1
200 300 m 1,12,-1
 600 300 l 1,13,-1
 600 500 l 1,14,-1
 200 500 l 1,15,-1
 200 300 l 1,12,-1
400 800 m 1,16,-1
 500 800 l 1,17,-1
 500 900 l 1,18,-1
 600 900 l 1,19,-1
 600 800 l 1,20,-1
 500 800 l 1,21,-1
 500 700 l 1,22,-1
 400 700 l 1,23,-1
 400 800 l 1,16,-1
EndSplineSet
Validated: 5
EndChar

StartChar: Acircumflex
Encoding: 194 194 149
Width: 695
Flags: W
LayerCount: 2
Fore
SplineSet
-5 500 m 1,0,-1
 95 500 l 1,1,-1
 95 600 l 1,2,-1
 495 600 l 1,3,-1
 495 500 l 1,4,-1
 595 500 l 1,5,-1
 595 0 l 1,6,-1
 495 0 l 1,7,-1
 495 200 l 1,8,-1
 95 200 l 1,9,-1
 95 0 l 1,10,-1
 -5 0 l 1,11,-1
 -5 500 l 1,0,-1
95 300 m 1,12,-1
 495 300 l 1,13,-1
 495 500 l 1,14,-1
 95 500 l 1,15,-1
 95 300 l 1,12,-1
95 800 m 1,16,-1
 195 800 l 1,17,-1
 195 900 l 1,18,-1
 395 900 l 1,19,-1
 395 800 l 1,20,-1
 495 800 l 1,21,-1
 495 700 l 1,22,-1
 395 700 l 1,23,-1
 395 800 l 1,24,-1
 195 800 l 1,25,-1
 195 700 l 1,26,-1
 95 700 l 1,27,-1
 95 800 l 1,16,-1
EndSplineSet
Validated: 5
EndChar

StartChar: Atilde
Encoding: 195 195 150
Width: 800
Flags: W
LayerCount: 2
Fore
SplineSet
100 500 m 1,0,-1
 200 500 l 1,1,-1
 200 600 l 1,2,-1
 600 600 l 1,3,-1
 600 500 l 1,4,-1
 700 500 l 1,5,-1
 700 0 l 1,6,-1
 600 0 l 1,7,-1
 600 200 l 1,8,-1
 200 200 l 1,9,-1
 200 0 l 1,10,-1
 100 0 l 1,11,-1
 100 500 l 1,0,-1
200 300 m 1,12,-1
 600 300 l 1,13,-1
 600 500 l 1,14,-1
 200 500 l 1,15,-1
 200 300 l 1,12,-1
200 800 m 1,16,-1
 300 800 l 1,17,-1
 300 900 l 1,18,-1
 400 900 l 1,19,-1
 400 800 l 1,20,-1
 500 800 l 1,21,-1
 500 900 l 1,22,-1
 600 900 l 1,23,-1
 600 800 l 1,24,-1
 500 800 l 1,25,-1
 500 700 l 1,26,-1
 400 700 l 1,27,-1
 400 800 l 1,28,-1
 300 800 l 1,29,-1
 300 700 l 1,30,-1
 200 700 l 1,31,-1
 200 800 l 1,16,-1
EndSplineSet
Validated: 5
EndChar

StartChar: Adieresis
Encoding: 196 196 151
Width: 698
Flags: W
LayerCount: 2
Fore
SplineSet
-2 500 m 1,0,-1
 98 500 l 1,1,-1
 98 600 l 1,2,-1
 498 600 l 1,3,-1
 498 500 l 1,4,-1
 598 500 l 1,5,-1
 598 0 l 1,6,-1
 498 0 l 1,7,-1
 498 200 l 1,8,-1
 98 200 l 1,9,-1
 98 0 l 1,10,-1
 -2 0 l 1,11,-1
 -2 500 l 1,0,-1
98 300 m 1,12,-1
 498 300 l 1,13,-1
 498 500 l 1,14,-1
 98 500 l 1,15,-1
 98 300 l 1,12,-1
398 800 m 1,16,-1
 498 800 l 1,17,-1
 498 700 l 1,18,-1
 398 700 l 1,19,-1
 398 800 l 1,16,-1
98 800 m 1,20,-1
 198 800 l 1,21,-1
 198 700 l 1,22,-1
 98 700 l 1,23,-1
 98 800 l 1,20,-1
EndSplineSet
Validated: 5
EndChar

StartChar: Aring
Encoding: 197 197 152
Width: 800
Flags: W
LayerCount: 2
Fore
SplineSet
100 500 m 1,0,-1
 200 500 l 1,1,-1
 200 700 l 1,2,-1
 300 700 l 1,3,-1
 300 800 l 1,4,-1
 500 800 l 1,5,-1
 500 700 l 1,6,-1
 600 700 l 1,7,-1
 600 500 l 1,8,-1
 700 500 l 1,9,-1
 700 0 l 1,10,-1
 600 0 l 1,11,-1
 600 200 l 1,12,-1
 200 200 l 1,13,-1
 200 0 l 1,14,-1
 100 0 l 1,15,-1
 100 500 l 1,0,-1
200 300 m 1,16,-1
 600 300 l 1,17,-1
 600 500 l 1,18,-1
 200 500 l 1,19,-1
 200 300 l 1,16,-1
300 600 m 1,20,-1
 500 600 l 1,21,-1
 500 700 l 1,22,-1
 300 700 l 1,23,-1
 300 600 l 1,20,-1
EndSplineSet
Validated: 5
EndChar

StartChar: AE
Encoding: 198 198 153
Width: 800
Flags: W
LayerCount: 2
Fore
SplineSet
100 500 m 1,0,-1
 200 500 l 1,1,-1
 200 600 l 1,2,-1
 700 600 l 1,3,-1
 700 500 l 1,4,-1
 500 500 l 1,5,-1
 500 400 l 1,6,-1
 600 400 l 1,7,-1
 600 300 l 1,8,-1
 500 300 l 1,9,-1
 500 100 l 1,10,-1
 700 100 l 1,11,-1
 700 0 l 1,12,-1
 400 0 l 1,13,-1
 400 300 l 1,14,-1
 200 300 l 1,15,-1
 200 0 l 1,16,-1
 100 0 l 1,17,-1
 100 500 l 1,0,-1
200 400 m 1,18,-1
 400 400 l 1,19,-1
 400 500 l 1,20,-1
 200 500 l 1,21,-1
 200 400 l 1,18,-1
EndSplineSet
Validated: 5
EndChar

StartChar: Ccedilla
Encoding: 199 199 154
Width: 800
Flags: W
LayerCount: 2
Fore
SplineSet
100 500 m 1,0,-1
 200 500 l 1,1,-1
 200 600 l 1,2,-1
 600 600 l 1,3,-1
 600 500 l 1,4,-1
 700 500 l 1,5,-1
 700 400 l 1,6,-1
 600 400 l 1,7,-1
 600 500 l 1,8,-1
 200 500 l 1,9,-1
 200 100 l 1,10,-1
 600 100 l 1,11,-1
 600 200 l 1,12,-1
 700 200 l 1,13,-1
 700 100 l 1,14,-1
 600 100 l 1,15,-1
 600 0 l 1,16,-1
 400 0 l 1,17,-1
 400 -100 l 1,18,-1
 300 -100 l 1,19,-1
 300 -200 l 1,20,-1
 100 -200 l 1,21,-1
 100 -100 l 1,22,-1
 300 -100 l 1,23,-1
 300 0 l 1,24,-1
 200 0 l 1,25,-1
 200 100 l 1,26,-1
 100 100 l 1,27,-1
 100 500 l 1,0,-1
EndSplineSet
Validated: 5
EndChar

StartChar: Egrave
Encoding: 200 200 155
Width: 800
Flags: W
LayerCount: 2
Fore
SplineSet
100 600 m 1,0,-1
 700 600 l 1,1,-1
 700 500 l 1,2,-1
 200 500 l 1,3,-1
 200 400 l 1,4,-1
 600 400 l 1,5,-1
 600 300 l 1,6,-1
 200 300 l 1,7,-1
 200 100 l 1,8,-1
 700 100 l 1,9,-1
 700 0 l 1,10,-1
 100 0 l 1,11,-1
 100 600 l 1,0,-1
200 900 m 1,12,-1
 300 900 l 1,13,-1
 300 800 l 1,14,-1
 400 800 l 1,15,-1
 400 700 l 1,16,-1
 300 700 l 1,17,-1
 300 800 l 1,18,-1
 200 800 l 1,19,-1
 200 900 l 1,12,-1
EndSplineSet
Validated: 5
EndChar

StartChar: Eacute
Encoding: 201 201 156
Width: 800
Flags: W
LayerCount: 2
Fore
SplineSet
100 600 m 1,0,-1
 700 600 l 1,1,-1
 700 500 l 1,2,-1
 200 500 l 1,3,-1
 200 400 l 1,4,-1
 600 400 l 1,5,-1
 600 300 l 1,6,-1
 200 300 l 1,7,-1
 200 100 l 1,8,-1
 700 100 l 1,9,-1
 700 0 l 1,10,-1
 100 0 l 1,11,-1
 100 600 l 1,0,-1
400 800 m 1,12,-1
 500 800 l 1,13,-1
 500 900 l 1,14,-1
 600 900 l 1,15,-1
 600 800 l 1,16,-1
 500 800 l 1,17,-1
 500 700 l 1,18,-1
 400 700 l 1,19,-1
 400 800 l 1,12,-1
EndSplineSet
Validated: 5
EndChar

StartChar: Ecircumflex
Encoding: 202 202 157
Width: 800
Flags: W
LayerCount: 2
Fore
SplineSet
100 600 m 1,0,-1
 700 600 l 1,1,-1
 700 500 l 1,2,-1
 200 500 l 1,3,-1
 200 400 l 1,4,-1
 600 400 l 1,5,-1
 600 300 l 1,6,-1
 200 300 l 1,7,-1
 200 100 l 1,8,-1
 700 100 l 1,9,-1
 700 0 l 1,10,-1
 100 0 l 1,11,-1
 100 600 l 1,0,-1
500 800 m 1,12,-1
 300 800 l 1,13,-1
 300 700 l 1,14,-1
 200 700 l 1,15,-1
 200 800 l 1,16,-1
 300 800 l 1,17,-1
 300 900 l 1,18,-1
 500 900 l 1,19,-1
 500 800 l 1,20,-1
 600 800 l 1,21,-1
 600 700 l 1,22,-1
 500 700 l 1,23,-1
 500 800 l 1,12,-1
EndSplineSet
Validated: 5
EndChar

StartChar: Edieresis
Encoding: 203 203 158
Width: 800
Flags: W
LayerCount: 2
Fore
SplineSet
100 600 m 1,0,-1
 700 600 l 1,1,-1
 700 500 l 1,2,-1
 200 500 l 1,3,-1
 200 400 l 1,4,-1
 600 400 l 1,5,-1
 600 300 l 1,6,-1
 200 300 l 1,7,-1
 200 100 l 1,8,-1
 700 100 l 1,9,-1
 700 0 l 1,10,-1
 100 0 l 1,11,-1
 100 600 l 1,0,-1
200 800 m 1,12,-1
 300 800 l 1,13,-1
 300 700 l 1,14,-1
 200 700 l 1,15,-1
 200 800 l 1,12,-1
500 800 m 1,16,-1
 600 800 l 1,17,-1
 600 700 l 1,18,-1
 500 700 l 1,19,-1
 500 800 l 1,16,-1
EndSplineSet
Validated: 1
EndChar

StartChar: Igrave
Encoding: 204 204 159
Width: 800
Flags: W
LayerCount: 2
Fore
SplineSet
200 100 m 1,0,-1
 400 100 l 1,1,-1
 400 500 l 1,2,-1
 200 500 l 1,3,-1
 200 600 l 1,4,-1
 700 600 l 1,5,-1
 700 500 l 1,6,-1
 500 500 l 1,7,-1
 500 100 l 1,8,-1
 700 100 l 1,9,-1
 700 0 l 1,10,-1
 200 0 l 1,11,-1
 200 100 l 1,0,-1
300 900 m 1,12,-1
 400 900 l 1,13,-1
 400 800 l 1,14,-1
 500 800 l 1,15,-1
 500 700 l 1,16,-1
 400 700 l 1,17,-1
 400 800 l 1,18,-1
 300 800 l 1,19,-1
 300 900 l 1,12,-1
EndSplineSet
Validated: 5
EndChar

StartChar: Iacute
Encoding: 205 205 160
Width: 800
Flags: W
LayerCount: 2
Fore
SplineSet
200 600 m 1,0,-1
 700 600 l 1,1,-1
 700 500 l 1,2,-1
 500 500 l 1,3,-1
 500 100 l 1,4,-1
 700 100 l 1,5,-1
 700 0 l 1,6,-1
 200 0 l 1,7,-1
 200 100 l 1,8,-1
 400 100 l 1,9,-1
 400 500 l 1,10,-1
 200 500 l 1,11,-1
 200 600 l 1,0,-1
400 800 m 1,12,-1
 500 800 l 1,13,-1
 500 900 l 1,14,-1
 600 900 l 1,15,-1
 600 800 l 1,16,-1
 500 800 l 1,17,-1
 500 700 l 1,18,-1
 400 700 l 1,19,-1
 400 800 l 1,12,-1
EndSplineSet
Validated: 5
EndChar

StartChar: Icircumflex
Encoding: 206 206 161
Width: 800
Flags: W
LayerCount: 2
Fore
SplineSet
200 600 m 1,0,-1
 700 600 l 1,1,-1
 700 500 l 1,2,-1
 500 500 l 1,3,-1
 500 100 l 1,4,-1
 700 100 l 1,5,-1
 700 0 l 1,6,-1
 200 0 l 1,7,-1
 200 100 l 1,8,-1
 400 100 l 1,9,-1
 400 500 l 1,10,-1
 200 500 l 1,11,-1
 200 600 l 1,0,-1
200 800 m 1,12,-1
 300 800 l 1,13,-1
 300 900 l 1,14,-1
 400 900 l 1,15,-1
 400 800 l 1,16,-1
 300 800 l 1,17,-1
 300 700 l 1,18,-1
 200 700 l 1,19,-1
 200 800 l 1,12,-1
500 900 m 1,20,-1
 600 900 l 1,21,-1
 600 800 l 1,22,-1
 700 800 l 1,23,-1
 700 700 l 1,24,-1
 600 700 l 1,25,-1
 600 800 l 1,26,-1
 500 800 l 1,27,-1
 500 900 l 1,20,-1
EndSplineSet
Validated: 5
EndChar

StartChar: Idieresis
Encoding: 207 207 162
Width: 800
Flags: W
LayerCount: 2
Fore
SplineSet
200 100 m 1,0,-1
 400 100 l 1,1,-1
 400 500 l 1,2,-1
 200 500 l 1,3,-1
 200 600 l 1,4,-1
 700 600 l 1,5,-1
 700 500 l 1,6,-1
 500 500 l 1,7,-1
 500 100 l 1,8,-1
 700 100 l 1,9,-1
 700 0 l 1,10,-1
 200 0 l 1,11,-1
 200 100 l 1,0,-1
500 800 m 1,12,-1
 600 800 l 1,13,-1
 600 700 l 1,14,-1
 500 700 l 1,15,-1
 500 800 l 1,12,-1
300 800 m 1,16,-1
 400 800 l 1,17,-1
 400 700 l 1,18,-1
 300 700 l 1,19,-1
 300 800 l 1,16,-1
EndSplineSet
Validated: 1
EndChar

StartChar: Eth
Encoding: 208 208 163
Width: 800
Flags: W
LayerCount: 2
Fore
SplineSet
100 400 m 1,0,-1
 200 400 l 1,1,-1
 200 600 l 1,2,-1
 500 600 l 1,3,-1
 500 500 l 1,4,-1
 600 500 l 1,5,-1
 600 400 l 1,6,-1
 700 400 l 1,7,-1
 700 200 l 1,8,-1
 600 200 l 1,9,-1
 600 100 l 1,10,-1
 500 100 l 1,11,-1
 500 0 l 1,12,-1
 200 0 l 1,13,-1
 200 300 l 1,14,-1
 100 300 l 1,15,-1
 100 400 l 1,0,-1
500 500 m 1,16,-1
 300 500 l 1,17,-1
 300 400 l 1,18,-1
 400 400 l 1,19,-1
 400 300 l 1,20,-1
 300 300 l 1,21,-1
 300 100 l 1,22,-1
 500 100 l 1,23,-1
 500 200 l 1,24,-1
 600 200 l 1,25,-1
 600 400 l 1,26,-1
 500 400 l 1,27,-1
 500 500 l 1,16,-1
EndSplineSet
Validated: 5
EndChar

StartChar: Ntilde
Encoding: 209 209 164
Width: 800
Flags: W
LayerCount: 2
Fore
SplineSet
100 600 m 1,0,-1
 200 600 l 1,1,-1
 200 500 l 1,2,-1
 300 500 l 1,3,-1
 300 400 l 1,4,-1
 400 400 l 1,5,-1
 400 300 l 1,6,-1
 500 300 l 1,7,-1
 500 200 l 1,8,-1
 600 200 l 1,9,-1
 600 600 l 1,10,-1
 700 600 l 1,11,-1
 700 0 l 1,12,-1
 600 0 l 1,13,-1
 600 100 l 1,14,-1
 500 100 l 1,15,-1
 500 200 l 1,16,-1
 400 200 l 1,17,-1
 400 300 l 1,18,-1
 300 300 l 1,19,-1
 300 400 l 1,20,-1
 200 400 l 1,21,-1
 200 0 l 1,22,-1
 100 0 l 1,23,-1
 100 600 l 1,0,-1
200 800 m 1,24,-1
 300 800 l 1,25,-1
 300 900 l 1,26,-1
 400 900 l 1,27,-1
 400 800 l 1,28,-1
 500 800 l 1,29,-1
 500 900 l 1,30,-1
 600 900 l 1,31,-1
 600 800 l 1,32,-1
 500 800 l 1,33,-1
 500 700 l 1,34,-1
 400 700 l 1,35,-1
 400 800 l 1,36,-1
 300 800 l 1,37,-1
 300 700 l 1,38,-1
 200 700 l 1,39,-1
 200 800 l 1,24,-1
EndSplineSet
Validated: 5
EndChar

StartChar: Ograve
Encoding: 210 210 165
Width: 800
Flags: W
LayerCount: 2
Fore
SplineSet
100 500 m 1,0,-1
 200 500 l 1,1,-1
 200 600 l 1,2,-1
 600 600 l 1,3,-1
 600 500 l 1,4,-1
 700 500 l 1,5,-1
 700 100 l 1,6,-1
 600 100 l 1,7,-1
 600 0 l 1,8,-1
 200 0 l 1,9,-1
 200 100 l 1,10,-1
 100 100 l 1,11,-1
 100 500 l 1,0,-1
200 100 m 1,12,-1
 600 100 l 1,13,-1
 600 500 l 1,14,-1
 200 500 l 1,15,-1
 200 100 l 1,12,-1
200 900 m 1,16,-1
 300 900 l 1,17,-1
 300 800 l 1,18,-1
 400 800 l 1,19,-1
 400 700 l 1,20,-1
 300 700 l 1,21,-1
 300 800 l 1,22,-1
 200 800 l 1,23,-1
 200 900 l 1,16,-1
EndSplineSet
Validated: 5
EndChar

StartChar: Oacute
Encoding: 211 211 166
Width: 800
Flags: W
LayerCount: 2
Fore
SplineSet
100 500 m 1,0,-1
 200 500 l 1,1,-1
 200 600 l 1,2,-1
 600 600 l 1,3,-1
 600 500 l 1,4,-1
 700 500 l 1,5,-1
 700 100 l 1,6,-1
 600 100 l 1,7,-1
 600 0 l 1,8,-1
 200 0 l 1,9,-1
 200 100 l 1,10,-1
 100 100 l 1,11,-1
 100 500 l 1,0,-1
200 100 m 1,12,-1
 600 100 l 1,13,-1
 600 500 l 1,14,-1
 200 500 l 1,15,-1
 200 100 l 1,12,-1
400 800 m 1,16,-1
 500 800 l 1,17,-1
 500 900 l 1,18,-1
 600 900 l 1,19,-1
 600 800 l 1,20,-1
 500 800 l 1,21,-1
 500 700 l 1,22,-1
 400 700 l 1,23,-1
 400 800 l 1,16,-1
EndSplineSet
Validated: 5
EndChar

StartChar: Ocircumflex
Encoding: 212 212 167
Width: 701
Flags: W
LayerCount: 2
Fore
SplineSet
1 500 m 1,0,-1
 101 500 l 1,1,-1
 101 600 l 1,2,-1
 501 600 l 1,3,-1
 501 500 l 1,4,-1
 601 500 l 1,5,-1
 601 100 l 1,6,-1
 501 100 l 1,7,-1
 501 0 l 1,8,-1
 101 0 l 1,9,-1
 101 100 l 1,10,-1
 1 100 l 1,11,-1
 1 500 l 1,0,-1
101 100 m 1,12,-1
 501 100 l 1,13,-1
 501 500 l 1,14,-1
 101 500 l 1,15,-1
 101 100 l 1,12,-1
101 800 m 1,16,-1
 201 800 l 1,17,-1
 201 900 l 1,18,-1
 401 900 l 1,19,-1
 401 800 l 1,20,-1
 501 800 l 1,21,-1
 501 700 l 1,22,-1
 401 700 l 1,23,-1
 401 800 l 1,24,-1
 201 800 l 1,25,-1
 201 700 l 1,26,-1
 101 700 l 1,27,-1
 101 800 l 1,16,-1
EndSplineSet
Validated: 5
EndChar

StartChar: Otilde
Encoding: 213 213 168
Width: 800
Flags: W
LayerCount: 2
Fore
SplineSet
100 500 m 1,0,-1
 200 500 l 1,1,-1
 200 600 l 1,2,-1
 600 600 l 1,3,-1
 600 500 l 1,4,-1
 700 500 l 1,5,-1
 700 100 l 1,6,-1
 600 100 l 1,7,-1
 600 0 l 1,8,-1
 200 0 l 1,9,-1
 200 100 l 1,10,-1
 100 100 l 1,11,-1
 100 500 l 1,0,-1
200 100 m 1,12,-1
 600 100 l 1,13,-1
 600 500 l 1,14,-1
 200 500 l 1,15,-1
 200 100 l 1,12,-1
200 800 m 1,16,-1
 300 800 l 1,17,-1
 300 900 l 1,18,-1
 400 900 l 1,19,-1
 400 800 l 1,20,-1
 500 800 l 1,21,-1
 500 900 l 1,22,-1
 600 900 l 1,23,-1
 600 800 l 1,24,-1
 500 800 l 1,25,-1
 500 700 l 1,26,-1
 400 700 l 1,27,-1
 400 800 l 1,28,-1
 300 800 l 1,29,-1
 300 700 l 1,30,-1
 200 700 l 1,31,-1
 200 800 l 1,16,-1
EndSplineSet
Validated: 5
EndChar

StartChar: Odieresis
Encoding: 214 214 169
Width: 700
Flags: W
LayerCount: 2
Fore
SplineSet
0 500 m 1,0,-1
 100 500 l 1,1,-1
 100 600 l 1,2,-1
 500 600 l 1,3,-1
 500 500 l 1,4,-1
 600 500 l 1,5,-1
 600 100 l 1,6,-1
 500 100 l 1,7,-1
 500 0 l 1,8,-1
 100 0 l 1,9,-1
 100 100 l 1,10,-1
 0 100 l 1,11,-1
 0 500 l 1,0,-1
100 100 m 1,12,-1
 500 100 l 1,13,-1
 500 500 l 1,14,-1
 100 500 l 1,15,-1
 100 100 l 1,12,-1
400 800 m 1,16,-1
 500 800 l 1,17,-1
 500 700 l 1,18,-1
 400 700 l 1,19,-1
 400 800 l 1,16,-1
100 800 m 1,20,-1
 200 800 l 1,21,-1
 200 700 l 1,22,-1
 100 700 l 1,23,-1
 100 800 l 1,20,-1
EndSplineSet
Validated: 5
EndChar

StartChar: multiply
Encoding: 215 215 170
Width: 800
Flags: W
LayerCount: 2
Fore
SplineSet
300 400 m 1,0,-1
 400 400 l 1,1,-1
 400 300 l 1,2,-1
 500 300 l 1,3,-1
 500 400 l 1,4,-1
 600 400 l 1,5,-1
 600 300 l 1,6,-1
 500 300 l 1,7,-1
 500 200 l 1,8,-1
 600 200 l 1,9,-1
 600 100 l 1,10,-1
 500 100 l 1,11,-1
 500 200 l 1,12,-1
 400 200 l 1,13,-1
 400 100 l 1,14,-1
 300 100 l 1,15,-1
 300 200 l 1,16,-1
 400 200 l 1,17,-1
 400 300 l 1,18,-1
 300 300 l 1,19,-1
 300 400 l 1,0,-1
EndSplineSet
Validated: 5
EndChar

StartChar: Oslash
Encoding: 216 216 171
Width: 800
Flags: W
LayerCount: 2
Fore
SplineSet
100 500 m 1,0,-1
 200 500 l 1,1,-1
 200 200 l 1,2,-1
 300 200 l 1,3,-1
 300 100 l 1,4,-1
 600 100 l 1,5,-1
 600 0 l 1,6,-1
 100 0 l 1,7,-1
 100 500 l 1,0,-1
200 600 m 1,8,-1
 700 600 l 1,9,-1
 700 100 l 1,10,-1
 600 100 l 1,11,-1
 600 400 l 1,12,-1
 500 400 l 1,13,-1
 500 500 l 1,14,-1
 200 500 l 1,15,-1
 200 600 l 1,8,-1
400 300 m 1,16,-1
 400 400 l 1,17,-1
 500 400 l 1,18,-1
 500 300 l 1,19,-1
 400 300 l 1,16,-1
400 300 m 1,20,-1
 400 200 l 1,21,-1
 300 200 l 1,22,-1
 300 300 l 1,23,-1
 400 300 l 1,20,-1
EndSplineSet
Validated: 5
EndChar

StartChar: Ugrave
Encoding: 217 217 172
Width: 800
Flags: W
LayerCount: 2
Fore
SplineSet
100 600 m 1,0,-1
 200 600 l 1,1,-1
 200 100 l 1,2,-1
 600 100 l 1,3,-1
 600 600 l 1,4,-1
 700 600 l 1,5,-1
 700 100 l 1,6,-1
 600 100 l 1,7,-1
 600 0 l 1,8,-1
 200 0 l 1,9,-1
 200 100 l 1,10,-1
 100 100 l 1,11,-1
 100 600 l 1,0,-1
200 900 m 1,12,-1
 300 900 l 1,13,-1
 300 800 l 1,14,-1
 400 800 l 1,15,-1
 400 700 l 1,16,-1
 300 700 l 1,17,-1
 300 800 l 1,18,-1
 200 800 l 1,19,-1
 200 900 l 1,12,-1
EndSplineSet
Validated: 5
EndChar

StartChar: Uacute
Encoding: 218 218 173
Width: 800
Flags: W
LayerCount: 2
Fore
SplineSet
100 600 m 1,0,-1
 200 600 l 1,1,-1
 200 100 l 1,2,-1
 600 100 l 1,3,-1
 600 600 l 1,4,-1
 700 600 l 1,5,-1
 700 100 l 1,6,-1
 600 100 l 1,7,-1
 600 0 l 1,8,-1
 200 0 l 1,9,-1
 200 100 l 1,10,-1
 100 100 l 1,11,-1
 100 600 l 1,0,-1
400 800 m 1,12,-1
 500 800 l 1,13,-1
 500 900 l 1,14,-1
 600 900 l 1,15,-1
 600 800 l 1,16,-1
 500 800 l 1,17,-1
 500 700 l 1,18,-1
 400 700 l 1,19,-1
 400 800 l 1,12,-1
EndSplineSet
Validated: 5
EndChar

StartChar: Ucircumflex
Encoding: 219 219 174
Width: 800
Flags: W
LayerCount: 2
Fore
SplineSet
100 600 m 1,0,-1
 200 600 l 1,1,-1
 200 100 l 1,2,-1
 600 100 l 1,3,-1
 600 600 l 1,4,-1
 700 600 l 1,5,-1
 700 100 l 1,6,-1
 600 100 l 1,7,-1
 600 0 l 1,8,-1
 200 0 l 1,9,-1
 200 100 l 1,10,-1
 100 100 l 1,11,-1
 100 600 l 1,0,-1
500 800 m 1,12,-1
 300 800 l 1,13,-1
 300 700 l 1,14,-1
 200 700 l 1,15,-1
 200 800 l 1,16,-1
 300 800 l 1,17,-1
 300 900 l 1,18,-1
 500 900 l 1,19,-1
 500 800 l 1,20,-1
 600 800 l 1,21,-1
 600 700 l 1,22,-1
 500 700 l 1,23,-1
 500 800 l 1,12,-1
EndSplineSet
Validated: 5
EndChar

StartChar: Udieresis
Encoding: 220 220 175
Width: 800
Flags: W
LayerCount: 2
Fore
SplineSet
100 600 m 1,0,-1
 200 600 l 1,1,-1
 200 100 l 1,2,-1
 600 100 l 1,3,-1
 600 600 l 1,4,-1
 700 600 l 1,5,-1
 700 100 l 1,6,-1
 600 100 l 1,7,-1
 600 0 l 1,8,-1
 200 0 l 1,9,-1
 200 100 l 1,10,-1
 100 100 l 1,11,-1
 100 600 l 1,0,-1
200 800 m 1,12,-1
 300 800 l 1,13,-1
 300 700 l 1,14,-1
 200 700 l 1,15,-1
 200 800 l 1,12,-1
500 800 m 1,16,-1
 600 800 l 1,17,-1
 600 700 l 1,18,-1
 500 700 l 1,19,-1
 500 800 l 1,16,-1
EndSplineSet
Validated: 5
EndChar

StartChar: Yacute
Encoding: 221 221 176
Width: 800
Flags: W
LayerCount: 2
Fore
SplineSet
0 600 m 1,0,-1
 100 600 l 1,1,-1
 100 500 l 1,2,-1
 200 500 l 1,3,-1
 200 400 l 1,4,-1
 300 400 l 1,5,-1
 300 300 l 1,6,-1
 400 300 l 1,7,-1
 400 400 l 1,8,-1
 500 400 l 1,9,-1
 500 500 l 1,10,-1
 600 500 l 1,11,-1
 600 600 l 1,12,-1
 700 600 l 1,13,-1
 700 500 l 1,14,-1
 600 500 l 1,15,-1
 600 400 l 1,16,-1
 500 400 l 1,17,-1
 500 300 l 1,18,-1
 400 300 l 1,19,-1
 400 0 l 1,20,-1
 300 0 l 1,21,-1
 300 300 l 1,22,-1
 200 300 l 1,23,-1
 200 400 l 1,24,-1
 100 400 l 1,25,-1
 100 500 l 1,26,-1
 0 500 l 1,27,-1
 0 600 l 1,0,-1
300 800 m 1,28,-1
 400 800 l 1,29,-1
 400 900 l 1,30,-1
 500 900 l 1,31,-1
 500 800 l 1,32,-1
 400 800 l 1,33,-1
 400 700 l 1,34,-1
 300 700 l 1,35,-1
 300 800 l 1,28,-1
EndSplineSet
Validated: 5
EndChar

StartChar: Thorn
Encoding: 222 222 177
Width: 800
Flags: W
LayerCount: 2
Fore
SplineSet
100 600 m 1,0,-1
 200 600 l 1,1,-1
 200 500 l 1,2,-1
 600 500 l 1,3,-1
 600 400 l 1,4,-1
 700 400 l 1,5,-1
 700 200 l 1,6,-1
 600 200 l 1,7,-1
 600 100 l 1,8,-1
 200 100 l 1,9,-1
 200 0 l 1,10,-1
 100 0 l 1,11,-1
 100 600 l 1,0,-1
200 200 m 1,12,-1
 600 200 l 1,13,-1
 600 400 l 1,14,-1
 200 400 l 1,15,-1
 200 200 l 1,12,-1
EndSplineSet
Validated: 5
EndChar

StartChar: germandbls
Encoding: 223 223 178
Width: 800
Flags: W
LayerCount: 2
Fore
SplineSet
100 500 m 1,0,-1
 200 500 l 1,1,-1
 200 600 l 1,2,-1
 500 600 l 1,3,-1
 500 500 l 1,4,-1
 600 500 l 1,5,-1
 600 400 l 1,6,-1
 500 400 l 1,7,-1
 500 300 l 1,8,-1
 600 300 l 1,9,-1
 600 100 l 1,10,-1
 500 100 l 1,11,-1
 500 0 l 1,12,-1
 300 0 l 1,13,-1
 300 100 l 1,14,-1
 500 100 l 1,15,-1
 500 300 l 1,16,-1
 200 300 l 1,17,-1
 200 -100 l 1,18,-1
 100 -100 l 1,19,-1
 100 500 l 1,0,-1
200 400 m 1,20,-1
 500 400 l 1,21,-1
 500 500 l 1,22,-1
 200 500 l 1,23,-1
 200 400 l 1,20,-1
EndSplineSet
Validated: 5
EndChar

StartChar: agrave
Encoding: 224 224 179
Width: 800
Flags: W
LayerCount: 2
Fore
SplineSet
200 500 m 1,0,-1
 500 500 l 1,1,-1
 500 400 l 1,2,-1
 600 400 l 1,3,-1
 600 0 l 1,4,-1
 200 0 l 1,5,-1
 200 100 l 1,6,-1
 100 100 l 1,7,-1
 100 200 l 1,8,-1
 200 200 l 1,9,-1
 200 300 l 1,10,-1
 500 300 l 1,11,-1
 500 400 l 1,12,-1
 200 400 l 1,13,-1
 200 500 l 1,0,-1
200 100 m 1,14,-1
 500 100 l 1,15,-1
 500 200 l 1,16,-1
 200 200 l 1,17,-1
 200 100 l 1,14,-1
200 800 m 1,18,-1
 300 800 l 1,19,-1
 300 700 l 1,20,-1
 400 700 l 1,21,-1
 400 600 l 1,22,-1
 300 600 l 1,23,-1
 300 700 l 1,24,-1
 200 700 l 1,25,-1
 200 800 l 1,18,-1
EndSplineSet
Validated: 5
EndChar

StartChar: aacute
Encoding: 225 225 180
Width: 800
Flags: W
LayerCount: 2
Fore
SplineSet
200 500 m 1,0,-1
 500 500 l 1,1,-1
 500 400 l 1,2,-1
 600 400 l 1,3,-1
 600 0 l 1,4,-1
 200 0 l 1,5,-1
 200 100 l 1,6,-1
 100 100 l 1,7,-1
 100 200 l 1,8,-1
 200 200 l 1,9,-1
 200 300 l 1,10,-1
 500 300 l 1,11,-1
 500 400 l 1,12,-1
 200 400 l 1,13,-1
 200 500 l 1,0,-1
200 100 m 1,14,-1
 500 100 l 1,15,-1
 500 200 l 1,16,-1
 200 200 l 1,17,-1
 200 100 l 1,14,-1
300 700 m 1,18,-1
 400 700 l 1,19,-1
 400 800 l 1,20,-1
 500 800 l 1,21,-1
 500 700 l 1,22,-1
 400 700 l 1,23,-1
 400 600 l 1,24,-1
 300 600 l 1,25,-1
 300 700 l 1,18,-1
EndSplineSet
Validated: 5
EndChar

StartChar: acircumflex
Encoding: 226 226 181
Width: 800
Flags: W
LayerCount: 2
Fore
SplineSet
200 500 m 1,0,-1
 500 500 l 1,1,-1
 500 400 l 1,2,-1
 600 400 l 1,3,-1
 600 0 l 1,4,-1
 200 0 l 1,5,-1
 200 100 l 1,6,-1
 100 100 l 1,7,-1
 100 200 l 1,8,-1
 200 200 l 1,9,-1
 200 300 l 1,10,-1
 500 300 l 1,11,-1
 500 400 l 1,12,-1
 200 400 l 1,13,-1
 200 500 l 1,0,-1
200 700 m 1,14,-1
 300 700 l 1,15,-1
 300 800 l 1,16,-1
 400 800 l 1,17,-1
 400 700 l 1,18,-1
 500 700 l 1,19,-1
 500 600 l 1,20,-1
 400 600 l 1,21,-1
 400 700 l 1,22,-1
 300 700 l 1,23,-1
 300 600 l 1,24,-1
 200 600 l 1,25,-1
 200 700 l 1,14,-1
200 100 m 1,26,-1
 500 100 l 1,27,-1
 500 200 l 1,28,-1
 200 200 l 1,29,-1
 200 100 l 1,26,-1
EndSplineSet
Validated: 5
EndChar

StartChar: atilde
Encoding: 227 227 182
Width: 800
Flags: W
LayerCount: 2
Fore
SplineSet
200 500 m 1,0,-1
 500 500 l 1,1,-1
 500 400 l 1,2,-1
 600 400 l 1,3,-1
 600 0 l 1,4,-1
 200 0 l 1,5,-1
 200 100 l 1,6,-1
 100 100 l 1,7,-1
 100 200 l 1,8,-1
 200 200 l 1,9,-1
 200 300 l 1,10,-1
 500 300 l 1,11,-1
 500 400 l 1,12,-1
 200 400 l 1,13,-1
 200 500 l 1,0,-1
200 700 m 1,14,-1
 300 700 l 1,15,-1
 300 800 l 1,16,-1
 400 800 l 1,17,-1
 400 700 l 1,18,-1
 500 700 l 1,19,-1
 500 800 l 1,20,-1
 600 800 l 1,21,-1
 600 700 l 1,22,-1
 500 700 l 1,23,-1
 500 600 l 1,24,-1
 400 600 l 1,25,-1
 400 700 l 1,26,-1
 300 700 l 1,27,-1
 300 600 l 1,28,-1
 200 600 l 1,29,-1
 200 700 l 1,14,-1
200 100 m 1,30,-1
 500 100 l 1,31,-1
 500 200 l 1,32,-1
 200 200 l 1,33,-1
 200 100 l 1,30,-1
EndSplineSet
Validated: 5
EndChar

StartChar: adieresis
Encoding: 228 228 183
Width: 604
Flags: W
LayerCount: 2
Fore
SplineSet
98 500 m 1,0,-1
 398 500 l 1,1,-1
 398 400 l 1,2,-1
 498 400 l 1,3,-1
 498 0 l 1,4,-1
 98 0 l 1,5,-1
 98 100 l 1,6,-1
 -2 100 l 1,7,-1
 -2 200 l 1,8,-1
 98 200 l 1,9,-1
 98 300 l 1,10,-1
 398 300 l 1,11,-1
 398 400 l 1,12,-1
 98 400 l 1,13,-1
 98 500 l 1,0,-1
98 100 m 1,14,-1
 398 100 l 1,15,-1
 398 200 l 1,16,-1
 98 200 l 1,17,-1
 98 100 l 1,14,-1
98 700 m 1,18,-1
 198 700 l 1,19,-1
 198 600 l 1,20,-1
 98 600 l 1,21,-1
 98 700 l 1,18,-1
298 700 m 1,22,-1
 398 700 l 1,23,-1
 398 600 l 1,24,-1
 298 600 l 1,25,-1
 298 700 l 1,22,-1
EndSplineSet
Validated: 5
EndChar

StartChar: aring
Encoding: 229 229 184
Width: 800
Flags: W
LayerCount: 2
Fore
SplineSet
200 500 m 1,0,-1
 500 500 l 1,1,-1
 500 400 l 1,2,-1
 600 400 l 1,3,-1
 600 0 l 1,4,-1
 200 0 l 1,5,-1
 200 100 l 1,6,-1
 100 100 l 1,7,-1
 100 200 l 1,8,-1
 200 200 l 1,9,-1
 200 300 l 1,10,-1
 500 300 l 1,11,-1
 500 400 l 1,12,-1
 200 400 l 1,13,-1
 200 500 l 1,0,-1
200 800 m 1,14,-1
 300 800 l 1,15,-1
 300 900 l 1,16,-1
 400 900 l 1,17,-1
 400 800 l 1,18,-1
 500 800 l 1,19,-1
 500 700 l 1,20,-1
 400 700 l 1,21,-1
 400 600 l 1,22,-1
 300 600 l 1,23,-1
 300 700 l 1,24,-1
 200 700 l 1,25,-1
 200 800 l 1,14,-1
200 100 m 1,26,-1
 500 100 l 1,27,-1
 500 200 l 1,28,-1
 200 200 l 1,29,-1
 200 100 l 1,26,-1
300 700 m 1,30,-1
 400 700 l 1,31,-1
 400 800 l 1,32,-1
 300 800 l 1,33,-1
 300 700 l 1,30,-1
EndSplineSet
Validated: 5
EndChar

StartChar: ae
Encoding: 230 230 185
Width: 800
Flags: W
LayerCount: 2
Fore
SplineSet
100 500 m 1,0,-1
 300 500 l 1,1,-1
 300 400 l 1,2,-1
 400 400 l 1,3,-1
 400 500 l 1,4,-1
 600 500 l 1,5,-1
 600 400 l 1,6,-1
 700 400 l 1,7,-1
 700 300 l 1,8,-1
 600 300 l 1,9,-1
 600 200 l 1,10,-1
 400 200 l 1,11,-1
 400 100 l 1,12,-1
 600 100 l 1,13,-1
 600 0 l 1,14,-1
 400 0 l 1,15,-1
 400 100 l 1,16,-1
 300 100 l 1,17,-1
 300 0 l 1,18,-1
 100 0 l 1,19,-1
 100 100 l 1,20,-1
 0 100 l 1,21,-1
 0 200 l 1,22,-1
 100 200 l 1,23,-1
 100 300 l 1,24,-1
 300 300 l 1,25,-1
 300 400 l 1,26,-1
 100 400 l 1,27,-1
 100 500 l 1,0,-1
100 100 m 1,28,-1
 300 100 l 1,29,-1
 300 200 l 1,30,-1
 100 200 l 1,31,-1
 100 100 l 1,28,-1
400 300 m 1,32,-1
 600 300 l 1,33,-1
 600 400 l 1,34,-1
 400 400 l 1,35,-1
 400 300 l 1,32,-1
EndSplineSet
Validated: 5
EndChar

StartChar: ccedilla
Encoding: 231 231 186
Width: 800
Flags: W
LayerCount: 2
Fore
SplineSet
100 400 m 1,0,-1
 200 400 l 1,1,-1
 200 500 l 1,2,-1
 600 500 l 1,3,-1
 600 400 l 1,4,-1
 200 400 l 1,5,-1
 200 100 l 1,6,-1
 600 100 l 1,7,-1
 600 0 l 1,8,-1
 400 0 l 1,9,-1
 400 -100 l 1,10,-1
 300 -100 l 1,11,-1
 300 -200 l 1,12,-1
 100 -200 l 1,13,-1
 100 -100 l 1,14,-1
 300 -100 l 1,15,-1
 300 0 l 1,16,-1
 200 0 l 1,17,-1
 200 100 l 1,18,-1
 100 100 l 1,19,-1
 100 400 l 1,0,-1
EndSplineSet
Validated: 5
EndChar

StartChar: egrave
Encoding: 232 232 187
Width: 800
Flags: W
LayerCount: 2
Fore
SplineSet
100 400 m 1,0,-1
 200 400 l 1,1,-1
 200 500 l 1,2,-1
 500 500 l 1,3,-1
 500 400 l 1,4,-1
 600 400 l 1,5,-1
 600 300 l 1,6,-1
 500 300 l 1,7,-1
 500 200 l 1,8,-1
 200 200 l 1,9,-1
 200 100 l 1,10,-1
 600 100 l 1,11,-1
 600 0 l 1,12,-1
 200 0 l 1,13,-1
 200 100 l 1,14,-1
 100 100 l 1,15,-1
 100 400 l 1,0,-1
200 300 m 1,16,-1
 500 300 l 1,17,-1
 500 400 l 1,18,-1
 200 400 l 1,19,-1
 200 300 l 1,16,-1
200 800 m 1,20,-1
 300 800 l 1,21,-1
 300 700 l 1,22,-1
 400 700 l 1,23,-1
 400 600 l 1,24,-1
 300 600 l 1,25,-1
 300 700 l 1,26,-1
 200 700 l 1,27,-1
 200 800 l 1,20,-1
EndSplineSet
Validated: 5
EndChar

StartChar: eacute
Encoding: 233 233 188
Width: 800
Flags: W
LayerCount: 2
Fore
SplineSet
100 400 m 1,0,-1
 200 400 l 1,1,-1
 200 500 l 1,2,-1
 500 500 l 1,3,-1
 500 400 l 1,4,-1
 600 400 l 1,5,-1
 600 300 l 1,6,-1
 500 300 l 1,7,-1
 500 200 l 1,8,-1
 200 200 l 1,9,-1
 200 100 l 1,10,-1
 600 100 l 1,11,-1
 600 0 l 1,12,-1
 200 0 l 1,13,-1
 200 100 l 1,14,-1
 100 100 l 1,15,-1
 100 400 l 1,0,-1
200 300 m 1,16,-1
 500 300 l 1,17,-1
 500 400 l 1,18,-1
 200 400 l 1,19,-1
 200 300 l 1,16,-1
300 700 m 1,20,-1
 400 700 l 1,21,-1
 400 800 l 1,22,-1
 500 800 l 1,23,-1
 500 700 l 1,24,-1
 400 700 l 1,25,-1
 400 600 l 1,26,-1
 300 600 l 1,27,-1
 300 700 l 1,20,-1
EndSplineSet
Validated: 5
EndChar

StartChar: ecircumflex
Encoding: 234 234 189
Width: 800
Flags: W
LayerCount: 2
Fore
SplineSet
100 400 m 1,0,-1
 200 400 l 1,1,-1
 200 500 l 1,2,-1
 500 500 l 1,3,-1
 500 400 l 1,4,-1
 600 400 l 1,5,-1
 600 300 l 1,6,-1
 500 300 l 1,7,-1
 500 200 l 1,8,-1
 200 200 l 1,9,-1
 200 100 l 1,10,-1
 600 100 l 1,11,-1
 600 0 l 1,12,-1
 200 0 l 1,13,-1
 200 100 l 1,14,-1
 100 100 l 1,15,-1
 100 400 l 1,0,-1
200 700 m 1,16,-1
 300 700 l 1,17,-1
 300 800 l 1,18,-1
 400 800 l 1,19,-1
 400 700 l 1,20,-1
 500 700 l 1,21,-1
 500 600 l 1,22,-1
 400 600 l 1,23,-1
 400 700 l 1,24,-1
 300 700 l 1,25,-1
 300 600 l 1,26,-1
 200 600 l 1,27,-1
 200 700 l 1,16,-1
200 300 m 1,28,-1
 500 300 l 1,29,-1
 500 400 l 1,30,-1
 200 400 l 1,31,-1
 200 300 l 1,28,-1
EndSplineSet
Validated: 5
EndChar

StartChar: edieresis
Encoding: 235 235 190
Width: 800
Flags: W
LayerCount: 2
Fore
SplineSet
100 400 m 1,0,-1
 200 400 l 1,1,-1
 200 500 l 1,2,-1
 500 500 l 1,3,-1
 500 400 l 1,4,-1
 600 400 l 1,5,-1
 600 300 l 1,6,-1
 500 300 l 1,7,-1
 500 200 l 1,8,-1
 200 200 l 1,9,-1
 200 100 l 1,10,-1
 600 100 l 1,11,-1
 600 0 l 1,12,-1
 200 0 l 1,13,-1
 200 100 l 1,14,-1
 100 100 l 1,15,-1
 100 400 l 1,0,-1
200 300 m 1,16,-1
 500 300 l 1,17,-1
 500 400 l 1,18,-1
 200 400 l 1,19,-1
 200 300 l 1,16,-1
400 700 m 1,20,-1
 500 700 l 1,21,-1
 500 600 l 1,22,-1
 400 600 l 1,23,-1
 400 700 l 1,20,-1
200 700 m 1,24,-1
 300 700 l 1,25,-1
 300 600 l 1,26,-1
 200 600 l 1,27,-1
 200 700 l 1,24,-1
EndSplineSet
Validated: 5
EndChar

StartChar: igrave
Encoding: 236 236 191
Width: 800
Flags: W
LayerCount: 2
Fore
SplineSet
200 400 m 1,0,-1
 500 400 l 1,1,-1
 500 300 l 1,2,-1
 400 300 l 1,3,-1
 400 100 l 1,4,-1
 500 100 l 1,5,-1
 500 0 l 1,6,-1
 200 0 l 1,7,-1
 200 100 l 1,8,-1
 300 100 l 1,9,-1
 300 300 l 1,10,-1
 200 300 l 1,11,-1
 200 400 l 1,0,-1
200 700 m 1,12,-1
 300 700 l 1,13,-1
 300 600 l 1,14,-1
 400 600 l 1,15,-1
 400 500 l 1,16,-1
 300 500 l 1,17,-1
 300 600 l 1,18,-1
 200 600 l 1,19,-1
 200 700 l 1,12,-1
EndSplineSet
Validated: 5
EndChar

StartChar: iacute
Encoding: 237 237 192
Width: 800
Flags: W
LayerCount: 2
Fore
SplineSet
200 400 m 1,0,-1
 500 400 l 1,1,-1
 500 300 l 1,2,-1
 400 300 l 1,3,-1
 400 100 l 1,4,-1
 500 100 l 1,5,-1
 500 0 l 1,6,-1
 200 0 l 1,7,-1
 200 100 l 1,8,-1
 300 100 l 1,9,-1
 300 300 l 1,10,-1
 200 300 l 1,11,-1
 200 400 l 1,0,-1
300 600 m 1,12,-1
 400 600 l 1,13,-1
 400 700 l 1,14,-1
 500 700 l 1,15,-1
 500 600 l 1,16,-1
 400 600 l 1,17,-1
 400 500 l 1,18,-1
 300 500 l 1,19,-1
 300 600 l 1,12,-1
EndSplineSet
Validated: 5
EndChar

StartChar: icircumflex
Encoding: 238 238 193
Width: 800
Flags: W
LayerCount: 2
Fore
SplineSet
200 400 m 1,0,-1
 500 400 l 1,1,-1
 500 300 l 1,2,-1
 400 300 l 1,3,-1
 400 100 l 1,4,-1
 500 100 l 1,5,-1
 500 0 l 1,6,-1
 200 0 l 1,7,-1
 200 100 l 1,8,-1
 300 100 l 1,9,-1
 300 300 l 1,10,-1
 200 300 l 1,11,-1
 200 400 l 1,0,-1
200 600 m 1,12,-1
 300 600 l 1,13,-1
 300 700 l 1,14,-1
 400 700 l 1,15,-1
 400 600 l 1,16,-1
 500 600 l 1,17,-1
 500 500 l 1,18,-1
 400 500 l 1,19,-1
 400 600 l 1,20,-1
 300 600 l 1,21,-1
 300 500 l 1,22,-1
 200 500 l 1,23,-1
 200 600 l 1,12,-1
EndSplineSet
Validated: 5
EndChar

StartChar: idieresis
Encoding: 239 239 194
Width: 800
Flags: W
LayerCount: 2
Fore
SplineSet
200 400 m 1,0,-1
 500 400 l 1,1,-1
 500 300 l 1,2,-1
 400 300 l 1,3,-1
 400 100 l 1,4,-1
 500 100 l 1,5,-1
 500 0 l 1,6,-1
 200 0 l 1,7,-1
 200 100 l 1,8,-1
 300 100 l 1,9,-1
 300 300 l 1,10,-1
 200 300 l 1,11,-1
 200 400 l 1,0,-1
200 600 m 1,12,-1
 300 600 l 1,13,-1
 300 500 l 1,14,-1
 200 500 l 1,15,-1
 200 600 l 1,12,-1
400 600 m 1,16,-1
 500 600 l 1,17,-1
 500 500 l 1,18,-1
 400 500 l 1,19,-1
 400 600 l 1,16,-1
EndSplineSet
Validated: 1
EndChar

StartChar: eth
Encoding: 240 240 195
Width: 800
Flags: W
LayerCount: 2
Fore
SplineSet
300 600 m 1,0,-1
 500 600 l 1,1,-1
 500 500 l 1,2,-1
 600 500 l 1,3,-1
 600 100 l 1,4,-1
 500 100 l 1,5,-1
 500 0 l 1,6,-1
 200 0 l 1,7,-1
 200 100 l 1,8,-1
 100 100 l 1,9,-1
 100 300 l 1,10,-1
 200 300 l 1,11,-1
 200 400 l 1,12,-1
 500 400 l 1,13,-1
 500 500 l 1,14,-1
 300 500 l 1,15,-1
 300 600 l 1,0,-1
200 100 m 1,16,-1
 500 100 l 1,17,-1
 500 300 l 1,18,-1
 200 300 l 1,19,-1
 200 100 l 1,16,-1
EndSplineSet
Validated: 5
EndChar

StartChar: ntilde
Encoding: 241 241 196
Width: 800
Flags: W
LayerCount: 2
Fore
SplineSet
100 500 m 1,0,-1
 500 500 l 1,1,-1
 500 400 l 1,2,-1
 600 400 l 1,3,-1
 600 0 l 1,4,-1
 500 0 l 1,5,-1
 500 400 l 1,6,-1
 200 400 l 1,7,-1
 200 0 l 1,8,-1
 100 0 l 1,9,-1
 100 500 l 1,0,-1
200 700 m 1,10,-1
 300 700 l 1,11,-1
 300 800 l 1,12,-1
 400 800 l 1,13,-1
 400 700 l 1,14,-1
 500 700 l 1,15,-1
 500 800 l 1,16,-1
 600 800 l 1,17,-1
 600 700 l 1,18,-1
 500 700 l 1,19,-1
 500 600 l 1,20,-1
 400 600 l 1,21,-1
 400 700 l 1,22,-1
 300 700 l 1,23,-1
 300 600 l 1,24,-1
 200 600 l 1,25,-1
 200 700 l 1,10,-1
EndSplineSet
Validated: 5
EndChar

StartChar: ograve
Encoding: 242 242 197
Width: 800
Flags: W
LayerCount: 2
Fore
SplineSet
100 400 m 1,0,-1
 200 400 l 1,1,-1
 200 500 l 1,2,-1
 500 500 l 1,3,-1
 500 400 l 1,4,-1
 600 400 l 1,5,-1
 600 100 l 1,6,-1
 500 100 l 1,7,-1
 500 0 l 1,8,-1
 200 0 l 1,9,-1
 200 100 l 1,10,-1
 100 100 l 1,11,-1
 100 400 l 1,0,-1
200 100 m 1,12,-1
 500 100 l 1,13,-1
 500 400 l 1,14,-1
 200 400 l 1,15,-1
 200 100 l 1,12,-1
400 600 m 1,16,-1
 300 600 l 1,17,-1
 300 700 l 1,18,-1
 200 700 l 1,19,-1
 200 800 l 1,20,-1
 300 800 l 1,21,-1
 300 700 l 1,22,-1
 400 700 l 1,23,-1
 400 600 l 1,16,-1
EndSplineSet
Validated: 5
EndChar

StartChar: oacute
Encoding: 243 243 198
Width: 800
Flags: W
LayerCount: 2
Fore
SplineSet
100 400 m 1,0,-1
 200 400 l 1,1,-1
 200 500 l 1,2,-1
 500 500 l 1,3,-1
 500 400 l 1,4,-1
 600 400 l 1,5,-1
 600 100 l 1,6,-1
 500 100 l 1,7,-1
 500 0 l 1,8,-1
 200 0 l 1,9,-1
 200 100 l 1,10,-1
 100 100 l 1,11,-1
 100 400 l 1,0,-1
200 100 m 1,12,-1
 500 100 l 1,13,-1
 500 400 l 1,14,-1
 200 400 l 1,15,-1
 200 100 l 1,12,-1
300 700 m 1,16,-1
 400 700 l 1,17,-1
 400 800 l 1,18,-1
 500 800 l 1,19,-1
 500 700 l 1,20,-1
 400 700 l 1,21,-1
 400 600 l 1,22,-1
 300 600 l 1,23,-1
 300 700 l 1,16,-1
EndSplineSet
Validated: 5
EndChar

StartChar: ocircumflex
Encoding: 244 244 199
Width: 800
Flags: W
LayerCount: 2
Fore
SplineSet
100 400 m 1,0,-1
 200 400 l 1,1,-1
 200 500 l 1,2,-1
 500 500 l 1,3,-1
 500 400 l 1,4,-1
 600 400 l 1,5,-1
 600 100 l 1,6,-1
 500 100 l 1,7,-1
 500 0 l 1,8,-1
 200 0 l 1,9,-1
 200 100 l 1,10,-1
 100 100 l 1,11,-1
 100 400 l 1,0,-1
200 100 m 1,12,-1
 500 100 l 1,13,-1
 500 400 l 1,14,-1
 200 400 l 1,15,-1
 200 100 l 1,12,-1
200 700 m 1,16,-1
 300 700 l 1,17,-1
 300 800 l 1,18,-1
 400 800 l 1,19,-1
 400 700 l 1,20,-1
 500 700 l 1,21,-1
 500 600 l 1,22,-1
 400 600 l 1,23,-1
 400 700 l 1,24,-1
 300 700 l 1,25,-1
 300 600 l 1,26,-1
 200 600 l 1,27,-1
 200 700 l 1,16,-1
EndSplineSet
Validated: 5
EndChar

StartChar: otilde
Encoding: 245 245 200
Width: 800
Flags: W
LayerCount: 2
Fore
SplineSet
100 400 m 1,0,-1
 200 400 l 1,1,-1
 200 500 l 1,2,-1
 500 500 l 1,3,-1
 500 400 l 1,4,-1
 600 400 l 1,5,-1
 600 100 l 1,6,-1
 500 100 l 1,7,-1
 500 0 l 1,8,-1
 200 0 l 1,9,-1
 200 100 l 1,10,-1
 100 100 l 1,11,-1
 100 400 l 1,0,-1
200 100 m 1,12,-1
 500 100 l 1,13,-1
 500 400 l 1,14,-1
 200 400 l 1,15,-1
 200 100 l 1,12,-1
200 700 m 1,16,-1
 300 700 l 1,17,-1
 300 800 l 1,18,-1
 400 800 l 1,19,-1
 400 700 l 1,20,-1
 500 700 l 1,21,-1
 500 800 l 1,22,-1
 600 800 l 1,23,-1
 600 700 l 1,24,-1
 500 700 l 1,25,-1
 500 600 l 1,26,-1
 400 600 l 1,27,-1
 400 700 l 1,28,-1
 300 700 l 1,29,-1
 300 600 l 1,30,-1
 200 600 l 1,31,-1
 200 700 l 1,16,-1
EndSplineSet
Validated: 5
EndChar

StartChar: odieresis
Encoding: 246 246 201
Width: 610
Flags: W
LayerCount: 2
Fore
SplineSet
0 400 m 1,0,-1
 100 400 l 1,1,-1
 100 500 l 1,2,-1
 400 500 l 1,3,-1
 400 400 l 1,4,-1
 500 400 l 1,5,-1
 500 100 l 1,6,-1
 400 100 l 1,7,-1
 400 0 l 1,8,-1
 100 0 l 1,9,-1
 100 100 l 1,10,-1
 0 100 l 1,11,-1
 0 400 l 1,0,-1
100 100 m 1,12,-1
 400 100 l 1,13,-1
 400 400 l 1,14,-1
 100 400 l 1,15,-1
 100 100 l 1,12,-1
300 700 m 1,16,-1
 400 700 l 1,17,-1
 400 600 l 1,18,-1
 300 600 l 1,19,-1
 300 700 l 1,16,-1
100 700 m 1,20,-1
 200 700 l 1,21,-1
 200 600 l 1,22,-1
 100 600 l 1,23,-1
 100 700 l 1,20,-1
EndSplineSet
Validated: 5
EndChar

StartChar: divide
Encoding: 247 247 202
Width: 800
Flags: W
LayerCount: 2
Fore
SplineSet
200 300 m 1,0,-1
 700 300 l 1,1,-1
 700 200 l 1,2,-1
 200 200 l 1,3,-1
 200 300 l 1,0,-1
400 100 m 1,4,-1
 500 100 l 1,5,-1
 500 0 l 1,6,-1
 400 0 l 1,7,-1
 400 100 l 1,4,-1
400 500 m 1,8,-1
 500 500 l 1,9,-1
 500 400 l 1,10,-1
 400 400 l 1,11,-1
 400 500 l 1,8,-1
EndSplineSet
Validated: 1
EndChar

StartChar: oslash
Encoding: 248 248 203
Width: 800
Flags: W
LayerCount: 2
Fore
SplineSet
100 400 m 1,0,-1
 200 400 l 1,1,-1
 200 200 l 1,2,-1
 300 200 l 1,3,-1
 300 100 l 1,4,-1
 500 100 l 1,5,-1
 500 0 l 1,6,-1
 100 0 l 1,7,-1
 100 400 l 1,0,-1
200 500 m 1,8,-1
 500 500 l 1,9,-1
 600 500 l 1,10,-1
 600 100 l 1,11,-1
 500 100 l 1,12,-1
 500 300 l 1,13,-1
 400 300 l 1,14,-1
 400 400 l 1,15,-1
 200 400 l 1,16,-1
 200 500 l 1,8,-1
300 200 m 1,17,-1
 300 300 l 1,18,-1
 400 300 l 1,19,-1
 400 200 l 1,20,-1
 300 200 l 1,17,-1
EndSplineSet
Validated: 5
EndChar

StartChar: ugrave
Encoding: 249 249 204
Width: 800
Flags: W
LayerCount: 2
Fore
SplineSet
100 500 m 1,0,-1
 200 500 l 1,1,-1
 200 100 l 1,2,-1
 500 100 l 1,3,-1
 500 500 l 1,4,-1
 600 500 l 1,5,-1
 600 100 l 1,6,-1
 500 100 l 1,7,-1
 500 0 l 1,8,-1
 200 0 l 1,9,-1
 200 100 l 1,10,-1
 100 100 l 1,11,-1
 100 500 l 1,0,-1
200 800 m 1,12,-1
 300 800 l 1,13,-1
 300 700 l 1,14,-1
 400 700 l 1,15,-1
 400 600 l 1,16,-1
 300 600 l 1,17,-1
 300 700 l 1,18,-1
 200 700 l 1,19,-1
 200 800 l 1,12,-1
EndSplineSet
Validated: 5
EndChar

StartChar: uacute
Encoding: 250 250 205
Width: 800
Flags: W
LayerCount: 2
Fore
SplineSet
100 500 m 1,0,-1
 200 500 l 1,1,-1
 200 100 l 1,2,-1
 500 100 l 1,3,-1
 500 500 l 1,4,-1
 600 500 l 1,5,-1
 600 100 l 1,6,-1
 500 100 l 1,7,-1
 500 0 l 1,8,-1
 200 0 l 1,9,-1
 200 100 l 1,10,-1
 100 100 l 1,11,-1
 100 500 l 1,0,-1
300 700 m 1,12,-1
 400 700 l 1,13,-1
 400 800 l 1,14,-1
 500 800 l 1,15,-1
 500 700 l 1,16,-1
 400 700 l 1,17,-1
 400 600 l 1,18,-1
 300 600 l 1,19,-1
 300 700 l 1,12,-1
EndSplineSet
Validated: 5
EndChar

StartChar: ucircumflex
Encoding: 251 251 206
Width: 800
Flags: W
LayerCount: 2
Fore
SplineSet
100 500 m 1,0,-1
 200 500 l 1,1,-1
 200 100 l 1,2,-1
 500 100 l 1,3,-1
 500 500 l 1,4,-1
 600 500 l 1,5,-1
 600 100 l 1,6,-1
 500 100 l 1,7,-1
 500 0 l 1,8,-1
 200 0 l 1,9,-1
 200 100 l 1,10,-1
 100 100 l 1,11,-1
 100 500 l 1,0,-1
200 700 m 1,12,-1
 300 700 l 1,13,-1
 300 800 l 1,14,-1
 400 800 l 1,15,-1
 400 700 l 1,16,-1
 500 700 l 1,17,-1
 500 600 l 1,18,-1
 400 600 l 1,19,-1
 400 700 l 1,20,-1
 300 700 l 1,21,-1
 300 600 l 1,22,-1
 200 600 l 1,23,-1
 200 700 l 1,12,-1
EndSplineSet
Validated: 5
EndChar

StartChar: udieresis
Encoding: 252 252 207
Width: 800
Flags: W
LayerCount: 2
Fore
SplineSet
100 500 m 1,0,-1
 200 500 l 1,1,-1
 200 100 l 1,2,-1
 500 100 l 1,3,-1
 500 500 l 1,4,-1
 600 500 l 1,5,-1
 600 100 l 1,6,-1
 500 100 l 1,7,-1
 500 0 l 1,8,-1
 200 0 l 1,9,-1
 200 100 l 1,10,-1
 100 100 l 1,11,-1
 100 500 l 1,0,-1
200 700 m 1,12,-1
 300 700 l 1,13,-1
 300 600 l 1,14,-1
 200 600 l 1,15,-1
 200 700 l 1,12,-1
400 700 m 1,16,-1
 500 700 l 1,17,-1
 500 600 l 1,18,-1
 400 600 l 1,19,-1
 400 700 l 1,16,-1
EndSplineSet
Validated: 5
EndChar

StartChar: yacute
Encoding: 253 253 208
Width: 800
Flags: W
LayerCount: 2
Fore
SplineSet
100 500 m 1,0,-1
 200 500 l 1,1,-1
 200 200 l 1,2,-1
 500 200 l 1,3,-1
 500 500 l 1,4,-1
 600 500 l 1,5,-1
 600 0 l 1,6,-1
 500 0 l 1,7,-1
 500 -100 l 1,8,-1
 200 -100 l 1,9,-1
 200 0 l 1,10,-1
 500 0 l 1,11,-1
 500 100 l 1,12,-1
 200 100 l 1,13,-1
 200 200 l 1,14,-1
 100 200 l 1,15,-1
 100 500 l 1,0,-1
300 700 m 1,16,-1
 400 700 l 1,17,-1
 400 800 l 1,18,-1
 500 800 l 1,19,-1
 500 700 l 1,20,-1
 400 700 l 1,21,-1
 400 600 l 1,22,-1
 300 600 l 1,23,-1
 300 700 l 1,16,-1
EndSplineSet
Validated: 5
EndChar

StartChar: thorn
Encoding: 254 254 209
Width: 800
Flags: W
LayerCount: 2
Fore
SplineSet
200 600 m 1,0,-1
 300 600 l 1,1,-1
 300 500 l 1,2,-1
 600 500 l 1,3,-1
 600 400 l 1,4,-1
 700 400 l 1,5,-1
 700 100 l 1,6,-1
 600 100 l 1,7,-1
 600 0 l 1,8,-1
 300 0 l 1,9,-1
 300 -100 l 1,10,-1
 200 -100 l 1,11,-1
 200 600 l 1,0,-1
300 100 m 1,12,-1
 600 100 l 1,13,-1
 600 400 l 1,14,-1
 300 400 l 1,15,-1
 300 100 l 1,12,-1
EndSplineSet
Validated: 5
EndChar

StartChar: ydieresis
Encoding: 255 255 210
Width: 800
Flags: W
LayerCount: 2
Fore
SplineSet
100 500 m 1,0,-1
 200 500 l 1,1,-1
 200 200 l 1,2,-1
 500 200 l 1,3,-1
 500 500 l 1,4,-1
 600 500 l 1,5,-1
 600 0 l 1,6,-1
 500 0 l 1,7,-1
 500 -100 l 1,8,-1
 200 -100 l 1,9,-1
 200 0 l 1,10,-1
 500 0 l 1,11,-1
 500 100 l 1,12,-1
 200 100 l 1,13,-1
 200 200 l 1,14,-1
 100 200 l 1,15,-1
 100 500 l 1,0,-1
200 700 m 1,16,-1
 300 700 l 1,17,-1
 300 600 l 1,18,-1
 200 600 l 1,19,-1
 200 700 l 1,16,-1
400 700 m 1,20,-1
 500 700 l 1,21,-1
 500 600 l 1,22,-1
 400 600 l 1,23,-1
 400 700 l 1,20,-1
EndSplineSet
Validated: 5
EndChar

StartChar: afii10023
Encoding: 1025 1025 213
Width: 800
Flags: W
LayerCount: 2
Fore
SplineSet
100 600 m 1,0,-1
 700 600 l 1,1,-1
 700 500 l 1,2,-1
 200 500 l 1,3,-1
 200 400 l 1,4,-1
 600 400 l 1,5,-1
 600 300 l 1,6,-1
 200 300 l 1,7,-1
 200 100 l 1,8,-1
 700 100 l 1,9,-1
 700 0 l 1,10,-1
 100 0 l 1,11,-1
 100 600 l 1,0,-1
200 800 m 1,12,-1
 300 800 l 1,13,-1
 300 700 l 1,14,-1
 200 700 l 1,15,-1
 200 800 l 1,12,-1
500 800 m 1,16,-1
 600 800 l 1,17,-1
 600 700 l 1,18,-1
 500 700 l 1,19,-1
 500 800 l 1,16,-1
EndSplineSet
Validated: 1
EndChar

StartChar: afii10051
Encoding: 1026 1026 214
Width: 800
Flags: W
LayerCount: 2
Fore
SplineSet
100 600 m 1,0,-1
 500 600 l 1,1,-1
 500 500 l 1,2,-1
 300 500 l 1,3,-1
 300 400 l 1,4,-1
 600 400 l 1,5,-1
 600 300 l 1,6,-1
 700 300 l 1,7,-1
 700 100 l 1,8,-1
 600 100 l 1,9,-1
 600 0 l 1,10,-1
 400 0 l 1,11,-1
 400 100 l 1,12,-1
 600 100 l 1,13,-1
 600 300 l 1,14,-1
 300 300 l 1,15,-1
 300 0 l 1,16,-1
 200 0 l 1,17,-1
 200 500 l 1,18,-1
 100 500 l 1,19,-1
 100 600 l 1,0,-1
EndSplineSet
Validated: 5
EndChar

StartChar: afii10052
Encoding: 1027 1027 215
Width: 800
Flags: W
LayerCount: 2
Fore
SplineSet
100 600 m 1,0,-1
 700 600 l 1,1,-1
 700 500 l 1,2,-1
 200 500 l 1,3,-1
 200 0 l 1,4,-1
 100 0 l 1,5,-1
 100 600 l 1,0,-1
400 800 m 1,6,-1
 500 800 l 1,7,-1
 500 900 l 1,8,-1
 600 900 l 1,9,-1
 600 800 l 1,10,-1
 500 800 l 1,11,-1
 500 700 l 1,12,-1
 400 700 l 1,13,-1
 400 800 l 1,6,-1
EndSplineSet
Validated: 5
EndChar

StartChar: afii10053
Encoding: 1028 1028 216
Width: 800
Flags: W
LayerCount: 2
Fore
SplineSet
100 500 m 1,0,-1
 200 500 l 1,1,-1
 200 600 l 1,2,-1
 600 600 l 1,3,-1
 600 500 l 1,4,-1
 700 500 l 1,5,-1
 700 400 l 1,6,-1
 600 400 l 1,7,-1
 600 500 l 1,8,-1
 200 500 l 1,9,-1
 200 400 l 1,10,-1
 400 400 l 1,11,-1
 400 300 l 1,12,-1
 200 300 l 1,13,-1
 200 100 l 1,14,-1
 600 100 l 1,15,-1
 600 200 l 1,16,-1
 700 200 l 1,17,-1
 700 100 l 1,18,-1
 600 100 l 1,19,-1
 600 0 l 1,20,-1
 200 0 l 1,21,-1
 200 100 l 1,22,-1
 100 100 l 1,23,-1
 100 500 l 1,0,-1
EndSplineSet
Validated: 5
EndChar

StartChar: afii10054
Encoding: 1029 1029 217
Width: 800
Flags: W
LayerCount: 2
Fore
SplineSet
100 500 m 1,0,-1
 200 500 l 1,1,-1
 200 600 l 1,2,-1
 600 600 l 1,3,-1
 600 500 l 1,4,-1
 200 500 l 1,5,-1
 200 400 l 1,6,-1
 600 400 l 1,7,-1
 600 300 l 1,8,-1
 700 300 l 1,9,-1
 700 100 l 1,10,-1
 600 100 l 1,11,-1
 600 0 l 1,12,-1
 200 0 l 1,13,-1
 200 100 l 1,14,-1
 100 100 l 1,15,-1
 100 200 l 1,16,-1
 200 200 l 1,17,-1
 200 100 l 1,18,-1
 600 100 l 1,19,-1
 600 300 l 1,20,-1
 200 300 l 1,21,-1
 200 400 l 1,22,-1
 100 400 l 1,23,-1
 100 500 l 1,0,-1
EndSplineSet
Validated: 5
EndChar

StartChar: afii10055
Encoding: 1030 1030 218
Width: 800
Flags: W
LayerCount: 2
Fore
SplineSet
200 600 m 1,0,-1
 700 600 l 1,1,-1
 700 500 l 1,2,-1
 500 500 l 1,3,-1
 500 100 l 1,4,-1
 700 100 l 1,5,-1
 700 0 l 1,6,-1
 200 0 l 1,7,-1
 200 100 l 1,8,-1
 400 100 l 1,9,-1
 400 500 l 1,10,-1
 200 500 l 1,11,-1
 200 600 l 1,0,-1
EndSplineSet
Validated: 1
EndChar

StartChar: afii10056
Encoding: 1031 1031 219
Width: 800
Flags: W
LayerCount: 2
Fore
SplineSet
200 100 m 1,0,-1
 400 100 l 1,1,-1
 400 500 l 1,2,-1
 200 500 l 1,3,-1
 200 600 l 1,4,-1
 700 600 l 1,5,-1
 700 500 l 1,6,-1
 500 500 l 1,7,-1
 500 100 l 1,8,-1
 700 100 l 1,9,-1
 700 0 l 1,10,-1
 200 0 l 1,11,-1
 200 100 l 1,0,-1
500 800 m 1,12,-1
 600 800 l 1,13,-1
 600 700 l 1,14,-1
 500 700 l 1,15,-1
 500 800 l 1,12,-1
300 800 m 1,16,-1
 400 800 l 1,17,-1
 400 700 l 1,18,-1
 300 700 l 1,19,-1
 300 800 l 1,16,-1
EndSplineSet
Validated: 1
EndChar

StartChar: afii10057
Encoding: 1032 1032 220
Width: 800
Flags: W
LayerCount: 2
Fore
SplineSet
100 300 m 1,0,-1
 200 300 l 1,1,-1
 200 100 l 1,2,-1
 600 100 l 1,3,-1
 600 600 l 1,4,-1
 700 600 l 1,5,-1
 700 100 l 1,6,-1
 600 100 l 1,7,-1
 600 0 l 1,8,-1
 200 0 l 1,9,-1
 200 100 l 1,10,-1
 100 100 l 1,11,-1
 100 300 l 1,0,-1
EndSplineSet
Validated: 5
EndChar

StartChar: afii10058
Encoding: 1033 1033 221
Width: 800
Flags: W
LayerCount: 2
Fore
SplineSet
100 100 m 1,0,-1
 200 100 l 1,1,-1
 200 700 l 1,2,-1
 500 700 l 1,3,-1
 500 400 l 1,4,-1
 600 400 l 1,5,-1
 600 300 l 1,6,-1
 700 300 l 1,7,-1
 700 100 l 1,8,-1
 600 100 l 1,9,-1
 600 0 l 1,10,-1
 400 0 l 1,11,-1
 400 600 l 1,12,-1
 300 600 l 1,13,-1
 300 0 l 1,14,-1
 100 0 l 1,15,-1
 100 100 l 1,0,-1
500 300 m 1,16,-1
 500 100 l 1,17,-1
 600 100 l 1,18,-1
 600 298 l 1,19,-1
 500 300 l 1,16,-1
EndSplineSet
Validated: 5
EndChar

StartChar: afii10059
Encoding: 1034 1034 222
Width: 800
Flags: W
LayerCount: 2
Fore
SplineSet
0 700 m 1,0,-1
 100 700 l 1,1,-1
 100 400 l 1,2,-1
 300 400 l 1,3,-1
 300 700 l 1,4,-1
 400 700 l 1,5,-1
 400 400 l 1,6,-1
 600 400 l 1,7,-1
 600 300 l 1,8,-1
 700 300 l 1,9,-1
 700 100 l 1,10,-1
 600 100 l 1,11,-1
 600 0 l 1,12,-1
 300 0 l 1,13,-1
 300 300 l 1,14,-1
 100 300 l 1,15,-1
 100 0 l 1,16,-1
 0 0 l 1,17,-1
 0 700 l 1,0,-1
400 100 m 1,18,-1
 600 100 l 1,19,-1
 600 300 l 1,20,-1
 400 300 l 1,21,-1
 400 100 l 1,18,-1
EndSplineSet
Validated: 5
EndChar

StartChar: afii10060
Encoding: 1035 1035 223
Width: 800
Flags: W
LayerCount: 2
Fore
SplineSet
100 600 m 1,0,-1
 500 600 l 1,1,-1
 500 500 l 1,2,-1
 300 500 l 1,3,-1
 300 400 l 1,4,-1
 600 400 l 1,5,-1
 600 300 l 1,6,-1
 700 300 l 1,7,-1
 700 0 l 1,8,-1
 600 0 l 1,9,-1
 600 300 l 1,10,-1
 300 300 l 1,11,-1
 300 0 l 1,12,-1
 200 0 l 1,13,-1
 200 500 l 1,14,-1
 100 500 l 1,15,-1
 100 600 l 1,0,-1
EndSplineSet
Validated: 5
EndChar

StartChar: afii10061
Encoding: 1036 1036 224
Width: 800
Flags: W
LayerCount: 2
Fore
SplineSet
100 600 m 1,0,-1
 200 600 l 1,1,-1
 200 400 l 1,2,-1
 400 400 l 1,3,-1
 400 500 l 1,4,-1
 500 500 l 1,5,-1
 500 600 l 1,6,-1
 600 600 l 1,7,-1
 600 500 l 1,8,-1
 500 500 l 1,9,-1
 500 400 l 1,10,-1
 400 400 l 1,11,-1
 400 300 l 1,12,-1
 500 300 l 1,13,-1
 500 200 l 1,14,-1
 600 200 l 1,15,-1
 600 100 l 1,16,-1
 700 100 l 1,17,-1
 700 0 l 1,18,-1
 600 0 l 1,19,-1
 600 100 l 1,20,-1
 500 100 l 1,21,-1
 500 200 l 1,22,-1
 400 200 l 1,23,-1
 400 300 l 1,24,-1
 200 300 l 1,25,-1
 200 0 l 1,26,-1
 100 0 l 1,27,-1
 100 600 l 1,0,-1
300 800 m 1,28,-1
 400 800 l 1,29,-1
 400 900 l 1,30,-1
 500 900 l 1,31,-1
 500 800 l 1,32,-1
 400 800 l 1,33,-1
 400 700 l 1,34,-1
 300 700 l 1,35,-1
 300 800 l 1,28,-1
EndSplineSet
Validated: 5
EndChar

StartChar: afii10062
Encoding: 1038 1038 225
Width: 800
Flags: W
LayerCount: 2
Fore
SplineSet
0 600 m 1,0,-1
 100 600 l 1,1,-1
 100 500 l 1,2,-1
 200 500 l 1,3,-1
 200 400 l 1,4,-1
 300 400 l 1,5,-1
 300 300 l 1,6,-1
 400 300 l 1,7,-1
 400 400 l 1,8,-1
 500 400 l 1,9,-1
 500 500 l 1,10,-1
 600 500 l 1,11,-1
 600 600 l 1,12,-1
 700 600 l 1,13,-1
 700 500 l 1,14,-1
 600 500 l 1,15,-1
 600 400 l 1,16,-1
 500 400 l 1,17,-1
 500 300 l 1,18,-1
 400 300 l 1,19,-1
 400 0 l 1,20,-1
 300 0 l 1,21,-1
 300 300 l 1,22,-1
 200 300 l 1,23,-1
 200 400 l 1,24,-1
 100 400 l 1,25,-1
 100 500 l 1,26,-1
 0 500 l 1,27,-1
 0 600 l 1,0,-1
200 900 m 1,28,-1
 300 900 l 1,29,-1
 300 800 l 1,30,-1
 400 800 l 1,31,-1
 400 900 l 1,32,-1
 500 900 l 1,33,-1
 500 800 l 1,34,-1
 400 800 l 1,35,-1
 400 700 l 1,36,-1
 300 700 l 1,37,-1
 300 800 l 1,38,-1
 200 800 l 1,39,-1
 200 900 l 1,28,-1
EndSplineSet
Validated: 5
EndChar

StartChar: afii10145
Encoding: 1039 1039 226
Width: 800
Flags: W
LayerCount: 2
Fore
SplineSet
100 600 m 1,0,-1
 200 600 l 1,1,-1
 200 100 l 1,2,-1
 500 100 l 1,3,-1
 500 600 l 1,4,-1
 600 600 l 1,5,-1
 600 0 l 1,6,-1
 400 0 l 1,7,-1
 400 -100 l 1,8,-1
 300 -100 l 1,9,-1
 300 0 l 1,10,-1
 100 0 l 1,11,-1
 100 600 l 1,0,-1
EndSplineSet
Validated: 1
EndChar

StartChar: afii10017
Encoding: 1040 1040 227
Width: 800
Flags: W
LayerCount: 2
Fore
SplineSet
100 500 m 1,0,-1
 200 500 l 1,1,-1
 200 600 l 1,2,-1
 600 600 l 1,3,-1
 600 500 l 1,4,-1
 700 500 l 1,5,-1
 700 0 l 1,6,-1
 600 0 l 1,7,-1
 600 200 l 1,8,-1
 200 200 l 1,9,-1
 200 0 l 1,10,-1
 100 0 l 1,11,-1
 100 500 l 1,0,-1
200 300 m 1,12,-1
 600 300 l 1,13,-1
 600 500 l 1,14,-1
 200 500 l 1,15,-1
 200 300 l 1,12,-1
EndSplineSet
Validated: 5
EndChar

StartChar: afii10018
Encoding: 1041 1041 228
Width: 800
Flags: W
LayerCount: 2
Fore
SplineSet
100 600 m 1,0,-1
 700 600 l 1,1,-1
 700 500 l 1,2,-1
 200 500 l 1,3,-1
 200 400 l 1,4,-1
 600 400 l 1,5,-1
 600 300 l 1,6,-1
 700 300 l 1,7,-1
 700 100 l 1,8,-1
 600 100 l 1,9,-1
 600 0 l 1,10,-1
 100 0 l 1,11,-1
 100 600 l 1,0,-1
200 300 m 1,12,-1
 200 100 l 1,13,-1
 600 100 l 1,14,-1
 600 298 l 1,15,-1
 200 300 l 1,12,-1
EndSplineSet
Validated: 5
EndChar

StartChar: afii10019
Encoding: 1042 1042 229
Width: 800
Flags: W
LayerCount: 2
Fore
SplineSet
100 600 m 1,0,-1
 600 600 l 1,1,-1
 600 500 l 1,2,-1
 700 500 l 1,3,-1
 700 400 l 1,4,-1
 600 400 l 1,5,-1
 600 300 l 1,6,-1
 700 300 l 1,7,-1
 700 100 l 1,8,-1
 600 100 l 1,9,-1
 600 0 l 1,10,-1
 100 0 l 1,11,-1
 100 600 l 1,0,-1
200 100 m 1,12,-1
 600 100 l 1,13,-1
 600 300 l 1,14,-1
 200 300 l 1,15,-1
 200 100 l 1,12,-1
200 400 m 1,16,-1
 600 400 l 1,17,-1
 600 500 l 1,18,-1
 200 500 l 1,19,-1
 200 400 l 1,16,-1
EndSplineSet
Validated: 5
EndChar

StartChar: afii10020
Encoding: 1043 1043 230
Width: 800
Flags: W
LayerCount: 2
Fore
SplineSet
100 600 m 1,0,-1
 700 600 l 1,1,-1
 700 500 l 1,2,-1
 200 500 l 1,3,-1
 200 0 l 1,4,-1
 100 0 l 1,5,-1
 100 600 l 1,0,-1
EndSplineSet
Validated: 1
EndChar

StartChar: afii10021
Encoding: 1044 1044 231
Width: 800
Flags: W
LayerCount: 2
Fore
SplineSet
100 100 m 1,0,-1
 200 100 l 1,1,-1
 200 500 l 1,2,-1
 300 500 l 1,3,-1
 300 600 l 1,4,-1
 600 600 l 1,5,-1
 600 100 l 1,6,-1
 700 100 l 1,7,-1
 700 -100 l 1,8,-1
 600 -100 l 1,9,-1
 600 0 l 1,10,-1
 200 0 l 1,11,-1
 200 -100 l 1,12,-1
 100 -100 l 1,13,-1
 100 100 l 1,0,-1
300 100 m 1,14,-1
 500 100 l 1,15,-1
 500 500 l 1,16,-1
 300 500 l 1,17,-1
 300 100 l 1,14,-1
EndSplineSet
Validated: 5
EndChar

StartChar: afii10022
Encoding: 1045 1045 232
Width: 800
Flags: W
LayerCount: 2
Fore
SplineSet
100 600 m 1,0,-1
 700 600 l 1,1,-1
 700 500 l 1,2,-1
 200 500 l 1,3,-1
 200 400 l 1,4,-1
 600 400 l 1,5,-1
 600 300 l 1,6,-1
 200 300 l 1,7,-1
 200 100 l 1,8,-1
 700 100 l 1,9,-1
 700 0 l 1,10,-1
 100 0 l 1,11,-1
 100 600 l 1,0,-1
EndSplineSet
Validated: 1
EndChar

StartChar: afii10024
Encoding: 1046 1046 233
Width: 800
Flags: W
LayerCount: 2
Fore
SplineSet
0 600 m 1,0,-1
 100 600 l 1,1,-1
 100 500 l 1,2,-1
 200 500 l 1,3,-1
 200 400 l 1,4,-1
 300 400 l 1,5,-1
 300 600 l 1,6,-1
 400 600 l 1,7,-1
 400 400 l 1,8,-1
 500 400 l 1,9,-1
 500 500 l 1,10,-1
 600 500 l 1,11,-1
 600 600 l 1,12,-1
 700 600 l 1,13,-1
 700 500 l 1,14,-1
 600 500 l 1,15,-1
 600 400 l 1,16,-1
 500 400 l 1,17,-1
 500 300 l 1,18,-1
 600 300 l 1,19,-1
 600 200 l 1,20,-1
 700 200 l 1,21,-1
 700 0 l 1,22,-1
 600 0 l 1,23,-1
 600 200 l 1,24,-1
 500 200 l 1,25,-1
 500 300 l 1,26,-1
 400 300 l 1,27,-1
 400 0 l 1,28,-1
 300 0 l 1,29,-1
 300 300 l 1,30,-1
 200 300 l 1,31,-1
 200 200 l 1,32,-1
 100 200 l 1,33,-1
 100 0 l 1,34,-1
 0 0 l 1,35,-1
 0 200 l 1,36,-1
 100 200 l 1,37,-1
 100 300 l 1,38,-1
 200 300 l 1,39,-1
 200 400 l 1,40,-1
 100 400 l 1,41,-1
 100 500 l 1,42,-1
 0 500 l 1,43,-1
 0 600 l 1,0,-1
EndSplineSet
Validated: 5
EndChar

StartChar: afii10025
Encoding: 1047 1047 234
Width: 800
Flags: W
LayerCount: 2
Fore
SplineSet
100 500 m 1,0,-1
 200 500 l 1,1,-1
 200 600 l 1,2,-1
 600 600 l 1,3,-1
 600 500 l 1,4,-1
 700 500 l 1,5,-1
 700 400 l 1,6,-1
 600 400 l 1,7,-1
 600 300 l 1,8,-1
 700 300 l 1,9,-1
 700 100 l 1,10,-1
 600 100 l 1,11,-1
 600 0 l 1,12,-1
 200 0 l 1,13,-1
 200 100 l 1,14,-1
 100 100 l 1,15,-1
 100 200 l 1,16,-1
 200 200 l 1,17,-1
 200 100 l 1,18,-1
 600 100 l 1,19,-1
 600 300 l 1,20,-1
 400 300 l 1,21,-1
 400 400 l 1,22,-1
 600 400 l 1,23,-1
 600 500 l 1,24,-1
 200 500 l 1,25,-1
 200 400 l 1,26,-1
 100 400 l 1,27,-1
 100 500 l 1,0,-1
EndSplineSet
Validated: 5
EndChar

StartChar: afii10026
Encoding: 1048 1048 235
Width: 800
Flags: W
LayerCount: 2
Fore
SplineSet
100 600 m 1,0,-1
 200 600 l 1,1,-1
 200 200 l 1,2,-1
 300 200 l 1,3,-1
 300 300 l 1,4,-1
 400 300 l 1,5,-1
 400 400 l 1,6,-1
 500 400 l 1,7,-1
 500 500 l 1,8,-1
 600 500 l 1,9,-1
 600 600 l 1,10,-1
 700 600 l 1,11,-1
 700 0 l 1,12,-1
 600 0 l 1,13,-1
 600 400 l 1,14,-1
 500 400 l 1,15,-1
 500 300 l 1,16,-1
 400 300 l 1,17,-1
 400 200 l 1,18,-1
 300 200 l 1,19,-1
 300 100 l 1,20,-1
 200 100 l 1,21,-1
 200 0 l 1,22,-1
 100 0 l 1,23,-1
 100 600 l 1,0,-1
EndSplineSet
Validated: 5
EndChar

StartChar: afii10027
Encoding: 1049 1049 236
Width: 800
Flags: W
LayerCount: 2
Fore
SplineSet
100 600 m 1,0,-1
 200 600 l 1,1,-1
 200 200 l 1,2,-1
 300 200 l 1,3,-1
 300 300 l 1,4,-1
 400 300 l 1,5,-1
 400 400 l 1,6,-1
 500 400 l 1,7,-1
 500 500 l 1,8,-1
 600 500 l 1,9,-1
 600 600 l 1,10,-1
 700 600 l 1,11,-1
 700 0 l 1,12,-1
 600 0 l 1,13,-1
 600 400 l 1,14,-1
 500 400 l 1,15,-1
 500 300 l 1,16,-1
 400 300 l 1,17,-1
 400 200 l 1,18,-1
 300 200 l 1,19,-1
 300 100 l 1,20,-1
 200 100 l 1,21,-1
 200 0 l 1,22,-1
 100 0 l 1,23,-1
 100 600 l 1,0,-1
200 900 m 1,24,-1
 300 900 l 1,25,-1
 300 800 l 1,26,-1
 500 800 l 1,27,-1
 500 900 l 1,28,-1
 600 900 l 1,29,-1
 600 800 l 1,30,-1
 500 800 l 1,31,-1
 500 700 l 1,32,-1
 300 700 l 1,33,-1
 300 800 l 1,34,-1
 200 800 l 1,35,-1
 200 900 l 1,24,-1
EndSplineSet
Validated: 5
EndChar

StartChar: afii10028
Encoding: 1050 1050 237
Width: 800
Flags: W
LayerCount: 2
Fore
SplineSet
100 600 m 1,0,-1
 200 600 l 1,1,-1
 200 400 l 1,2,-1
 400 400 l 1,3,-1
 400 500 l 1,4,-1
 500 500 l 1,5,-1
 500 600 l 1,6,-1
 600 600 l 1,7,-1
 600 500 l 1,8,-1
 500 500 l 1,9,-1
 500 400 l 1,10,-1
 400 400 l 1,11,-1
 400 300 l 1,12,-1
 500 300 l 1,13,-1
 500 200 l 1,14,-1
 600 200 l 1,15,-1
 600 100 l 1,16,-1
 700 100 l 1,17,-1
 700 0 l 1,18,-1
 600 0 l 1,19,-1
 600 100 l 1,20,-1
 500 100 l 1,21,-1
 500 200 l 1,22,-1
 400 200 l 1,23,-1
 400 300 l 1,24,-1
 200 300 l 1,25,-1
 200 0 l 1,26,-1
 100 0 l 1,27,-1
 100 600 l 1,0,-1
EndSplineSet
Validated: 5
EndChar

StartChar: afii10029
Encoding: 1051 1051 238
Width: 800
Flags: W
LayerCount: 2
Fore
SplineSet
0 100 m 1,0,-1
 200 100 l 1,1,-1
 200 600 l 1,2,-1
 700 600 l 1,3,-1
 700 0 l 1,4,-1
 600 0 l 1,5,-1
 600 500 l 1,6,-1
 300 500 l 1,7,-1
 300 100 l 1,8,-1
 200 100 l 1,9,-1
 200 0 l 1,10,-1
 0 0 l 1,11,-1
 0 100 l 1,0,-1
EndSplineSet
Validated: 5
EndChar

StartChar: afii10030
Encoding: 1052 1052 239
Width: 800
Flags: W
LayerCount: 2
Fore
SplineSet
100 600 m 1,0,-1
 200 600 l 1,1,-1
 200 500 l 1,2,-1
 300 500 l 1,3,-1
 300 400 l 1,4,-1
 500 400 l 1,5,-1
 500 500 l 1,6,-1
 600 500 l 1,7,-1
 600 600 l 1,8,-1
 700 600 l 1,9,-1
 700 0 l 1,10,-1
 600 0 l 1,11,-1
 600 400 l 1,12,-1
 500 400 l 1,13,-1
 500 300 l 1,14,-1
 300 300 l 1,15,-1
 300 400 l 1,16,-1
 200 400 l 1,17,-1
 200 0 l 1,18,-1
 100 0 l 1,19,-1
 100 600 l 1,0,-1
EndSplineSet
Validated: 5
EndChar

StartChar: afii10031
Encoding: 1053 1053 240
Width: 800
Flags: W
LayerCount: 2
Fore
SplineSet
100 600 m 1,0,-1
 200 600 l 1,1,-1
 200 400 l 1,2,-1
 600 400 l 1,3,-1
 600 600 l 1,4,-1
 700 600 l 1,5,-1
 700 0 l 1,6,-1
 600 0 l 1,7,-1
 600 300 l 1,8,-1
 200 300 l 1,9,-1
 200 0 l 1,10,-1
 100 0 l 1,11,-1
 100 600 l 1,0,-1
EndSplineSet
Validated: 1
EndChar

StartChar: afii10032
Encoding: 1054 1054 241
Width: 800
Flags: W
LayerCount: 2
Fore
SplineSet
100 500 m 1,0,-1
 200 500 l 1,1,-1
 200 600 l 1,2,-1
 600 600 l 1,3,-1
 600 500 l 1,4,-1
 700 500 l 1,5,-1
 700 100 l 1,6,-1
 600 100 l 1,7,-1
 600 0 l 1,8,-1
 200 0 l 1,9,-1
 200 100 l 1,10,-1
 100 100 l 1,11,-1
 100 500 l 1,0,-1
200 100 m 1,12,-1
 600 100 l 1,13,-1
 600 500 l 1,14,-1
 200 500 l 1,15,-1
 200 100 l 1,12,-1
EndSplineSet
Validated: 5
EndChar

StartChar: afii10033
Encoding: 1055 1055 242
Width: 800
Flags: W
LayerCount: 2
Fore
SplineSet
100 600 m 1,0,-1
 700 600 l 1,1,-1
 700 0 l 1,2,-1
 600 0 l 1,3,-1
 600 500 l 1,4,-1
 200 500 l 1,5,-1
 200 0 l 1,6,-1
 100 0 l 1,7,-1
 100 600 l 1,0,-1
EndSplineSet
Validated: 1
EndChar

StartChar: afii10034
Encoding: 1056 1056 243
Width: 800
Flags: W
LayerCount: 2
Fore
SplineSet
100 600 m 1,0,-1
 600 600 l 1,1,-1
 600 500 l 1,2,-1
 700 500 l 1,3,-1
 700 300 l 1,4,-1
 600 300 l 1,5,-1
 600 200 l 1,6,-1
 200 200 l 1,7,-1
 200 0 l 1,8,-1
 100 0 l 1,9,-1
 100 600 l 1,0,-1
200 300 m 1,10,-1
 600 300 l 1,11,-1
 600 500 l 1,12,-1
 200 500 l 1,13,-1
 200 300 l 1,10,-1
EndSplineSet
Validated: 5
EndChar

StartChar: afii10035
Encoding: 1057 1057 244
Width: 800
Flags: W
LayerCount: 2
Fore
SplineSet
600 500 m 1,0,-1
 200 500 l 1,1,-1
 200 100 l 1,2,-1
 600 100 l 1,3,-1
 600 200 l 1,4,-1
 700 200 l 1,5,-1
 700 100 l 1,6,-1
 600 100 l 1,7,-1
 600 0 l 1,8,-1
 200 0 l 1,9,-1
 200 100 l 1,10,-1
 100 100 l 1,11,-1
 100 500 l 1,12,-1
 200 500 l 1,13,-1
 200 600 l 1,14,-1
 600 600 l 1,15,-1
 600 500 l 1,16,-1
 700 500 l 1,17,-1
 700 400 l 1,18,-1
 600 400 l 1,19,-1
 600 500 l 1,0,-1
EndSplineSet
Validated: 5
EndChar

StartChar: afii10036
Encoding: 1058 1058 245
Width: 800
Flags: W
LayerCount: 2
Fore
SplineSet
0 600 m 1,0,-1
 700 600 l 1,1,-1
 700 500 l 1,2,-1
 400 500 l 1,3,-1
 400 0 l 1,4,-1
 300 0 l 1,5,-1
 300 500 l 1,6,-1
 0 500 l 1,7,-1
 0 600 l 1,0,-1
EndSplineSet
Validated: 1
EndChar

StartChar: afii10037
Encoding: 1059 1059 246
Width: 800
Flags: W
LayerCount: 2
Fore
SplineSet
100 600 m 1,0,-1
 200 600 l 1,1,-1
 200 300 l 1,2,-1
 600 300 l 1,3,-1
 600 600 l 1,4,-1
 700 600 l 1,5,-1
 700 100 l 1,6,-1
 600 100 l 1,7,-1
 600 0 l 1,8,-1
 200 0 l 1,9,-1
 200 100 l 1,10,-1
 600 100 l 1,11,-1
 600 200 l 1,12,-1
 200 200 l 1,13,-1
 200 300 l 1,14,-1
 100 300 l 1,15,-1
 100 600 l 1,0,-1
EndSplineSet
Validated: 5
EndChar

StartChar: afii10038
Encoding: 1060 1060 247
Width: 800
Flags: W
LayerCount: 2
Fore
SplineSet
0 500 m 1,0,-1
 100 500 l 1,1,-1
 100 600 l 1,2,-1
 600 600 l 1,3,-1
 600 500 l 1,4,-1
 700 500 l 1,5,-1
 700 200 l 1,6,-1
 600 200 l 1,7,-1
 600 100 l 1,8,-1
 400 100 l 1,9,-1
 400 0 l 1,10,-1
 300 0 l 1,11,-1
 300 100 l 1,12,-1
 100 100 l 1,13,-1
 100 200 l 1,14,-1
 0 200 l 1,15,-1
 0 500 l 1,0,-1
300 500 m 1,16,-1
 100 500 l 1,17,-1
 100 200 l 1,18,-1
 300 200 l 1,19,-1
 300 500 l 1,16,-1
400 200 m 1,20,-1
 600 200 l 1,21,-1
 600 500 l 1,22,-1
 400 500 l 1,23,-1
 400 200 l 1,20,-1
EndSplineSet
Validated: 5
EndChar

StartChar: afii10039
Encoding: 1061 1061 248
Width: 800
Flags: W
LayerCount: 2
Fore
SplineSet
100 600 m 1,0,-1
 200 600 l 1,1,-1
 200 500 l 1,2,-1
 300 500 l 1,3,-1
 300 400 l 1,4,-1
 500 400 l 1,5,-1
 500 500 l 1,6,-1
 600 500 l 1,7,-1
 600 600 l 1,8,-1
 700 600 l 1,9,-1
 700 500 l 1,10,-1
 600 500 l 1,11,-1
 600 400 l 1,12,-1
 500 400 l 1,13,-1
 500 200 l 1,14,-1
 600 200 l 1,15,-1
 600 100 l 1,16,-1
 700 100 l 1,17,-1
 700 0 l 1,18,-1
 600 0 l 1,19,-1
 600 100 l 1,20,-1
 500 100 l 1,21,-1
 500 200 l 1,22,-1
 300 200 l 1,23,-1
 300 100 l 1,24,-1
 200 100 l 1,25,-1
 200 0 l 1,26,-1
 100 0 l 1,27,-1
 100 100 l 1,28,-1
 200 100 l 1,29,-1
 200 200 l 1,30,-1
 300 200 l 1,31,-1
 300 400 l 1,32,-1
 200 400 l 1,33,-1
 200 500 l 1,34,-1
 100 500 l 1,35,-1
 100 600 l 1,0,-1
EndSplineSet
Validated: 5
EndChar

StartChar: afii10040
Encoding: 1062 1062 249
Width: 800
Flags: W
LayerCount: 2
Fore
SplineSet
100 600 m 1,0,-1
 200 600 l 1,1,-1
 200 100 l 1,2,-1
 500 100 l 1,3,-1
 500 600 l 1,4,-1
 600 600 l 1,5,-1
 600 100 l 1,6,-1
 700 100 l 1,7,-1
 700 -100 l 1,8,-1
 600 -100 l 1,9,-1
 600 0 l 1,10,-1
 100 0 l 1,11,-1
 100 600 l 1,0,-1
EndSplineSet
Validated: 1
EndChar

StartChar: afii10041
Encoding: 1063 1063 250
Width: 800
Flags: W
LayerCount: 2
Fore
SplineSet
100 600 m 1,0,-1
 200 600 l 1,1,-1
 200 300 l 1,2,-1
 600 300 l 1,3,-1
 600 600 l 1,4,-1
 700 600 l 1,5,-1
 700 0 l 1,6,-1
 600 0 l 1,7,-1
 600 200 l 1,8,-1
 200 200 l 1,9,-1
 200 300 l 1,10,-1
 100 300 l 1,11,-1
 100 600 l 1,0,-1
EndSplineSet
Validated: 5
EndChar

StartChar: afii10042
Encoding: 1064 1064 251
Width: 800
Flags: W
LayerCount: 2
Fore
SplineSet
0 600 m 1,0,-1
 100 600 l 1,1,-1
 100 100 l 1,2,-1
 300 100 l 1,3,-1
 300 600 l 1,4,-1
 400 600 l 1,5,-1
 400 100 l 1,6,-1
 600 100 l 1,7,-1
 600 600 l 1,8,-1
 700 600 l 1,9,-1
 700 0 l 1,10,-1
 0 0 l 1,11,-1
 0 600 l 1,0,-1
EndSplineSet
Validated: 1
EndChar

StartChar: afii10043
Encoding: 1065 1065 252
Width: 800
Flags: W
LayerCount: 2
Fore
SplineSet
0 600 m 1,0,-1
 100 600 l 1,1,-1
 100 100 l 1,2,-1
 300 100 l 1,3,-1
 300 600 l 1,4,-1
 400 600 l 1,5,-1
 400 100 l 1,6,-1
 600 100 l 1,7,-1
 600 600 l 1,8,-1
 700 600 l 1,9,-1
 700 -100 l 1,10,-1
 600 -100 l 1,11,-1
 600 0 l 1,12,-1
 0 0 l 1,13,-1
 0 600 l 1,0,-1
EndSplineSet
Validated: 1
EndChar

StartChar: afii10044
Encoding: 1066 1066 253
Width: 800
Flags: W
LayerCount: 2
Fore
SplineSet
0 600 m 1,0,-1
 200 600 l 1,1,-1
 200 400 l 1,2,-1
 600 400 l 1,3,-1
 600 300 l 1,4,-1
 700 300 l 1,5,-1
 700 100 l 1,6,-1
 600 100 l 1,7,-1
 600 0 l 1,8,-1
 100 0 l 1,9,-1
 100 500 l 1,10,-1
 0 500 l 1,11,-1
 0 600 l 1,0,-1
200 100 m 1,12,-1
 600 100 l 1,13,-1
 600 300 l 1,14,-1
 200 300 l 1,15,-1
 200 100 l 1,12,-1
EndSplineSet
Validated: 5
EndChar

StartChar: afii10045
Encoding: 1067 1067 254
Width: 800
Flags: W
LayerCount: 2
Fore
SplineSet
0 600 m 1,0,-1
 100 600 l 1,1,-1
 100 400 l 1,2,-1
 400 400 l 1,3,-1
 400 300 l 1,4,-1
 500 300 l 1,5,-1
 500 100 l 1,6,-1
 400 100 l 1,7,-1
 400 0 l 1,8,-1
 0 0 l 1,9,-1
 0 600 l 1,0,-1
600 600 m 1,10,-1
 700 600 l 1,11,-1
 700 0 l 1,12,-1
 600 0 l 1,13,-1
 600 600 l 1,10,-1
100 100 m 1,14,-1
 400 100 l 1,15,-1
 400 300 l 1,16,-1
 100 300 l 1,17,-1
 100 100 l 1,14,-1
EndSplineSet
Validated: 5
EndChar

StartChar: afii10046
Encoding: 1068 1068 255
Width: 800
Flags: W
LayerCount: 2
Fore
SplineSet
100 600 m 1,0,-1
 200 600 l 1,1,-1
 200 400 l 1,2,-1
 600 400 l 1,3,-1
 600 300 l 1,4,-1
 700 300 l 1,5,-1
 700 100 l 1,6,-1
 600 100 l 1,7,-1
 600 0 l 1,8,-1
 100 0 l 1,9,-1
 100 600 l 1,0,-1
200 100 m 1,10,-1
 600 100 l 1,11,-1
 600 300 l 1,12,-1
 200 300 l 1,13,-1
 200 100 l 1,10,-1
EndSplineSet
Validated: 5
EndChar

StartChar: afii10047
Encoding: 1069 1069 256
Width: 800
Flags: W
LayerCount: 2
Fore
SplineSet
400 400 m 1,0,-1
 600 400 l 1,1,-1
 600 500 l 1,2,-1
 200 500 l 1,3,-1
 200 400 l 1,4,-1
 100 400 l 1,5,-1
 100 500 l 1,6,-1
 200 500 l 1,7,-1
 200 600 l 1,8,-1
 600 600 l 1,9,-1
 600 500 l 1,10,-1
 700 500 l 1,11,-1
 700 100 l 1,12,-1
 600 100 l 1,13,-1
 600 0 l 1,14,-1
 200 0 l 1,15,-1
 200 100 l 1,16,-1
 100 100 l 1,17,-1
 100 200 l 1,18,-1
 200 200 l 1,19,-1
 200 100 l 1,20,-1
 600 100 l 1,21,-1
 600 300 l 1,22,-1
 400 300 l 1,23,-1
 400 400 l 1,0,-1
EndSplineSet
Validated: 5
EndChar

StartChar: afii10048
Encoding: 1070 1070 257
Width: 800
Flags: W
LayerCount: 2
Fore
SplineSet
0 600 m 1,0,-1
 100 600 l 1,1,-1
 100 400 l 1,2,-1
 200 400 l 1,3,-1
 200 500 l 1,4,-1
 300 500 l 1,5,-1
 300 600 l 1,6,-1
 600 600 l 1,7,-1
 600 500 l 1,8,-1
 700 500 l 1,9,-1
 700 100 l 1,10,-1
 600 100 l 1,11,-1
 600 0 l 1,12,-1
 300 0 l 1,13,-1
 300 100 l 1,14,-1
 200 100 l 1,15,-1
 200 300 l 1,16,-1
 100 300 l 1,17,-1
 100 0 l 1,18,-1
 0 0 l 1,19,-1
 0 600 l 1,0,-1
300 100 m 1,20,-1
 600 100 l 1,21,-1
 600 500 l 1,22,-1
 300 500 l 1,23,-1
 300 100 l 1,20,-1
EndSplineSet
Validated: 5
EndChar

StartChar: afii10049
Encoding: 1071 1071 258
Width: 800
Flags: W
LayerCount: 2
Fore
SplineSet
100 500 m 1,0,-1
 200 500 l 1,1,-1
 200 600 l 1,2,-1
 700 600 l 1,3,-1
 700 0 l 1,4,-1
 600 0 l 1,5,-1
 600 200 l 1,6,-1
 300 200 l 1,7,-1
 300 100 l 1,8,-1
 200 100 l 1,9,-1
 200 0 l 1,10,-1
 100 0 l 1,11,-1
 100 100 l 1,12,-1
 200 100 l 1,13,-1
 200 300 l 1,14,-1
 100 300 l 1,15,-1
 100 500 l 1,0,-1
200 300 m 1,16,-1
 600 300 l 1,17,-1
 600 500 l 1,18,-1
 200 500 l 1,19,-1
 200 300 l 1,16,-1
EndSplineSet
Validated: 5
EndChar

StartChar: afii10065
Encoding: 1072 1072 259
Width: 800
Flags: W
LayerCount: 2
Fore
SplineSet
200 500 m 1,0,-1
 500 500 l 1,1,-1
 500 400 l 1,2,-1
 600 400 l 1,3,-1
 600 0 l 1,4,-1
 200 0 l 1,5,-1
 200 100 l 1,6,-1
 100 100 l 1,7,-1
 100 200 l 1,8,-1
 200 200 l 1,9,-1
 200 300 l 1,10,-1
 500 300 l 1,11,-1
 500 400 l 1,12,-1
 200 400 l 1,13,-1
 200 500 l 1,0,-1
200 100 m 1,14,-1
 500 100 l 1,15,-1
 500 200 l 1,16,-1
 200 200 l 1,17,-1
 200 100 l 1,14,-1
EndSplineSet
Validated: 5
EndChar

StartChar: afii10066
Encoding: 1073 1073 260
Width: 800
Flags: W
LayerCount: 2
Fore
SplineSet
100 500 m 1,0,-1
 200 500 l 1,1,-1
 200 600 l 1,2,-1
 600 600 l 1,3,-1
 600 500 l 1,4,-1
 200 500 l 1,5,-1
 200 400 l 1,6,-1
 500 400 l 1,7,-1
 500 300 l 1,8,-1
 600 300 l 1,9,-1
 600 100 l 1,10,-1
 500 100 l 1,11,-1
 500 0 l 1,12,-1
 200 0 l 1,13,-1
 200 100 l 1,14,-1
 100 100 l 1,15,-1
 100 300 l 1,16,-1
 200 300 l 1,17,-1
 200 400 l 1,18,-1
 100 400 l 1,19,-1
 100 500 l 1,0,-1
200 100 m 1,20,-1
 500 100 l 1,21,-1
 500 300 l 1,22,-1
 200 300 l 1,23,-1
 200 100 l 1,20,-1
EndSplineSet
Validated: 5
EndChar

StartChar: afii10067
Encoding: 1074 1074 261
Width: 800
Flags: W
LayerCount: 2
Fore
SplineSet
100 500 m 1,0,-1
 500 500 l 1,1,-1
 500 400 l 1,2,-1
 600 400 l 1,3,-1
 600 300 l 1,4,-1
 500 300 l 1,5,-1
 500 200 l 1,6,-1
 600 200 l 1,7,-1
 600 100 l 1,8,-1
 500 100 l 1,9,-1
 500 0 l 1,10,-1
 100 0 l 1,11,-1
 100 500 l 1,0,-1
200 300 m 1,12,-1
 500 300 l 1,13,-1
 500 400 l 1,14,-1
 200 400 l 1,15,-1
 200 300 l 1,12,-1
200 100 m 1,16,-1
 500 100 l 1,17,-1
 500 200 l 1,18,-1
 200 200 l 1,19,-1
 200 100 l 1,16,-1
EndSplineSet
Validated: 5
EndChar

StartChar: afii10068
Encoding: 1075 1075 262
Width: 800
Flags: W
LayerCount: 2
Fore
SplineSet
100 500 m 1,0,-1
 600 500 l 1,1,-1
 600 400 l 1,2,-1
 200 400 l 1,3,-1
 200 0 l 1,4,-1
 100 0 l 1,5,-1
 100 500 l 1,0,-1
EndSplineSet
Validated: 1
EndChar

StartChar: afii10069
Encoding: 1076 1076 263
Width: 800
Flags: W
LayerCount: 2
Fore
SplineSet
100 100 m 1,0,-1
 200 100 l 1,1,-1
 200 400 l 1,2,-1
 300 400 l 1,3,-1
 300 500 l 1,4,-1
 600 500 l 1,5,-1
 600 100 l 1,6,-1
 700 100 l 1,7,-1
 700 -100 l 1,8,-1
 600 -100 l 1,9,-1
 600 0 l 1,10,-1
 200 0 l 1,11,-1
 200 -100 l 1,12,-1
 100 -100 l 1,13,-1
 100 100 l 1,0,-1
500 400 m 1,14,-1
 300 400 l 1,15,-1
 300 100 l 1,16,-1
 500 100 l 1,17,-1
 500 400 l 1,14,-1
EndSplineSet
Validated: 5
EndChar

StartChar: afii10070
Encoding: 1077 1077 264
Width: 800
Flags: W
LayerCount: 2
Fore
SplineSet
100 400 m 1,0,-1
 200 400 l 1,1,-1
 200 500 l 1,2,-1
 500 500 l 1,3,-1
 500 400 l 1,4,-1
 600 400 l 1,5,-1
 600 300 l 1,6,-1
 500 300 l 1,7,-1
 500 200 l 1,8,-1
 200 200 l 1,9,-1
 200 100 l 1,10,-1
 600 100 l 1,11,-1
 600 0 l 1,12,-1
 200 0 l 1,13,-1
 200 100 l 1,14,-1
 100 100 l 1,15,-1
 100 400 l 1,0,-1
200 300 m 1,16,-1
 500 300 l 1,17,-1
 500 400 l 1,18,-1
 200 400 l 1,19,-1
 200 300 l 1,16,-1
EndSplineSet
Validated: 5
EndChar

StartChar: afii10072
Encoding: 1078 1078 265
Width: 800
Flags: W
LayerCount: 2
Fore
SplineSet
0 500 m 1,0,-1
 100 500 l 1,1,-1
 100 400 l 1,2,-1
 200 400 l 1,3,-1
 200 300 l 1,4,-1
 300 300 l 1,5,-1
 300 500 l 1,6,-1
 400 500 l 1,7,-1
 400 300 l 1,8,-1
 500 300 l 1,9,-1
 500 400 l 1,10,-1
 600 400 l 1,11,-1
 600 500 l 1,12,-1
 700 500 l 1,13,-1
 700 400 l 1,14,-1
 600 400 l 1,15,-1
 600 300 l 1,16,-1
 500 300 l 1,17,-1
 500 200 l 1,18,-1
 600 200 l 1,19,-1
 600 100 l 1,20,-1
 700 100 l 1,21,-1
 700 0 l 1,22,-1
 600 0 l 1,23,-1
 600 100 l 1,24,-1
 500 100 l 1,25,-1
 500 200 l 1,26,-1
 400 200 l 1,27,-1
 400 0 l 1,28,-1
 300 0 l 1,29,-1
 300 200 l 1,30,-1
 200 200 l 1,31,-1
 200 100 l 1,32,-1
 100 100 l 1,33,-1
 100 0 l 1,34,-1
 0 0 l 1,35,-1
 0 100 l 1,36,-1
 100 100 l 1,37,-1
 100 200 l 1,38,-1
 200 200 l 1,39,-1
 200 300 l 1,40,-1
 100 300 l 1,41,-1
 100 400 l 1,42,-1
 0 400 l 1,43,-1
 0 500 l 1,0,-1
EndSplineSet
Validated: 5
EndChar

StartChar: afii10073
Encoding: 1079 1079 266
Width: 800
Flags: W
LayerCount: 2
Fore
SplineSet
200 300 m 1,0,-1
 500 300 l 1,1,-1
 500 400 l 1,2,-1
 100 400 l 1,3,-1
 100 500 l 1,4,-1
 500 500 l 1,5,-1
 500 400 l 1,6,-1
 600 400 l 1,7,-1
 600 300 l 1,8,-1
 500 300 l 1,9,-1
 500 200 l 1,10,-1
 600 200 l 1,11,-1
 600 100 l 1,12,-1
 500 100 l 1,13,-1
 500 0 l 1,14,-1
 100 0 l 1,15,-1
 100 100 l 1,16,-1
 500 100 l 1,17,-1
 500 200 l 1,18,-1
 200 200 l 1,19,-1
 200 300 l 1,0,-1
EndSplineSet
Validated: 5
EndChar

StartChar: afii10074
Encoding: 1080 1080 267
Width: 800
Flags: W
LayerCount: 2
Fore
SplineSet
100 500 m 1,0,-1
 200 500 l 1,1,-1
 200 200 l 1,2,-1
 300 200 l 1,3,-1
 300 300 l 1,4,-1
 400 300 l 1,5,-1
 400 400 l 1,6,-1
 500 400 l 1,7,-1
 500 500 l 1,8,-1
 600 500 l 1,9,-1
 600 0 l 1,10,-1
 500 0 l 1,11,-1
 500 300 l 1,12,-1
 400 300 l 1,13,-1
 400 200 l 1,14,-1
 300 200 l 1,15,-1
 300 100 l 1,16,-1
 200 100 l 1,17,-1
 200 0 l 1,18,-1
 100 0 l 1,19,-1
 100 500 l 1,0,-1
EndSplineSet
Validated: 5
EndChar

StartChar: afii10075
Encoding: 1081 1081 268
Width: 800
Flags: W
LayerCount: 2
Fore
SplineSet
100 500 m 1,0,-1
 200 500 l 1,1,-1
 200 200 l 1,2,-1
 300 200 l 1,3,-1
 300 300 l 1,4,-1
 400 300 l 1,5,-1
 400 400 l 1,6,-1
 500 400 l 1,7,-1
 500 500 l 1,8,-1
 600 500 l 1,9,-1
 600 0 l 1,10,-1
 500 0 l 1,11,-1
 500 300 l 1,12,-1
 400 300 l 1,13,-1
 400 200 l 1,14,-1
 300 200 l 1,15,-1
 300 100 l 1,16,-1
 200 100 l 1,17,-1
 200 0 l 1,18,-1
 100 0 l 1,19,-1
 100 500 l 1,0,-1
200 800 m 1,20,-1
 300 800 l 1,21,-1
 300 700 l 1,22,-1
 400 700 l 1,23,-1
 400 800 l 1,24,-1
 500 800 l 1,25,-1
 500 700 l 1,26,-1
 400 700 l 1,27,-1
 400 600 l 1,28,-1
 300 600 l 1,29,-1
 300 700 l 1,30,-1
 200 700 l 1,31,-1
 200 800 l 1,20,-1
EndSplineSet
Validated: 5
EndChar

StartChar: afii10076
Encoding: 1082 1082 269
Width: 800
Flags: W
LayerCount: 2
Fore
SplineSet
100 500 m 1,0,-1
 200 500 l 1,1,-1
 200 300 l 1,2,-1
 400 300 l 1,3,-1
 400 400 l 1,4,-1
 500 400 l 1,5,-1
 500 500 l 1,6,-1
 600 500 l 1,7,-1
 600 400 l 1,8,-1
 500 400 l 1,9,-1
 500 300 l 1,10,-1
 400 300 l 1,11,-1
 400 200 l 1,12,-1
 500 200 l 1,13,-1
 500 100 l 1,14,-1
 600 100 l 1,15,-1
 600 0 l 1,16,-1
 500 0 l 1,17,-1
 500 100 l 1,18,-1
 400 100 l 1,19,-1
 400 200 l 1,20,-1
 200 200 l 1,21,-1
 200 0 l 1,22,-1
 100 0 l 1,23,-1
 100 500 l 1,0,-1
EndSplineSet
Validated: 5
EndChar

StartChar: afii10077
Encoding: 1083 1083 270
Width: 800
Flags: W
LayerCount: 2
Fore
SplineSet
100 300 m 1,0,-1
 200 300 l 1,1,-1
 200 400 l 1,2,-1
 300 400 l 1,3,-1
 300 500 l 1,4,-1
 600 500 l 1,5,-1
 600 0 l 1,6,-1
 500 0 l 1,7,-1
 500 400 l 1,8,-1
 300 400 l 1,9,-1
 300 300 l 1,10,-1
 200 300 l 1,11,-1
 200 0 l 1,12,-1
 100 0 l 1,13,-1
 100 300 l 1,0,-1
EndSplineSet
Validated: 5
EndChar

StartChar: afii10078
Encoding: 1084 1084 271
Width: 800
Flags: W
LayerCount: 2
Fore
SplineSet
100 500 m 1,0,-1
 200 500 l 1,1,-1
 200 400 l 1,2,-1
 300 400 l 1,3,-1
 300 300 l 1,4,-1
 400 300 l 1,5,-1
 400 400 l 1,6,-1
 500 400 l 1,7,-1
 500 500 l 1,8,-1
 600 500 l 1,9,-1
 600 0 l 1,10,-1
 500 0 l 1,11,-1
 500 300 l 1,12,-1
 400 300 l 1,13,-1
 400 200 l 1,14,-1
 300 200 l 1,15,-1
 300 300 l 1,16,-1
 200 300 l 1,17,-1
 200 0 l 1,18,-1
 100 0 l 1,19,-1
 100 500 l 1,0,-1
EndSplineSet
Validated: 5
EndChar

StartChar: afii10079
Encoding: 1085 1085 272
Width: 800
Flags: W
LayerCount: 2
Fore
SplineSet
100 500 m 1,0,-1
 200 500 l 1,1,-1
 200 300 l 1,2,-1
 500 300 l 1,3,-1
 500 500 l 1,4,-1
 600 500 l 1,5,-1
 600 0 l 1,6,-1
 500 0 l 1,7,-1
 500 200 l 1,8,-1
 200 200 l 1,9,-1
 200 0 l 1,10,-1
 100 0 l 1,11,-1
 100 500 l 1,0,-1
EndSplineSet
Validated: 1
EndChar

StartChar: afii10080
Encoding: 1086 1086 273
Width: 800
Flags: W
LayerCount: 2
Fore
SplineSet
100 400 m 1,0,-1
 200 400 l 1,1,-1
 200 500 l 1,2,-1
 500 500 l 1,3,-1
 500 400 l 1,4,-1
 600 400 l 1,5,-1
 600 100 l 1,6,-1
 500 100 l 1,7,-1
 500 0 l 1,8,-1
 200 0 l 1,9,-1
 200 100 l 1,10,-1
 100 100 l 1,11,-1
 100 400 l 1,0,-1
200 100 m 1,12,-1
 500 100 l 1,13,-1
 500 400 l 1,14,-1
 200 400 l 1,15,-1
 200 100 l 1,12,-1
EndSplineSet
Validated: 5
EndChar

StartChar: afii10081
Encoding: 1087 1087 274
Width: 800
Flags: W
LayerCount: 2
Fore
SplineSet
100 500 m 1,0,-1
 600 500 l 1,1,-1
 600 0 l 1,2,-1
 500 0 l 1,3,-1
 500 400 l 1,4,-1
 200 400 l 1,5,-1
 200 0 l 1,6,-1
 100 0 l 1,7,-1
 100 500 l 1,0,-1
EndSplineSet
Validated: 1
EndChar

StartChar: afii10082
Encoding: 1088 1088 275
Width: 800
Flags: W
LayerCount: 2
Fore
SplineSet
100 500 m 1,0,-1
 500 500 l 1,1,-1
 500 400 l 1,2,-1
 600 400 l 1,3,-1
 600 200 l 1,4,-1
 500 200 l 1,5,-1
 500 100 l 1,6,-1
 200 100 l 1,7,-1
 200 -100 l 1,8,-1
 100 -100 l 1,9,-1
 100 500 l 1,0,-1
500 400 m 1,10,-1
 200 400 l 1,11,-1
 200 200 l 1,12,-1
 500 200 l 1,13,-1
 500 400 l 1,10,-1
EndSplineSet
Validated: 5
EndChar

StartChar: afii10083
Encoding: 1089 1089 276
Width: 800
Flags: W
LayerCount: 2
Fore
SplineSet
100 400 m 1,0,-1
 200 400 l 1,1,-1
 200 500 l 1,2,-1
 600 500 l 1,3,-1
 600 400 l 1,4,-1
 200 400 l 1,5,-1
 200 100 l 1,6,-1
 600 100 l 1,7,-1
 600 0 l 1,8,-1
 200 0 l 1,9,-1
 200 100 l 1,10,-1
 100 100 l 1,11,-1
 100 400 l 1,0,-1
EndSplineSet
Validated: 5
EndChar

StartChar: afii10084
Encoding: 1090 1090 277
Width: 800
Flags: W
LayerCount: 2
Fore
SplineSet
100 500 m 1,0,-1
 600 500 l 1,1,-1
 600 400 l 1,2,-1
 400 400 l 1,3,-1
 400 0 l 1,4,-1
 300 0 l 1,5,-1
 300 400 l 1,6,-1
 100 400 l 1,7,-1
 100 500 l 1,0,-1
EndSplineSet
Validated: 1
EndChar

StartChar: afii10085
Encoding: 1091 1091 278
Width: 800
Flags: W
LayerCount: 2
Fore
SplineSet
100 500 m 1,0,-1
 200 500 l 1,1,-1
 200 200 l 1,2,-1
 500 200 l 1,3,-1
 500 500 l 1,4,-1
 600 500 l 1,5,-1
 600 0 l 1,6,-1
 500 0 l 1,7,-1
 500 -100 l 1,8,-1
 200 -100 l 1,9,-1
 200 0 l 1,10,-1
 500 0 l 1,11,-1
 500 100 l 1,12,-1
 200 100 l 1,13,-1
 200 200 l 1,14,-1
 100 200 l 1,15,-1
 100 500 l 1,0,-1
EndSplineSet
Validated: 5
EndChar

StartChar: afii10086
Encoding: 1092 1092 279
Width: 800
Flags: W
LayerCount: 2
Fore
SplineSet
0 400 m 1,0,-1
 100 400 l 1,1,-1
 100 500 l 1,2,-1
 300 500 l 1,3,-1
 300 600 l 1,4,-1
 400 600 l 1,5,-1
 400 500 l 1,6,-1
 600 500 l 1,7,-1
 600 400 l 1,8,-1
 700 400 l 1,9,-1
 700 100 l 1,10,-1
 600 100 l 1,11,-1
 600 0 l 1,12,-1
 400 0 l 1,13,-1
 400 -100 l 1,14,-1
 300 -100 l 1,15,-1
 300 0 l 1,16,-1
 100 0 l 1,17,-1
 100 100 l 1,18,-1
 0 100 l 1,19,-1
 0 400 l 1,0,-1
100 400 m 1,20,-1
 100 100 l 1,21,-1
 300 100 l 1,22,-1
 300 400 l 1,23,-1
 100 400 l 1,20,-1
600 400 m 1,24,-1
 400 400 l 1,25,-1
 400 100 l 1,26,-1
 600 100 l 1,27,-1
 600 400 l 1,24,-1
EndSplineSet
Validated: 5
EndChar

StartChar: afii10087
Encoding: 1093 1093 280
Width: 800
Flags: W
LayerCount: 2
Fore
SplineSet
100 500 m 1,0,-1
 200 500 l 1,1,-1
 200 400 l 1,2,-1
 300 400 l 1,3,-1
 300 300 l 1,4,-1
 400 300 l 1,5,-1
 400 400 l 1,6,-1
 500 400 l 1,7,-1
 500 500 l 1,8,-1
 600 500 l 1,9,-1
 600 400 l 1,10,-1
 500 400 l 1,11,-1
 500 300 l 1,12,-1
 400 300 l 1,13,-1
 400 200 l 1,14,-1
 500 200 l 1,15,-1
 500 100 l 1,16,-1
 600 100 l 1,17,-1
 600 0 l 1,18,-1
 500 0 l 1,19,-1
 500 100 l 1,20,-1
 400 100 l 1,21,-1
 400 200 l 1,22,-1
 300 200 l 1,23,-1
 300 100 l 1,24,-1
 200 100 l 1,25,-1
 200 0 l 1,26,-1
 100 0 l 1,27,-1
 100 100 l 1,28,-1
 200 100 l 1,29,-1
 200 200 l 1,30,-1
 300 200 l 1,31,-1
 300 300 l 1,32,-1
 200 300 l 1,33,-1
 200 400 l 1,34,-1
 100 400 l 1,35,-1
 100 500 l 1,0,-1
EndSplineSet
Validated: 5
EndChar

StartChar: afii10088
Encoding: 1094 1094 281
Width: 800
Flags: W
LayerCount: 2
Fore
SplineSet
100 500 m 1,0,-1
 200 500 l 1,1,-1
 200 100 l 1,2,-1
 500 100 l 1,3,-1
 500 500 l 1,4,-1
 600 500 l 1,5,-1
 600 100 l 1,6,-1
 700 100 l 1,7,-1
 700 -100 l 1,8,-1
 600 -100 l 1,9,-1
 600 0 l 1,10,-1
 100 0 l 1,11,-1
 100 500 l 1,0,-1
EndSplineSet
Validated: 1
EndChar

StartChar: afii10089
Encoding: 1095 1095 282
Width: 800
Flags: W
LayerCount: 2
Fore
SplineSet
100 500 m 1,0,-1
 200 500 l 1,1,-1
 200 300 l 1,2,-1
 500 300 l 1,3,-1
 500 500 l 1,4,-1
 600 500 l 1,5,-1
 600 0 l 1,6,-1
 500 0 l 1,7,-1
 500 200 l 1,8,-1
 200 200 l 1,9,-1
 200 300 l 1,10,-1
 100 300 l 1,11,-1
 100 500 l 1,0,-1
EndSplineSet
Validated: 5
EndChar

StartChar: afii10090
Encoding: 1096 1096 283
Width: 800
Flags: W
LayerCount: 2
Fore
SplineSet
100 500 m 1,0,-1
 200 500 l 1,1,-1
 200 100 l 1,2,-1
 300 100 l 1,3,-1
 300 500 l 1,4,-1
 400 500 l 1,5,-1
 400 100 l 1,6,-1
 500 100 l 1,7,-1
 500 500 l 1,8,-1
 600 500 l 1,9,-1
 600 0 l 1,10,-1
 100 0 l 1,11,-1
 100 500 l 1,0,-1
EndSplineSet
Validated: 1
EndChar

StartChar: afii10091
Encoding: 1097 1097 284
Width: 800
Flags: W
LayerCount: 2
Fore
SplineSet
100 500 m 1,0,-1
 200 500 l 1,1,-1
 200 100 l 1,2,-1
 300 100 l 1,3,-1
 300 500 l 1,4,-1
 400 500 l 1,5,-1
 400 100 l 1,6,-1
 500 100 l 1,7,-1
 500 500 l 1,8,-1
 600 500 l 1,9,-1
 600 100 l 1,10,-1
 700 100 l 1,11,-1
 700 -100 l 1,12,-1
 600 -100 l 1,13,-1
 600 0 l 1,14,-1
 100 0 l 1,15,-1
 100 500 l 1,0,-1
EndSplineSet
Validated: 1
EndChar

StartChar: afii10092
Encoding: 1098 1098 285
Width: 800
Flags: W
LayerCount: 2
Fore
SplineSet
100 500 m 1,0,-1
 300 500 l 1,1,-1
 300 300 l 1,2,-1
 600 300 l 1,3,-1
 600 200 l 1,4,-1
 700 200 l 1,5,-1
 700 100 l 1,6,-1
 600 100 l 1,7,-1
 600 0 l 1,8,-1
 200 0 l 1,9,-1
 200 400 l 1,10,-1
 100 400 l 1,11,-1
 100 500 l 1,0,-1
300 100 m 1,12,-1
 600 100 l 1,13,-1
 600 200 l 1,14,-1
 300 200 l 1,15,-1
 300 100 l 1,12,-1
EndSplineSet
Validated: 5
EndChar

StartChar: afii10093
Encoding: 1099 1099 286
Width: 800
Flags: W
LayerCount: 2
Fore
SplineSet
0 500 m 1,0,-1
 100 500 l 1,1,-1
 100 300 l 1,2,-1
 400 300 l 1,3,-1
 400 200 l 1,4,-1
 500 200 l 1,5,-1
 500 100 l 1,6,-1
 400 100 l 1,7,-1
 400 0 l 1,8,-1
 0 0 l 1,9,-1
 0 500 l 1,0,-1
600 500 m 1,10,-1
 700 500 l 1,11,-1
 700 0 l 1,12,-1
 600 0 l 1,13,-1
 600 500 l 1,10,-1
100 100 m 1,14,-1
 400 100 l 1,15,-1
 400 200 l 1,16,-1
 100 200 l 1,17,-1
 100 100 l 1,14,-1
EndSplineSet
Validated: 5
EndChar

StartChar: afii10094
Encoding: 1100 1100 287
Width: 800
Flags: W
LayerCount: 2
Fore
SplineSet
100 500 m 1,0,-1
 200 500 l 1,1,-1
 200 300 l 1,2,-1
 500 300 l 1,3,-1
 500 200 l 1,4,-1
 600 200 l 1,5,-1
 600 100 l 1,6,-1
 500 100 l 1,7,-1
 500 0 l 1,8,-1
 100 0 l 1,9,-1
 100 500 l 1,0,-1
200 100 m 1,10,-1
 500 100 l 1,11,-1
 500 200 l 1,12,-1
 200 200 l 1,13,-1
 200 100 l 1,10,-1
EndSplineSet
Validated: 5
EndChar

StartChar: afii10095
Encoding: 1101 1101 288
Width: 800
Flags: W
LayerCount: 2
Fore
SplineSet
300 300 m 1,0,-1
 500 300 l 1,1,-1
 500 400 l 1,2,-1
 200 400 l 1,3,-1
 200 300 l 1,4,-1
 100 300 l 1,5,-1
 100 400 l 1,6,-1
 200 400 l 1,7,-1
 200 500 l 1,8,-1
 500 500 l 1,9,-1
 500 400 l 1,10,-1
 600 400 l 1,11,-1
 600 100 l 1,12,-1
 500 100 l 1,13,-1
 500 0 l 1,14,-1
 200 0 l 1,15,-1
 200 100 l 1,16,-1
 100 100 l 1,17,-1
 100 200 l 1,18,-1
 200 200 l 1,19,-1
 200 100 l 1,20,-1
 500 100 l 1,21,-1
 500 200 l 1,22,-1
 300 200 l 1,23,-1
 300 300 l 1,0,-1
EndSplineSet
Validated: 5
EndChar

StartChar: afii10096
Encoding: 1102 1102 289
Width: 800
Flags: W
LayerCount: 2
Fore
SplineSet
100 500 m 1,0,-1
 200 500 l 1,1,-1
 200 300 l 1,2,-1
 300 300 l 1,3,-1
 300 400 l 1,4,-1
 400 400 l 1,5,-1
 400 500 l 1,6,-1
 600 500 l 1,7,-1
 600 400 l 1,8,-1
 700 400 l 1,9,-1
 700 100 l 1,10,-1
 600 100 l 1,11,-1
 600 0 l 1,12,-1
 400 0 l 1,13,-1
 400 100 l 1,14,-1
 300 100 l 1,15,-1
 300 200 l 1,16,-1
 200 200 l 1,17,-1
 200 0 l 1,18,-1
 100 0 l 1,19,-1
 100 500 l 1,0,-1
400 400 m 1,20,-1
 400 100 l 1,21,-1
 600 100 l 1,22,-1
 600 398 l 1,23,-1
 400 400 l 1,20,-1
EndSplineSet
Validated: 5
EndChar

StartChar: afii10097
Encoding: 1103 1103 290
Width: 800
Flags: W
LayerCount: 2
Fore
SplineSet
100 400 m 1,0,-1
 200 400 l 1,1,-1
 200 500 l 1,2,-1
 600 500 l 1,3,-1
 600 0 l 1,4,-1
 500 0 l 1,5,-1
 500 200 l 1,6,-1
 300 200 l 1,7,-1
 300 100 l 1,8,-1
 200 100 l 1,9,-1
 200 0 l 1,10,-1
 100 0 l 1,11,-1
 100 100 l 1,12,-1
 200 100 l 1,13,-1
 200 300 l 1,14,-1
 100 300 l 1,15,-1
 100 400 l 1,0,-1
200 300 m 1,16,-1
 500 300 l 1,17,-1
 500 400 l 1,18,-1
 200 400 l 1,19,-1
 200 300 l 1,16,-1
EndSplineSet
Validated: 5
EndChar

StartChar: afii10071
Encoding: 1105 1105 291
Width: 800
Flags: W
LayerCount: 2
Fore
SplineSet
100 400 m 1,0,-1
 200 400 l 1,1,-1
 200 500 l 1,2,-1
 500 500 l 1,3,-1
 500 400 l 1,4,-1
 600 400 l 1,5,-1
 600 300 l 1,6,-1
 500 300 l 1,7,-1
 500 200 l 1,8,-1
 200 200 l 1,9,-1
 200 100 l 1,10,-1
 600 100 l 1,11,-1
 600 0 l 1,12,-1
 200 0 l 1,13,-1
 200 100 l 1,14,-1
 100 100 l 1,15,-1
 100 400 l 1,0,-1
200 300 m 1,16,-1
 500 300 l 1,17,-1
 500 400 l 1,18,-1
 200 400 l 1,19,-1
 200 300 l 1,16,-1
400 700 m 1,20,-1
 500 700 l 1,21,-1
 500 600 l 1,22,-1
 400 600 l 1,23,-1
 400 700 l 1,20,-1
200 700 m 1,24,-1
 300 700 l 1,25,-1
 300 600 l 1,26,-1
 200 600 l 1,27,-1
 200 700 l 1,24,-1
EndSplineSet
Validated: 5
EndChar

StartChar: afii10099
Encoding: 1106 1106 292
Width: 800
Flags: W
LayerCount: 2
Fore
SplineSet
100 500 m 1,0,-1
 200 500 l 1,1,-1
 200 600 l 1,2,-1
 300 600 l 1,3,-1
 300 500 l 1,4,-1
 500 500 l 1,5,-1
 500 400 l 1,6,-1
 600 400 l 1,7,-1
 600 -100 l 1,8,-1
 500 -100 l 1,9,-1
 500 -200 l 1,10,-1
 300 -200 l 1,11,-1
 300 -100 l 1,12,-1
 500 -100 l 1,13,-1
 500 400 l 1,14,-1
 300 400 l 1,15,-1
 300 0 l 1,16,-1
 200 0 l 1,17,-1
 200 400 l 1,18,-1
 100 400 l 1,19,-1
 100 500 l 1,0,-1
EndSplineSet
Validated: 5
EndChar

StartChar: afii10100
Encoding: 1107 1107 293
Width: 800
Flags: W
LayerCount: 2
Fore
SplineSet
100 500 m 1,0,-1
 600 500 l 1,1,-1
 600 400 l 1,2,-1
 200 400 l 1,3,-1
 200 0 l 1,4,-1
 100 0 l 1,5,-1
 100 500 l 1,0,-1
300 700 m 1,6,-1
 400 700 l 1,7,-1
 400 800 l 1,8,-1
 500 800 l 1,9,-1
 500 700 l 1,10,-1
 400 700 l 1,11,-1
 400 600 l 1,12,-1
 300 600 l 1,13,-1
 300 700 l 1,6,-1
EndSplineSet
Validated: 5
EndChar

StartChar: afii10101
Encoding: 1108 1108 294
Width: 800
Flags: W
LayerCount: 2
Fore
SplineSet
100 400 m 1,0,-1
 200 400 l 1,1,-1
 200 500 l 1,2,-1
 500 500 l 1,3,-1
 500 400 l 1,4,-1
 600 400 l 1,5,-1
 600 300 l 1,6,-1
 500 300 l 1,7,-1
 500 400 l 1,8,-1
 200 400 l 1,9,-1
 200 300 l 1,10,-1
 400 300 l 1,11,-1
 400 200 l 1,12,-1
 200 200 l 1,13,-1
 200 100 l 1,14,-1
 500 100 l 1,15,-1
 500 200 l 1,16,-1
 600 200 l 1,17,-1
 600 100 l 1,18,-1
 500 100 l 1,19,-1
 500 0 l 1,20,-1
 200 0 l 1,21,-1
 200 100 l 1,22,-1
 100 100 l 1,23,-1
 100 400 l 1,0,-1
EndSplineSet
Validated: 5
EndChar

StartChar: afii10102
Encoding: 1109 1109 295
Width: 800
Flags: W
LayerCount: 2
Fore
SplineSet
100 400 m 1,0,-1
 200 400 l 1,1,-1
 200 500 l 1,2,-1
 500 500 l 1,3,-1
 500 400 l 1,4,-1
 200 400 l 1,5,-1
 200 300 l 1,6,-1
 500 300 l 1,7,-1
 500 200 l 1,8,-1
 600 200 l 1,9,-1
 600 100 l 1,10,-1
 500 100 l 1,11,-1
 500 0 l 1,12,-1
 100 0 l 1,13,-1
 100 100 l 1,14,-1
 500 100 l 1,15,-1
 500 200 l 1,16,-1
 200 200 l 1,17,-1
 200 300 l 1,18,-1
 100 300 l 1,19,-1
 100 400 l 1,0,-1
EndSplineSet
Validated: 5
EndChar

StartChar: afii10103
Encoding: 1110 1110 296
Width: 800
Flags: W
LayerCount: 2
Fore
SplineSet
200 400 m 1,0,-1
 400 400 l 1,1,-1
 400 100 l 1,2,-1
 500 100 l 1,3,-1
 500 0 l 1,4,-1
 200 0 l 1,5,-1
 200 100 l 1,6,-1
 300 100 l 1,7,-1
 300 300 l 1,8,-1
 200 300 l 1,9,-1
 200 400 l 1,0,-1
300 600 m 1,10,-1
 400 600 l 1,11,-1
 400 500 l 1,12,-1
 300 500 l 1,13,-1
 300 600 l 1,10,-1
EndSplineSet
Validated: 1
EndChar

StartChar: afii10104
Encoding: 1111 1111 297
Width: 800
Flags: W
LayerCount: 2
Fore
SplineSet
200 400 m 1,0,-1
 500 400 l 1,1,-1
 500 300 l 1,2,-1
 400 300 l 1,3,-1
 400 100 l 1,4,-1
 500 100 l 1,5,-1
 500 0 l 1,6,-1
 200 0 l 1,7,-1
 200 100 l 1,8,-1
 300 100 l 1,9,-1
 300 300 l 1,10,-1
 200 300 l 1,11,-1
 200 400 l 1,0,-1
200 600 m 1,12,-1
 300 600 l 1,13,-1
 300 500 l 1,14,-1
 200 500 l 1,15,-1
 200 600 l 1,12,-1
400 600 m 1,16,-1
 500 600 l 1,17,-1
 500 500 l 1,18,-1
 400 500 l 1,19,-1
 400 600 l 1,16,-1
EndSplineSet
Validated: 1
EndChar

StartChar: afii10105
Encoding: 1112 1112 298
Width: 800
Flags: W
LayerCount: 2
Fore
SplineSet
200 100 m 1,0,-1
 300 100 l 1,1,-1
 300 0 l 1,2,-1
 500 0 l 1,3,-1
 500 400 l 1,4,-1
 600 400 l 1,5,-1
 600 0 l 1,6,-1
 500 0 l 1,7,-1
 500 -100 l 1,8,-1
 300 -100 l 1,9,-1
 300 0 l 1,10,-1
 200 0 l 1,11,-1
 200 100 l 1,0,-1
500 600 m 1,12,-1
 600 600 l 1,13,-1
 600 500 l 1,14,-1
 500 500 l 1,15,-1
 500 600 l 1,12,-1
EndSplineSet
Validated: 5
EndChar

StartChar: afii10106
Encoding: 1113 1113 299
Width: 800
Flags: W
LayerCount: 2
Fore
SplineSet
100 100 m 1,0,-1
 200 100 l 1,1,-1
 200 500 l 1,2,-1
 500 500 l 1,3,-1
 500 300 l 1,4,-1
 700 300 l 1,5,-1
 700 200 l 1,6,-1
 800 200 l 1,7,-1
 800 100 l 1,8,-1
 700 100 l 1,9,-1
 700 0 l 1,10,-1
 400 0 l 1,11,-1
 400 400 l 1,12,-1
 300 400 l 1,13,-1
 300 0 l 1,14,-1
 100 0 l 1,15,-1
 100 100 l 1,0,-1
500 100 m 1,16,-1
 700 100 l 1,17,-1
 700 200 l 1,18,-1
 500 200 l 1,19,-1
 500 100 l 1,16,-1
EndSplineSet
Validated: 5
EndChar

StartChar: afii10107
Encoding: 1114 1114 300
Width: 800
Flags: W
LayerCount: 2
Fore
SplineSet
100 500 m 1,0,-1
 200 500 l 1,1,-1
 200 300 l 1,2,-1
 400 300 l 1,3,-1
 400 500 l 1,4,-1
 500 500 l 1,5,-1
 500 300 l 1,6,-1
 700 300 l 1,7,-1
 700 200 l 1,8,-1
 800 200 l 1,9,-1
 800 100 l 1,10,-1
 700 100 l 1,11,-1
 700 0 l 1,12,-1
 400 0 l 1,13,-1
 400 200 l 1,14,-1
 200 200 l 1,15,-1
 200 0 l 1,16,-1
 100 0 l 1,17,-1
 100 500 l 1,0,-1
500 100 m 1,18,-1
 700 100 l 1,19,-1
 700 200 l 1,20,-1
 500 200 l 1,21,-1
 500 100 l 1,18,-1
EndSplineSet
Validated: 5
EndChar

StartChar: afii10108
Encoding: 1115 1115 301
Width: 800
Flags: W
LayerCount: 2
Fore
SplineSet
100 500 m 1,0,-1
 200 500 l 1,1,-1
 200 600 l 1,2,-1
 300 600 l 1,3,-1
 300 500 l 1,4,-1
 500 500 l 1,5,-1
 500 400 l 1,6,-1
 600 400 l 1,7,-1
 600 0 l 1,8,-1
 500 0 l 1,9,-1
 500 400 l 1,10,-1
 300 400 l 1,11,-1
 300 0 l 1,12,-1
 200 0 l 1,13,-1
 200 400 l 1,14,-1
 100 400 l 1,15,-1
 100 500 l 1,0,-1
EndSplineSet
Validated: 5
EndChar

StartChar: afii10109
Encoding: 1116 1116 302
Width: 800
Flags: W
LayerCount: 2
Fore
SplineSet
100 500 m 1,0,-1
 200 500 l 1,1,-1
 200 300 l 1,2,-1
 400 300 l 1,3,-1
 400 400 l 1,4,-1
 500 400 l 1,5,-1
 500 500 l 1,6,-1
 600 500 l 1,7,-1
 600 400 l 1,8,-1
 500 400 l 1,9,-1
 500 300 l 1,10,-1
 400 300 l 1,11,-1
 400 200 l 1,12,-1
 500 200 l 1,13,-1
 500 100 l 1,14,-1
 600 100 l 1,15,-1
 600 0 l 1,16,-1
 500 0 l 1,17,-1
 500 100 l 1,18,-1
 400 100 l 1,19,-1
 400 200 l 1,20,-1
 200 200 l 1,21,-1
 200 0 l 1,22,-1
 100 0 l 1,23,-1
 100 500 l 1,0,-1
300 700 m 1,24,-1
 400 700 l 1,25,-1
 400 800 l 1,26,-1
 500 800 l 1,27,-1
 500 700 l 1,28,-1
 400 700 l 1,29,-1
 400 600 l 1,30,-1
 300 600 l 1,31,-1
 300 700 l 1,24,-1
EndSplineSet
Validated: 5
EndChar

StartChar: afii10110
Encoding: 1118 1118 303
Width: 800
Flags: W
LayerCount: 2
Fore
SplineSet
100 500 m 1,0,-1
 200 500 l 1,1,-1
 200 200 l 1,2,-1
 500 200 l 1,3,-1
 500 500 l 1,4,-1
 600 500 l 1,5,-1
 600 0 l 1,6,-1
 500 0 l 1,7,-1
 500 -100 l 1,8,-1
 200 -100 l 1,9,-1
 200 0 l 1,10,-1
 500 0 l 1,11,-1
 500 100 l 1,12,-1
 200 100 l 1,13,-1
 200 200 l 1,14,-1
 100 200 l 1,15,-1
 100 500 l 1,0,-1
200 800 m 1,16,-1
 300 800 l 1,17,-1
 300 700 l 1,18,-1
 400 700 l 1,19,-1
 400 800 l 1,20,-1
 500 800 l 1,21,-1
 500 700 l 1,22,-1
 400 700 l 1,23,-1
 400 600 l 1,24,-1
 300 600 l 1,25,-1
 300 700 l 1,26,-1
 200 700 l 1,27,-1
 200 800 l 1,16,-1
EndSplineSet
Validated: 5
EndChar

StartChar: afii10193
Encoding: 1119 1119 304
Width: 800
Flags: W
LayerCount: 2
Fore
SplineSet
100 500 m 1,0,-1
 200 500 l 1,1,-1
 200 100 l 1,2,-1
 500 100 l 1,3,-1
 500 500 l 1,4,-1
 600 500 l 1,5,-1
 600 0 l 1,6,-1
 400 0 l 1,7,-1
 400 -100 l 1,8,-1
 300 -100 l 1,9,-1
 300 0 l 1,10,-1
 100 0 l 1,11,-1
 100 500 l 1,0,-1
EndSplineSet
Validated: 1
EndChar

StartChar: afii10050
Encoding: 1168 1168 305
Width: 800
Flags: W
LayerCount: 2
Fore
SplineSet
100 600 m 1,0,-1
 600 600 l 1,1,-1
 600 700 l 1,2,-1
 700 700 l 1,3,-1
 700 500 l 1,4,-1
 200 500 l 1,5,-1
 200 0 l 1,6,-1
 100 0 l 1,7,-1
 100 600 l 1,0,-1
EndSplineSet
Validated: 1
EndChar

StartChar: afii10098
Encoding: 1169 1169 306
Width: 800
Flags: W
LayerCount: 2
Fore
SplineSet
100 500 m 1,0,-1
 500 500 l 1,1,-1
 500 600 l 1,2,-1
 600 600 l 1,3,-1
 600 400 l 1,4,-1
 200 400 l 1,5,-1
 200 0 l 1,6,-1
 100 0 l 1,7,-1
 100 500 l 1,0,-1
EndSplineSet
Validated: 1
EndChar

StartChar: afii61352
Encoding: 8470 8470 307
Width: 800
Flags: W
LayerCount: 2
Fore
SplineSet
100 600 m 1,0,-1
 200 600 l 1,1,-1
 200 500 l 1,2,-1
 300 500 l 1,3,-1
 300 400 l 1,4,-1
 400 400 l 1,5,-1
 400 300 l 1,6,-1
 500 300 l 1,7,-1
 500 600 l 1,8,-1
 600 600 l 1,9,-1
 600 0 l 1,10,-1
 500 0 l 1,11,-1
 500 200 l 1,12,-1
 400 200 l 1,13,-1
 400 300 l 1,14,-1
 300 300 l 1,15,-1
 300 400 l 1,16,-1
 200 400 l 1,17,-1
 200 0 l 1,18,-1
 100 0 l 1,19,-1
 100 600 l 1,0,-1
700 600 m 1,20,-1
 800 600 l 1,21,-1
 800 400 l 1,22,-1
 700 400 l 1,23,-1
 700 600 l 1,20,-1
700 300 m 1,24,-1
 800 300 l 1,25,-1
 800 200 l 1,26,-1
 700 200 l 1,27,-1
 700 300 l 1,24,-1
EndSplineSet
Validated: 5
EndChar

StartChar: minus
Encoding: 8722 8722 308
Width: 800
Flags: W
LayerCount: 2
Fore
SplineSet
200 300 m 1,0,-1
 700 300 l 1,1,-1
 700 200 l 1,2,-1
 200 200 l 1,3,-1
 200 300 l 1,0,-1
EndSplineSet
Validated: 1
EndChar

StartChar: numbersign
Encoding: 35 35 309
Width: 800
Flags: W
LayerCount: 2
Fore
SplineSet
100 500 m 1,0,-1
 200 500 l 1,1,-1
 200 600 l 1,2,-1
 300 600 l 1,3,-1
 300 500 l 1,4,-1
 500 500 l 1,5,-1
 500 600 l 1,6,-1
 600 600 l 1,7,-1
 600 500 l 1,8,-1
 700 500 l 1,9,-1
 700 400 l 1,10,-1
 600 400 l 1,11,-1
 600 200 l 1,12,-1
 700 200 l 1,13,-1
 700 100 l 1,14,-1
 600 100 l 1,15,-1
 600 0 l 1,16,-1
 500 0 l 1,17,-1
 500 100 l 1,18,-1
 300 100 l 1,19,-1
 300 0 l 1,20,-1
 200 0 l 1,21,-1
 200 100 l 1,22,-1
 100 100 l 1,23,-1
 100 200 l 1,24,-1
 200 200 l 1,25,-1
 200 400 l 1,26,-1
 100 400 l 1,27,-1
 100 500 l 1,0,-1
300 200 m 1,28,-1
 500 200 l 1,29,-1
 500 400 l 1,30,-1
 300 400 l 1,31,-1
 300 200 l 1,28,-1
EndSplineSet
Validated: 1
EndChar

StartChar: exclam
Encoding: 33 33 310
Width: 290
Flags: W
LayerCount: 2
Fore
SplineSet
96 600 m 1,0,-1
 196 600 l 1,1,-1
 196 200 l 1,2,-1
 96 200 l 1,3,-1
 96 600 l 1,0,-1
96 100 m 1,4,-1
 196 100 l 1,5,-1
 196 0 l 1,6,-1
 96 0 l 1,7,-1
 96 100 l 1,4,-1
EndSplineSet
Validated: 1
EndChar

StartChar: quotedbl
Encoding: 34 34 311
Width: 594
Flags: W
LayerCount: 2
Fore
SplineSet
94 600 m 1,0,-1
 194 600 l 1,1,-1
 194 400 l 1,2,-1
 94 400 l 1,3,-1
 94 600 l 1,0,-1
394 600 m 1,4,-1
 494 600 l 1,5,-1
 494 400 l 1,6,-1
 394 400 l 1,7,-1
 394 600 l 1,4,-1
EndSplineSet
Validated: 1
EndChar

StartChar: percent
Encoding: 37 37 312
Width: 800
Flags: W
LayerCount: 2
Fore
SplineSet
100 100 m 1,0,-1
 200 100 l 1,1,-1
 200 200 l 1,2,-1
 300 200 l 1,3,-1
 300 300 l 1,4,-1
 400 300 l 1,5,-1
 400 400 l 1,6,-1
 500 400 l 1,7,-1
 500 500 l 1,8,-1
 600 500 l 1,9,-1
 600 600 l 1,10,-1
 700 600 l 1,11,-1
 700 500 l 1,12,-1
 600 500 l 1,13,-1
 600 400 l 1,14,-1
 500 400 l 1,15,-1
 500 300 l 1,16,-1
 400 300 l 1,17,-1
 400 200 l 1,18,-1
 300 200 l 1,19,-1
 300 100 l 1,20,-1
 200 100 l 1,21,-1
 200 0 l 1,22,-1
 100 0 l 1,23,-1
 100 100 l 1,0,-1
100 600 m 1,24,-1
 300 600 l 1,25,-1
 300 400 l 1,26,-1
 100 400 l 1,27,-1
 100 600 l 1,24,-1
500 200 m 1,28,-1
 700 200 l 1,29,-1
 700 0 l 1,30,-1
 500 0 l 1,31,-1
 500 200 l 1,28,-1
EndSplineSet
Validated: 5
EndChar

StartChar: dollar
Encoding: 36 36 313
Width: 694
Flags: W
LayerCount: 2
Fore
SplineSet
94 500 m 1,0,-1
 294 500 l 1,1,-1
 294 600 l 1,2,-1
 394 600 l 1,3,-1
 394 500 l 1,4,-1
 594 500 l 1,5,-1
 594 400 l 1,6,-1
 394 400 l 1,7,-1
 394 300 l 1,8,-1
 594 300 l 1,9,-1
 594 0 l 1,10,-1
 394 0 l 1,11,-1
 394 -100 l 1,12,-1
 294 -100 l 1,13,-1
 294 0 l 1,14,-1
 94 0 l 1,15,-1
 94 100 l 1,16,-1
 294 100 l 1,17,-1
 294 200 l 1,18,-1
 94 200 l 1,19,-1
 94 500 l 1,0,-1
394 100 m 1,20,-1
 494 100 l 1,21,-1
 494 200 l 1,22,-1
 394 200 l 1,23,-1
 394 100 l 1,20,-1
194 300 m 1,24,-1
 294 300 l 1,25,-1
 294 400 l 1,26,-1
 194 400 l 1,27,-1
 194 300 l 1,24,-1
EndSplineSet
Validated: 1
EndChar
